SplineFontDB: 3.0
FontName: OverlockSC-Regular
FullName: Overlock SC
FamilyName: Overlock SC
Weight: Book
Copyright: Copyright (c) 2011, Dario Manuel Muhafara (http://www.tipo.net.ar), with Reserved Font Name "Overlock".
Version: 1.001
ItalicAngle: 0
UnderlinePosition: -113
UnderlineWidth: 20
Ascent: 800
Descent: 200
sfntRevision: 0x00010042
LayerCount: 2
Layer: 0 1 "Back"  1
Layer: 1 1 "Fore"  0
XUID: [1021 288 713564382 6119446]
FSType: 0
OS2Version: 2
OS2_WeightWidthSlopeOnly: 0
OS2_UseTypoMetrics: 1
CreationTime: 1324052818
ModificationTime: 1324084155
PfmFamily: 17
TTFWeight: 400
TTFWidth: 5
LineGap: 0
VLineGap: 0
Panose: 2 0 5 6 3 0 0 2 0 4
OS2TypoAscent: 166
OS2TypoAOffset: 1
OS2TypoDescent: -54
OS2TypoDOffset: 1
OS2TypoLinegap: 0
OS2WinAscent: 67
OS2WinAOffset: 1
OS2WinDescent: 1
OS2WinDOffset: 1
HheadAscent: 67
HheadAOffset: 1
HheadDescent: -1
HheadDOffset: 1
OS2SubXSize: 700
OS2SubYSize: 650
OS2SubXOff: 0
OS2SubYOff: 140
OS2SupXSize: 700
OS2SupYSize: 650
OS2SupXOff: 0
OS2SupYOff: 477
OS2StrikeYSize: 50
OS2StrikeYPos: 250
OS2Vendor: 'pyrs'
OS2CodePages: 20000001.00000000
OS2UnicodeRanges: 800000af.4000204b.00000000.00000000
Lookup: 258 0 0 "'kern' Horizontal Kerning in Latin lookup 0"  {"'kern' Horizontal Kerning in Latin lookup 0 subtable"  } ['kern' ('DFLT' <'dflt' > 'latn' <'dflt' > ) ]
MarkAttachClasses: 1
DEI: 91125
TtTable: prep
PUSHW_1
 511
SCANCTRL
PUSHB_1
 4
SCANTYPE
EndTTInstrs
ShortTable: maxp 16
  1
  0
  247
  131
  7
  0
  0
  2
  0
  1
  1
  0
  64
  0
  0
  0
EndShort
LangName: 1033 "" "" "" "DarioManuelMuhafara: Overlock SC: 2011" "" "Version 1.001" "" "Overlock is a trademark of Dario Manuel Muhafara." "Dario Manuel Muhafara" "Dario Muhafara" "" "www.tipo.net.ar" "www.tipo.net.ar" "This Font Software is licensed under the SIL Open Font License,+AA0A-Version 1.1. This license is available with a FAQ at:+AA0A-http://scripts.sil.org/OFL" "http://scripts.sil.org/OFL" 
GaspTable: 1 65535 15
Encoding: UnicodeBmp
UnicodeInterp: none

StartChar: exclam
Encoding: 33 33 4
Width: 261
GlyphClass: 2
Flags: W
LayerCount: 2
Fore
SplineSet
121 -10 m 128,-1,1
 96 -10 96 -10 78 8 c 128,-1,2
 60 26 60 26 60 53 c 128,-1,3
 60 80 60 80 78 98.5 c 128,-1,4
 96 117 96 117 121 117 c 128,-1,5
 146 117 146 117 163.5 98.5 c 128,-1,6
 181 80 181 80 181 53 c 128,-1,7
 181 26 181 26 163.5 8 c 128,-1,0
 146 -10 146 -10 121 -10 c 128,-1,1
160 522 m 0,8,9
 160 501 160 501 151 438.5 c 128,-1,10
 142 376 142 376 142 323 c 2,11,-1
 142 290 l 2,12,13
 142 231 142 231 158 199 c 1,14,15
 138 189 138 189 121 189 c 0,16,17
 81 189 81 189 80 226 c 0,18,19
 79 236 79 236 79 309.5 c 128,-1,20
 79 383 79 383 75 451 c 128,-1,21
 71 519 71 519 61 550 c 1,22,23
 89 560 89 560 113 560 c 0,24,25
 160 560 160 560 160 522 c 0,8,9
EndSplineSet
EndChar

StartChar: quotedbl
Encoding: 34 34 5
Width: 345
GlyphClass: 2
Flags: W
LayerCount: 2
Fore
SplineSet
50 698 m 0,0,1
 50 716 50 716 63.5 726.5 c 128,-1,2
 77 737 77 737 97 737 c 0,3,4
 115 737 115 737 127 726 c 128,-1,5
 139 715 139 715 139 691 c 0,6,7
 139 649 139 649 120 524 c 0,8,9
 116 500 116 500 108 490.5 c 128,-1,10
 100 481 100 481 85 481 c 0,11,12
 73 481 73 481 61 485 c 1,13,14
 64 503 64 503 64 525 c 0,15,16
 64 586 64 586 57 637 c 128,-1,17
 50 688 50 688 50 698 c 0,0,1
216 698 m 0,18,19
 216 716 216 716 229.5 726.5 c 128,-1,20
 243 737 243 737 263 737 c 0,21,22
 281 737 281 737 293 726 c 128,-1,23
 305 715 305 715 305 691 c 0,24,25
 305 649 305 649 286 524 c 0,26,27
 282 500 282 500 274 490.5 c 128,-1,28
 266 481 266 481 251 481 c 0,29,30
 239 481 239 481 227 485 c 1,31,32
 230 503 230 503 230 525 c 0,33,34
 230 586 230 586 223 637 c 128,-1,35
 216 688 216 688 216 698 c 0,18,19
EndSplineSet
EndChar

StartChar: numbersign
Encoding: 35 35 6
Width: 535
GlyphClass: 2
Flags: W
LayerCount: 2
Fore
SplineSet
206 272 m 1,0,1
 299 272 299 272 325 273 c 1,2,3
 331 309 331 309 340 389 c 1,4,5
 314 390 314 390 255 390 c 2,6,-1
 224 390 l 1,7,8
 211 317 211 317 206 272 c 1,0,1
392 613 m 0,9,10
 423 613 423 613 423 581 c 0,11,12
 423 579 423 579 399 444 c 1,13,14
 517 449 517 449 535 450 c 1,15,16
 534 428 534 428 532.5 416.5 c 128,-1,17
 531 405 531 405 519.5 393.5 c 128,-1,18
 508 382 508 382 487 382 c 0,19,20
 482 382 482 382 467.5 383 c 128,-1,21
 453 384 453 384 429.5 385 c 128,-1,22
 406 386 406 386 388 387 c 1,23,24
 379 333 379 333 371 273 c 1,25,26
 462 277 462 277 511 280 c 1,27,28
 510 263 510 263 509 254.5 c 128,-1,29
 508 246 508 246 504 234.5 c 128,-1,30
 500 223 500 223 489.5 218 c 128,-1,31
 479 213 479 213 463 213 c 0,32,33
 458 213 458 213 443 214 c 128,-1,34
 428 215 428 215 404.5 216 c 128,-1,35
 381 217 381 217 363 218 c 1,36,37
 353 131 353 131 353 106 c 0,38,39
 353 85 353 85 357 49 c 1,40,41
 343 41 343 41 325 41 c 0,42,43
 295 41 295 41 295 74 c 0,44,45
 295 89 295 89 316 220 c 1,46,47
 290 221 290 221 231 221 c 2,48,-1
 199 221 l 1,49,50
 188 122 188 122 188 106 c 0,51,52
 188 85 188 85 192 49 c 1,53,54
 178 41 178 41 160 41 c 0,55,56
 130 41 130 41 130 74 c 0,57,58
 130 89 130 89 151 220 c 1,59,60
 68 216 68 216 17 202 c 1,61,62
 14 212 14 212 14 234 c 0,63,64
 14 274 14 274 77 274 c 0,65,66
 129 274 129 274 160 273 c 1,67,-1
 175 389 l 1,68,69
 92 385 92 385 41 371 c 1,70,71
 38 381 38 381 38 404 c 0,72,73
 38 444 38 444 101 444 c 2,74,-1
 182 443 l 1,75,76
 184 458 184 458 188.5 495.5 c 128,-1,77
 193 533 193 533 196 563 c 128,-1,78
 199 593 199 593 200 610 c 1,79,80
 214 613 214 613 227 613 c 0,81,82
 258 613 258 613 258 581 c 0,83,84
 258 574 258 574 233 442 c 1,85,-1
 347 442 l 1,86,87
 348 451 348 451 356 518.5 c 128,-1,88
 364 586 364 586 365 610 c 1,89,90
 379 613 379 613 392 613 c 0,9,10
EndSplineSet
EndChar

StartChar: dollar
Encoding: 36 36 7
Width: 535
GlyphClass: 2
Flags: W
LayerCount: 2
Fore
SplineSet
133 427 m 0,0,1
 133 388 133 388 159.5 366 c 128,-1,2
 186 344 186 344 235 329 c 1,3,-1
 235 522 l 1,4,5
 190 520 190 520 161.5 496 c 128,-1,6
 133 472 133 472 133 427 c 0,0,1
395 152 m 0,7,8
 395 194 395 194 365 214 c 128,-1,9
 335 234 335 234 276 250 c 1,10,-1
 276 44 l 1,11,12
 327 46 327 46 361 73.5 c 128,-1,13
 395 101 395 101 395 152 c 0,7,8
395 458 m 1,14,15
 381 482 381 482 347.5 499 c 128,-1,16
 314 516 314 516 275 521 c 1,17,-1
 275 318 l 1,18,19
 298 312 298 312 301.5 311 c 128,-1,20
 305 310 305 310 326.5 304 c 128,-1,21
 348 298 348 298 353 295.5 c 128,-1,22
 358 293 358 293 376 286 c 128,-1,23
 394 279 394 279 399.5 274 c 128,-1,24
 405 269 405 269 417.5 260.5 c 128,-1,25
 430 252 430 252 434.5 243 c 128,-1,26
 439 234 439 234 446 223 c 128,-1,27
 453 212 453 212 455 198.5 c 128,-1,28
 457 185 457 185 457 170 c 0,29,30
 457 83 457 83 406 40.5 c 128,-1,31
 355 -2 355 -2 276 -9 c 1,32,33
 278 -49 278 -49 280 -66 c 1,34,-1
 265 -68 l 1,35,36
 236 -68 236 -68 236 -41 c 2,37,-1
 236 -10 l 1,38,39
 165 -8 165 -8 112.5 15 c 128,-1,40
 60 38 60 38 60 70 c 0,41,42
 60 87 60 87 71 97 c 128,-1,43
 82 107 82 107 104 117 c 1,44,45
 119 90 119 90 156 70.5 c 128,-1,46
 193 51 193 51 236 46 c 1,47,-1
 236 259 l 1,48,49
 207 266 207 266 186.5 273 c 128,-1,50
 166 280 166 280 142 293.5 c 128,-1,51
 118 307 118 307 104 323 c 128,-1,52
 90 339 90 339 80 365.5 c 128,-1,53
 70 392 70 392 70 425 c 0,54,55
 70 490 70 490 115.5 528.5 c 128,-1,56
 161 567 161 567 235 576 c 1,57,58
 233 628 233 628 231 650 c 1,59,60
 242 653 242 653 248 653 c 0,61,62
 275 653 275 653 275 626 c 2,63,-1
 275 579 l 1,64,65
 337 579 337 579 390.5 558 c 128,-1,66
 444 537 444 537 444 500 c 0,67,68
 444 467 444 467 395 458 c 1,14,15
EndSplineSet
EndChar

StartChar: percent
Encoding: 37 37 8
Width: 794
GlyphClass: 2
Flags: W
LayerCount: 2
Fore
SplineSet
608 -10 m 0,0,1
 545 -10 545 -10 508 29.5 c 128,-1,2
 471 69 471 69 471 136 c 128,-1,3
 471 203 471 203 508 242.5 c 128,-1,4
 545 282 545 282 608 282 c 0,5,6
 670 282 670 282 707 242.5 c 128,-1,7
 744 203 744 203 744 136 c 128,-1,8
 744 69 744 69 707 29.5 c 128,-1,9
 670 -10 670 -10 608 -10 c 0,0,1
684 130 m 0,10,11
 684 172 684 172 664 205 c 128,-1,12
 644 238 644 238 608 238 c 0,13,14
 574 238 574 238 551.5 212 c 128,-1,15
 529 186 529 186 529 147 c 0,16,17
 529 103 529 103 549.5 69 c 128,-1,18
 570 35 570 35 607 35 c 0,19,20
 642 35 642 35 663 62 c 128,-1,21
 684 89 684 89 684 130 c 0,10,11
181 16 m 2,22,-1
 445 353 l 2,23,24
 536 469 536 469 585 540 c 1,25,26
 600 538 600 538 613.5 527.5 c 128,-1,27
 627 517 627 517 627 506 c 0,28,29
 627 497 627 497 617 483 c 2,30,-1
 353 145 l 2,31,32
 266 34 266 34 213 -42 c 1,33,34
 171 -29 171 -29 171 -7 c 0,35,36
 171 3 171 3 181 16 c 2,22,-1
187 209 m 0,37,38
 124 209 124 209 87 248.5 c 128,-1,39
 50 288 50 288 50 355 c 128,-1,40
 50 422 50 422 87 461.5 c 128,-1,41
 124 501 124 501 187 501 c 0,42,43
 249 501 249 501 286 461.5 c 128,-1,44
 323 422 323 422 323 355 c 128,-1,45
 323 288 323 288 286 248.5 c 128,-1,46
 249 209 249 209 187 209 c 0,37,38
263 349 m 0,47,48
 263 391 263 391 243 424 c 128,-1,49
 223 457 223 457 187 457 c 0,50,51
 153 457 153 457 130.5 431 c 128,-1,52
 108 405 108 405 108 366 c 0,53,54
 108 322 108 322 128.5 288 c 128,-1,55
 149 254 149 254 186 254 c 0,56,57
 221 254 221 254 242 281 c 128,-1,58
 263 308 263 308 263 349 c 0,47,48
EndSplineSet
EndChar

StartChar: ampersand
Encoding: 38 38 9
Width: 506
GlyphClass: 2
Flags: W
LayerCount: 2
Fore
SplineSet
153 408 m 0,0,1
 153 379 153 379 195 307 c 1,2,3
 232 335 232 335 248.5 358.5 c 128,-1,4
 265 382 265 382 265 415 c 0,5,6
 265 439 265 439 252 455.5 c 128,-1,7
 239 472 239 472 212 472 c 0,8,9
 153 472 153 472 153 408 c 0,0,1
232 51 m 0,10,11
 267 51 267 51 297 67 c 1,12,13
 224 137 224 137 164 220 c 1,14,15
 130 189 130 189 130 147 c 0,16,17
 130 103 130 103 158.5 77 c 128,-1,18
 187 51 187 51 232 51 c 0,10,11
378 242 m 0,19,20
 420 242 420 242 420 190 c 0,21,22
 420 130 420 130 394 86 c 1,23,24
 436 59 436 59 474 58 c 1,25,26
 476 48 476 48 476 35 c 0,27,28
 476 17 476 17 464.5 5 c 128,-1,29
 453 -7 453 -7 429 -7 c 0,30,31
 388 -7 388 -7 342 28 c 1,32,33
 291 -7 291 -7 224 -7 c 0,34,35
 155 -7 155 -7 103 31.5 c 128,-1,36
 51 70 51 70 51 140 c 0,37,38
 51 183 51 183 71.5 210.5 c 128,-1,39
 92 238 92 238 133 266 c 1,40,41
 110 306 110 306 100 325 c 1,42,43
 78 372 78 372 78 402 c 0,44,45
 78 459 78 459 118 493 c 128,-1,46
 158 527 158 527 219 527 c 0,47,48
 276 527 276 527 308 496 c 128,-1,49
 340 465 340 465 340 423 c 0,50,51
 340 392 340 392 331 367 c 128,-1,52
 322 342 322 342 302 322 c 128,-1,53
 282 302 282 302 266.5 290.5 c 128,-1,54
 251 279 251 279 223 261 c 1,55,56
 282 179 282 179 342 124 c 1,57,58
 348 141 348 141 348 164 c 0,59,60
 348 198 348 198 336 229 c 1,61,62
 364 242 364 242 378 242 c 0,19,20
EndSplineSet
EndChar

StartChar: quotesingle
Encoding: 39 39 10
Width: 239
GlyphClass: 2
Flags: W
LayerCount: 2
Fore
SplineSet
60 698 m 0,0,1
 60 716 60 716 73.5 726.5 c 128,-1,2
 87 737 87 737 107 737 c 0,3,4
 125 737 125 737 137 726 c 128,-1,5
 149 715 149 715 149 691 c 0,6,7
 149 649 149 649 130 524 c 0,8,9
 126 500 126 500 118 490.5 c 128,-1,10
 110 481 110 481 95 481 c 0,11,12
 83 481 83 481 71 485 c 1,13,14
 74 503 74 503 74 525 c 0,15,16
 74 586 74 586 67 637 c 128,-1,17
 60 688 60 688 60 698 c 0,0,1
EndSplineSet
EndChar

StartChar: parenleft
Encoding: 40 40 11
Width: 343
GlyphClass: 2
Flags: W
LayerCount: 2
Fore
SplineSet
90 266 m 0,0,1
 90 349 90 349 110.5 437 c 128,-1,2
 131 525 131 525 159 587.5 c 128,-1,3
 187 650 187 650 217 690.5 c 128,-1,4
 247 731 247 731 267 731 c 0,5,6
 284 731 284 731 300 708 c 1,7,8
 238 638 238 638 200 513.5 c 128,-1,9
 162 389 162 389 162 266 c 0,10,11
 162 131 162 131 201 10 c 128,-1,12
 240 -111 240 -111 300 -180 c 1,13,14
 284 -203 284 -203 267 -203 c 0,15,16
 248 -203 248 -203 218.5 -163.5 c 128,-1,17
 189 -124 189 -124 160 -62 c 128,-1,18
 131 0 131 0 110.5 89.5 c 128,-1,19
 90 179 90 179 90 266 c 0,0,1
EndSplineSet
EndChar

StartChar: parenright
Encoding: 41 41 12
Width: 320
GlyphClass: 2
Flags: W
LayerCount: 2
Fore
SplineSet
230 266 m 0,0,1
 230 179 230 179 209.5 89.5 c 128,-1,2
 189 0 189 0 160 -62 c 128,-1,3
 131 -124 131 -124 101.5 -163.5 c 128,-1,4
 72 -203 72 -203 53 -203 c 0,5,6
 36 -203 36 -203 20 -180 c 1,7,8
 80 -111 80 -111 119 10 c 128,-1,9
 158 131 158 131 158 266 c 0,10,11
 158 389 158 389 120 513.5 c 128,-1,12
 82 638 82 638 20 708 c 1,13,14
 36 731 36 731 53 731 c 0,15,16
 73 731 73 731 103 690.5 c 128,-1,17
 133 650 133 650 161 587.5 c 128,-1,18
 189 525 189 525 209.5 437 c 128,-1,19
 230 349 230 349 230 266 c 0,0,1
EndSplineSet
EndChar

StartChar: asterisk
Encoding: 42 42 13
Width: 406
GlyphClass: 2
Flags: W
LayerCount: 2
Fore
SplineSet
241 704 m 0,0,1
 241 694 241 694 228 605 c 1,2,3
 248 618 248 618 332 679 c 1,4,5
 361 654 361 654 361 625 c 0,6,7
 361 615 361 615 356 607 c 128,-1,8
 351 599 351 599 338 592 c 128,-1,9
 325 585 325 585 314.5 580.5 c 128,-1,10
 304 576 304 576 280.5 567 c 128,-1,11
 257 558 257 558 243 553 c 1,12,13
 265 530 265 530 347 458 c 1,14,15
 324 417 324 417 292 417 c 0,16,17
 279 417 279 417 267 430.5 c 128,-1,18
 255 444 255 444 232.5 480 c 128,-1,19
 210 516 210 516 201 530 c 1,20,21
 188 512 188 512 174.5 489.5 c 128,-1,22
 161 467 161 467 146.5 442 c 128,-1,23
 132 417 132 417 125 405 c 1,24,25
 106 412 106 412 90.5 426 c 128,-1,26
 75 440 75 440 75 457 c 0,27,28
 75 469 75 469 89.5 485.5 c 128,-1,29
 104 502 104 502 141 538 c 0,30,31
 153 549 153 549 160 556 c 1,32,33
 128 570 128 570 35 602 c 1,34,35
 39 625 39 625 51 643.5 c 128,-1,36
 63 662 63 662 82 662 c 0,37,38
 91 662 91 662 102 656.5 c 128,-1,39
 113 651 113 651 139.5 633 c 128,-1,40
 166 615 166 615 177 608 c 1,41,42
 175 635 175 635 162 738 c 1,43,44
 179 743 179 743 194 743 c 0,45,46
 241 743 241 743 241 704 c 0,0,1
EndSplineSet
EndChar

StartChar: plus
Encoding: 43 43 14
Width: 535
GlyphClass: 2
Flags: W
LayerCount: 2
Fore
SplineSet
296 280 m 1,0,1
 414 280 414 280 483 288 c 1,2,3
 486 279 486 279 486 258 c 0,4,5
 486 240 486 240 476 228 c 128,-1,6
 466 216 466 216 450 216 c 0,7,8
 433 216 433 216 376.5 219.5 c 128,-1,9
 320 223 320 223 295 223 c 1,10,11
 295 114 295 114 303 26 c 1,12,13
 288 23 288 23 273 23 c 0,14,15
 256 23 256 23 243.5 32.5 c 128,-1,16
 231 42 231 42 231 59 c 0,17,18
 231 67 231 67 234 123.5 c 128,-1,19
 237 180 237 180 238 224 c 1,20,21
 139 223 139 223 52 216 c 1,22,23
 49 231 49 231 49 246 c 0,24,25
 49 262 49 262 58 275 c 128,-1,26
 67 288 67 288 85 288 c 0,27,28
 93 288 93 288 145.5 285 c 128,-1,29
 198 282 198 282 239 281 c 1,30,31
 239 409 239 409 231 478 c 1,32,33
 240 481 240 481 261 481 c 0,34,35
 279 481 279 481 291 471 c 128,-1,36
 303 461 303 461 303 445 c 0,37,38
 303 428 303 428 299.5 366.5 c 128,-1,39
 296 305 296 305 296 280 c 1,0,1
EndSplineSet
EndChar

StartChar: comma
Encoding: 44 44 15
Width: 227
GlyphClass: 2
Flags: W
LayerCount: 2
Fore
SplineSet
107 -22 m 0,0,1
 107 27 107 27 58 37 c 1,2,3
 48 53 48 53 48 70 c 0,4,5
 48 91 48 91 65 105.5 c 128,-1,6
 82 120 82 120 106 120 c 0,7,8
 132 120 132 120 150.5 97 c 128,-1,9
 169 74 169 74 169 26 c 0,10,11
 169 -37 169 -37 134.5 -90 c 128,-1,12
 100 -143 100 -143 53 -143 c 0,13,14
 27 -143 27 -143 27 -113 c 0,15,16
 27 -105 27 -105 28 -101 c 1,17,-1
 33 -101 l 2,18,19
 65 -101 65 -101 86 -77 c 128,-1,20
 107 -53 107 -53 107 -22 c 0,0,1
EndSplineSet
EndChar

StartChar: hyphen
Encoding: 45 45 16
Width: 230
GlyphClass: 2
Flags: W
LayerCount: 2
Fore
SplineSet
225 267 m 0,0,1
 225 250 225 250 215 239 c 128,-1,2
 205 228 205 228 189 228 c 0,3,4
 183 228 183 228 157.5 230.5 c 128,-1,5
 132 233 132 233 112 233 c 0,6,7
 65 233 65 233 28 225 c 1,8,9
 25 240 25 240 25 255 c 0,10,11
 25 271 25 271 33.5 282.5 c 128,-1,12
 42 294 42 294 61 294 c 0,13,14
 62 294 62 294 91.5 292 c 128,-1,15
 121 290 121 290 144 290 c 0,16,17
 191 290 191 290 222 297 c 1,18,19
 225 288 225 288 225 267 c 0,0,1
EndSplineSet
EndChar

StartChar: period
Encoding: 46 46 17
Width: 231
GlyphClass: 2
Flags: W
LayerCount: 2
Fore
SplineSet
111 -10 m 128,-1,1
 86 -10 86 -10 68 8 c 128,-1,2
 50 26 50 26 50 53 c 128,-1,3
 50 80 50 80 68 98.5 c 128,-1,4
 86 117 86 117 111 117 c 128,-1,5
 136 117 136 117 153.5 98.5 c 128,-1,6
 171 80 171 80 171 53 c 128,-1,7
 171 26 171 26 153.5 8 c 128,-1,0
 136 -10 136 -10 111 -10 c 128,-1,1
EndSplineSet
EndChar

StartChar: slash
Encoding: 47 47 18
Width: 258
GlyphClass: 2
Flags: W
LayerCount: 2
Fore
SplineSet
129 113 m 2,0,1
 107 -33 107 -33 99 -119 c 1,2,3
 86 -122 86 -122 75 -122 c 0,4,5
 42 -122 42 -122 42 -94 c 0,6,7
 42 -87 42 -87 136 507 c 1,8,9
 158 653 158 653 166 739 c 1,10,-1
 187 742 l 1,11,12
 223 742 223 742 223 715 c 1,13,-1
 129 113 l 2,0,1
EndSplineSet
EndChar

StartChar: zero
Encoding: 48 48 19
Width: 525
GlyphClass: 2
Flags: W
LayerCount: 2
Fore
SplineSet
262 -10 m 128,-1,1
 162 -10 162 -10 103.5 56 c 128,-1,2
 45 122 45 122 45 232 c 0,3,4
 45 344 45 344 103.5 409.5 c 128,-1,5
 162 475 162 475 262 475 c 128,-1,6
 362 475 362 475 421 409.5 c 128,-1,7
 480 344 480 344 480 232 c 0,8,9
 480 122 480 122 421 56 c 128,-1,0
 362 -10 362 -10 262 -10 c 128,-1,1
422 221 m 0,10,11
 422 297 422 297 379.5 358 c 128,-1,12
 337 419 337 419 262 419 c 0,13,14
 192 419 192 419 147.5 368.5 c 128,-1,15
 103 318 103 318 103 248 c 0,16,17
 103 168 103 168 145.5 107 c 128,-1,18
 188 46 188 46 261 46 c 0,19,20
 333 46 333 46 377.5 96.5 c 128,-1,21
 422 147 422 147 422 221 c 0,10,11
EndSplineSet
EndChar

StartChar: one
Encoding: 49 49 20
Width: 347
GlyphClass: 2
Flags: W
LayerCount: 2
Fore
SplineSet
227 54 m 1,0,1
 265 54 265 54 311 58 c 1,2,3
 315 46 315 46 315 36 c 0,4,5
 315 -2 315 -2 276 -2 c 0,6,7
 270 -2 270 -2 226 -1 c 128,-1,8
 182 0 182 0 139 0 c 0,9,10
 83 0 83 0 52 -1 c 1,11,12
 47 14 47 14 47 23 c 0,13,14
 47 57 47 57 105 57 c 2,15,-1
 153 57 l 1,16,17
 153 70 153 70 154 134 c 128,-1,18
 155 198 155 198 155 250 c 0,19,20
 155 338 155 338 152 413 c 1,21,22
 69 403 69 403 48 399 c 1,23,24
 46 409 46 409 46 416 c 0,25,26
 46 453 46 453 85 459 c 0,27,28
 181 475 181 475 188 475 c 0,29,30
 203 475 203 475 215.5 466 c 128,-1,31
 228 457 228 457 228 437 c 0,32,33
 228 431 228 431 226 399 c 128,-1,34
 224 367 224 367 222 318 c 128,-1,35
 220 269 220 269 220 223 c 2,36,-1
 220 189 l 2,37,38
 220 98 220 98 227 54 c 1,0,1
EndSplineSet
EndChar

StartChar: two
Encoding: 50 50 21
Width: 482
GlyphClass: 2
Flags: W
LayerCount: 2
Fore
SplineSet
126 61 m 1,0,1
 204 61 204 61 340 69 c 1,2,3
 404 71 404 71 446 82 c 1,4,5
 458 65 458 65 458 46 c 0,6,7
 458 4 458 4 386 1 c 0,8,9
 308 -2 308 -2 221 -2 c 0,10,11
 155 -2 155 -2 77 0 c 1,12,13
 31 0 31 0 31 45 c 0,14,15
 31 53 31 53 32 57 c 1,16,17
 48 68 48 68 103 102.5 c 128,-1,18
 158 137 158 137 186 157.5 c 128,-1,19
 214 178 214 178 252.5 210 c 128,-1,20
 291 242 291 242 308.5 272.5 c 128,-1,21
 326 303 326 303 326 333 c 0,22,23
 326 370 326 370 298.5 394 c 128,-1,24
 271 418 271 418 227 418 c 0,25,26
 195 418 195 418 160 395 c 128,-1,27
 125 372 125 372 103 337 c 1,28,29
 67 342 67 342 67 368 c 0,30,31
 67 403 67 403 121 439 c 128,-1,32
 175 475 175 475 241 475 c 0,33,34
 313 475 313 475 356 440 c 128,-1,35
 399 405 399 405 399 350 c 0,36,37
 399 281 399 281 331 203 c 128,-1,38
 263 125 263 125 126 61 c 1,0,1
EndSplineSet
EndChar

StartChar: three
Encoding: 51 51 22
Width: 426
GlyphClass: 2
Flags: W
LayerCount: 2
Fore
SplineSet
95 207 m 1,0,1
 188 207 188 207 234.5 242 c 128,-1,2
 281 277 281 277 281 325 c 0,3,4
 281 363 281 363 253.5 391.5 c 128,-1,5
 226 420 226 420 182 420 c 0,6,7
 147 420 147 420 113.5 399 c 128,-1,8
 80 378 80 378 60 339 c 1,9,10
 41 339 41 339 29 349 c 128,-1,11
 17 359 17 359 17 372 c 0,12,13
 17 406 17 406 68.5 440.5 c 128,-1,14
 120 475 120 475 186 475 c 0,15,16
 263 475 263 475 306.5 432.5 c 128,-1,17
 350 390 350 390 350 332 c 0,18,19
 350 292 350 292 325.5 256.5 c 128,-1,20
 301 221 301 221 254 202 c 1,21,22
 308 185 308 185 338.5 141.5 c 128,-1,23
 369 98 369 98 369 43 c 0,24,25
 369 -46 369 -46 303 -102.5 c 128,-1,26
 237 -159 237 -159 123 -159 c 0,27,28
 73 -159 73 -159 46.5 -144.5 c 128,-1,29
 20 -130 20 -130 20 -108 c 0,30,31
 20 -79 20 -79 53 -71 c 1,32,33
 83 -101 83 -101 136 -101 c 0,34,35
 212 -101 212 -101 255 -64.5 c 128,-1,36
 298 -28 298 -28 298 29 c 0,37,38
 298 89 298 89 253 123.5 c 128,-1,39
 208 158 208 158 130 158 c 0,40,41
 111 158 111 158 102.5 164 c 128,-1,42
 94 170 94 170 94 193 c 1,43,-1
 95 207 l 1,0,1
EndSplineSet
EndChar

StartChar: four
Encoding: 52 52 23
Width: 500
GlyphClass: 2
Flags: W
LayerCount: 2
Fore
SplineSet
77 114 m 1,0,1
 130 111 130 111 184 111 c 0,2,3
 244 111 244 111 298 114 c 1,4,5
 298 238 298 238 301 395 c 1,6,7
 203 297 203 297 77 114 c 1,0,1
296 462 m 1,8,9
 309 474 309 474 346 474 c 0,10,11
 353 474 353 474 371 472 c 1,12,13
 371 469 371 469 368.5 432.5 c 128,-1,14
 366 396 366 396 364 331.5 c 128,-1,15
 362 267 362 267 362 197 c 2,16,-1
 362 117 l 1,17,18
 436 123 436 123 460 134 c 1,19,20
 468 116 468 116 468 98 c 0,21,22
 468 69 468 69 448 62 c 0,23,24
 425 54 425 54 363 53 c 1,25,26
 363 -91 363 -91 382 -151 c 1,27,28
 364 -159 364 -159 345 -159 c 0,29,30
 316 -159 316 -159 306 -146 c 128,-1,31
 296 -133 296 -133 296 -102 c 0,32,33
 296 -60 296 -60 298 52 c 1,34,35
 94 52 94 52 39 59 c 0,36,37
 17 62 17 62 17 100 c 0,38,39
 17 111 17 111 19 125 c 1,40,41
 61 192 61 192 157 309.5 c 128,-1,42
 253 427 253 427 296 462 c 1,8,9
EndSplineSet
EndChar

StartChar: five
Encoding: 53 53 24
Width: 447
GlyphClass: 2
Flags: W
LayerCount: 2
Fore
SplineSet
311 395 m 128,-1,1
 237 395 237 395 132 401 c 1,2,-1
 118 240 l 1,3,4
 149 245 149 245 198 245 c 0,5,6
 293 245 293 245 347 197 c 128,-1,7
 401 149 401 149 401 60 c 0,8,9
 401 -38 401 -38 334.5 -98.5 c 128,-1,10
 268 -159 268 -159 150 -159 c 0,11,12
 94 -159 94 -159 63.5 -144.5 c 128,-1,13
 33 -130 33 -130 33 -108 c 0,14,15
 33 -79 33 -79 66 -71 c 1,16,17
 98 -101 98 -101 155 -101 c 0,18,19
 237 -101 237 -101 283.5 -60 c 128,-1,20
 330 -19 330 -19 330 46 c 0,21,22
 330 108 330 108 288.5 150 c 128,-1,23
 247 192 247 192 162 192 c 0,24,25
 110 192 110 192 73 187 c 1,26,27
 63 197 63 197 63 231 c 0,28,29
 63 245 63 245 76 467 c 1,30,31
 104 465 104 465 268 465 c 0,32,33
 336 465 336 465 375 473 c 1,34,35
 385 458 385 458 385 439 c 0,36,0
 385 395 385 395 311 395 c 128,-1,1
EndSplineSet
EndChar

StartChar: six
Encoding: 54 54 25
Width: 488
GlyphClass: 2
Flags: W
LayerCount: 2
Fore
SplineSet
243 -10 m 0,0,1
 141 -10 141 -10 93 59 c 128,-1,2
 45 128 45 128 45 236 c 0,3,4
 45 330 45 330 80.5 417 c 128,-1,5
 116 504 116 504 191 564 c 128,-1,6
 266 624 266 624 364 624 c 0,7,8
 405 624 405 624 405 591 c 0,9,10
 405 581 405 581 401 563 c 1,11,12
 373 567 373 567 360 567 c 0,13,14
 281 567 281 567 224 518 c 128,-1,15
 167 469 167 469 141.5 399 c 128,-1,16
 116 329 116 329 116 252 c 0,17,18
 116 46 116 46 250 46 c 0,19,20
 308 46 308 46 339 91 c 128,-1,21
 370 136 370 136 370 199 c 0,22,23
 370 271 370 271 338.5 308.5 c 128,-1,24
 307 346 307 346 257 346 c 0,25,26
 229 346 229 346 202 334 c 1,27,28
 192 350 192 350 192 363 c 0,29,30
 192 378 192 378 208 387 c 0,31,32
 236 401 236 401 274 401 c 0,33,34
 361 401 361 401 402 348.5 c 128,-1,35
 443 296 443 296 443 216 c 0,36,37
 443 127 443 127 390 58.5 c 128,-1,38
 337 -10 337 -10 243 -10 c 0,0,1
EndSplineSet
EndChar

StartChar: seven
Encoding: 55 55 26
Width: 422
GlyphClass: 2
Flags: W
LayerCount: 2
Fore
SplineSet
325 401 m 1,0,1
 170 396 170 396 70 396 c 0,2,3
 -7 396 -7 396 -7 440 c 0,4,5
 -7 454 -7 454 3 474 c 1,6,7
 52 466 52 466 115 466 c 0,8,9
 340 466 340 466 392 468 c 1,10,11
 400 452 400 452 400 431 c 0,12,13
 400 411 400 411 394 393 c 0,14,15
 377 339 377 339 301.5 186.5 c 128,-1,16
 226 34 226 34 158 -90 c 0,17,18
 139 -125 139 -125 123.5 -142 c 128,-1,19
 108 -159 108 -159 90 -159 c 0,20,21
 58 -159 58 -159 26 -120 c 1,22,23
 111 -33 111 -33 195.5 122.5 c 128,-1,24
 280 278 280 278 325 401 c 1,0,1
EndSplineSet
EndChar

StartChar: eight
Encoding: 56 56 27
Width: 504
GlyphClass: 2
Flags: W
LayerCount: 2
Fore
SplineSet
361 494 m 0,0,1
 361 526 361 526 328.5 547 c 128,-1,2
 296 568 296 568 251 568 c 128,-1,3
 206 568 206 568 173.5 547 c 128,-1,4
 141 526 141 526 141 494 c 0,5,6
 141 419 141 419 272 368 c 1,7,8
 320 393 320 393 340.5 422 c 128,-1,9
 361 451 361 451 361 494 c 0,0,1
251 46 m 128,-1,11
 312 46 312 46 348.5 81 c 128,-1,12
 385 116 385 116 385 162 c 0,13,14
 385 216 385 216 348.5 248 c 128,-1,15
 312 280 312 280 236 312 c 1,16,17
 177 287 177 287 147 252.5 c 128,-1,18
 117 218 117 218 117 162 c 0,19,20
 117 116 117 116 153.5 81 c 128,-1,10
 190 46 190 46 251 46 c 128,-1,11
252 -10 m 128,-1,22
 152 -10 152 -10 98.5 39.5 c 128,-1,23
 45 89 45 89 45 158 c 0,24,25
 45 228 45 228 80.5 267.5 c 128,-1,26
 116 307 116 307 184 337 c 1,27,28
 127 365 127 365 98.5 400.5 c 128,-1,29
 70 436 70 436 70 493 c 0,30,31
 70 551 70 551 123 587.5 c 128,-1,32
 176 624 176 624 251 624 c 0,33,34
 337 624 337 624 385 584 c 128,-1,35
 433 544 433 544 433 488 c 0,36,37
 433 445 433 445 404.5 406.5 c 128,-1,38
 376 368 376 368 321 343 c 1,39,40
 385 312 385 312 422 269.5 c 128,-1,41
 459 227 459 227 459 158 c 128,-1,42
 459 89 459 89 405.5 39.5 c 128,-1,21
 352 -10 352 -10 252 -10 c 128,-1,22
EndSplineSet
EndChar

StartChar: nine
Encoding: 57 57 28
Width: 488
GlyphClass: 2
Flags: W
LayerCount: 2
Fore
SplineSet
245 475 m 0,0,1
 347 475 347 475 395 406 c 128,-1,2
 443 337 443 337 443 229 c 0,3,4
 443 135 443 135 407.5 48 c 128,-1,5
 372 -39 372 -39 297 -99 c 128,-1,6
 222 -159 222 -159 124 -159 c 0,7,8
 83 -159 83 -159 83 -126 c 0,9,10
 83 -116 83 -116 87 -98 c 1,11,12
 115 -102 115 -102 128 -102 c 0,13,14
 207 -102 207 -102 264 -53 c 128,-1,15
 321 -4 321 -4 346.5 66 c 128,-1,16
 372 136 372 136 372 213 c 0,17,18
 372 419 372 419 238 419 c 0,19,20
 180 419 180 419 149 374 c 128,-1,21
 118 329 118 329 118 266 c 0,22,23
 118 194 118 194 149.5 156.5 c 128,-1,24
 181 119 181 119 231 119 c 0,25,26
 259 119 259 119 286 131 c 1,27,28
 296 115 296 115 296 102 c 0,29,30
 296 87 296 87 280 78 c 0,31,32
 252 64 252 64 214 64 c 0,33,34
 127 64 127 64 86 116.5 c 128,-1,35
 45 169 45 169 45 249 c 0,36,37
 45 338 45 338 98 406.5 c 128,-1,38
 151 475 151 475 245 475 c 0,0,1
EndSplineSet
EndChar

StartChar: colon
Encoding: 58 58 29
Width: 231
GlyphClass: 2
Flags: W
LayerCount: 2
Fore
SplineSet
111 -10 m 128,-1,1
 86 -10 86 -10 68 8 c 128,-1,2
 50 26 50 26 50 53 c 128,-1,3
 50 80 50 80 68 98.5 c 128,-1,4
 86 117 86 117 111 117 c 128,-1,5
 136 117 136 117 153.5 98.5 c 128,-1,6
 171 80 171 80 171 53 c 128,-1,7
 171 26 171 26 153.5 8 c 128,-1,0
 136 -10 136 -10 111 -10 c 128,-1,1
111 351 m 128,-1,9
 86 351 86 351 68 369 c 128,-1,10
 50 387 50 387 50 414 c 128,-1,11
 50 441 50 441 68 459.5 c 128,-1,12
 86 478 86 478 111 478 c 128,-1,13
 136 478 136 478 153.5 459.5 c 128,-1,14
 171 441 171 441 171 414 c 128,-1,15
 171 387 171 387 153.5 369 c 128,-1,8
 136 351 136 351 111 351 c 128,-1,9
EndSplineSet
EndChar

StartChar: semicolon
Encoding: 59 59 30
Width: 246
GlyphClass: 2
Flags: W
LayerCount: 2
Fore
SplineSet
108 351 m 128,-1,1
 83 351 83 351 65 369 c 128,-1,2
 47 387 47 387 47 414 c 128,-1,3
 47 441 47 441 65 459.5 c 128,-1,4
 83 478 83 478 108 478 c 128,-1,5
 133 478 133 478 150.5 459.5 c 128,-1,6
 168 441 168 441 168 414 c 128,-1,7
 168 387 168 387 150.5 369 c 128,-1,0
 133 351 133 351 108 351 c 128,-1,1
107 -22 m 0,8,9
 107 27 107 27 58 37 c 1,10,11
 48 53 48 53 48 70 c 0,12,13
 48 91 48 91 65 105.5 c 128,-1,14
 82 120 82 120 106 120 c 0,15,16
 132 120 132 120 150.5 97 c 128,-1,17
 169 74 169 74 169 26 c 0,18,19
 169 -37 169 -37 134.5 -90 c 128,-1,20
 100 -143 100 -143 53 -143 c 0,21,22
 27 -143 27 -143 27 -113 c 0,23,24
 27 -105 27 -105 28 -101 c 1,25,-1
 33 -101 l 2,26,27
 65 -101 65 -101 86 -77 c 128,-1,28
 107 -53 107 -53 107 -22 c 0,8,9
EndSplineSet
EndChar

StartChar: less
Encoding: 60 60 31
Width: 535
GlyphClass: 2
Flags: W
LayerCount: 2
Fore
SplineSet
182 251 m 1,0,1
 219 214 219 214 399 52 c 1,2,3
 381 18 381 18 350 18 c 0,4,5
 336 18 336 18 325 29 c 2,6,-1
 106 251 l 1,7,-1
 325 461 l 1,8,9
 338 472 338 472 350 472 c 0,10,11
 365 472 365 472 378.5 461.5 c 128,-1,12
 392 451 392 451 399 438 c 1,13,14
 382 423 382 423 329 377.5 c 128,-1,15
 276 332 276 332 230.5 293 c 128,-1,16
 185 254 185 254 182 251 c 1,0,1
EndSplineSet
EndChar

StartChar: equal
Encoding: 61 61 32
Width: 535
GlyphClass: 2
Flags: W
LayerCount: 2
Fore
SplineSet
466 158 m 0,0,1
 466 140 466 140 456 128 c 128,-1,2
 446 116 446 116 430 116 c 128,-1,3
 414 116 414 116 358.5 120 c 128,-1,4
 303 124 303 124 274 124 c 0,5,6
 160 124 160 124 72 116 c 1,7,8
 69 131 69 131 69 146 c 0,9,10
 69 162 69 162 78 175 c 128,-1,11
 87 188 87 188 105 188 c 0,12,13
 108 188 108 188 168 184.5 c 128,-1,14
 228 181 228 181 272 181 c 0,15,16
 402 181 402 181 463 188 c 1,17,18
 466 179 466 179 466 158 c 0,0,1
466 358 m 0,19,20
 466 340 466 340 456 328 c 128,-1,21
 446 316 446 316 430 316 c 128,-1,22
 414 316 414 316 358.5 320 c 128,-1,23
 303 324 303 324 274 324 c 0,24,25
 160 324 160 324 72 316 c 1,26,27
 69 331 69 331 69 346 c 0,28,29
 69 362 69 362 78 375 c 128,-1,30
 87 388 87 388 105 388 c 0,31,32
 108 388 108 388 168 384.5 c 128,-1,33
 228 381 228 381 272 381 c 0,34,35
 402 381 402 381 463 388 c 1,36,37
 466 379 466 379 466 358 c 0,19,20
EndSplineSet
EndChar

StartChar: greater
Encoding: 62 62 33
Width: 535
GlyphClass: 2
Flags: W
LayerCount: 2
Fore
SplineSet
337 251 m 1,0,1
 334 254 334 254 288.5 293 c 128,-1,2
 243 332 243 332 190 377.5 c 128,-1,3
 137 423 137 423 120 438 c 1,4,5
 127 451 127 451 140.5 461.5 c 128,-1,6
 154 472 154 472 169 472 c 0,7,8
 181 472 181 472 194 461 c 1,9,-1
 413 251 l 1,10,-1
 194 29 l 2,11,12
 183 18 183 18 169 18 c 0,13,14
 138 18 138 18 120 52 c 1,15,16
 300 214 300 214 337 251 c 1,0,1
EndSplineSet
EndChar

StartChar: question
Encoding: 63 63 34
Width: 325
GlyphClass: 2
Flags: W
LayerCount: 2
Fore
SplineSet
150 -9 m 128,-1,1
 125 -9 125 -9 107 9 c 128,-1,2
 89 27 89 27 89 54 c 128,-1,3
 89 81 89 81 107 99.5 c 128,-1,4
 125 118 125 118 150 118 c 128,-1,5
 175 118 175 118 192.5 99.5 c 128,-1,6
 210 81 210 81 210 54 c 128,-1,7
 210 27 210 27 192.5 9 c 128,-1,0
 175 -9 175 -9 150 -9 c 128,-1,1
188 200 m 1,8,9
 162 190 162 190 149 190 c 0,10,11
 104 190 104 190 104 244 c 0,12,13
 104 273 104 273 124 302 c 128,-1,14
 144 331 144 331 167.5 350.5 c 128,-1,15
 191 370 191 370 211 398 c 128,-1,16
 231 426 231 426 231 454 c 0,17,18
 231 478 231 478 212.5 491.5 c 128,-1,19
 194 505 194 505 167 505 c 0,20,21
 137 505 137 505 109.5 486.5 c 128,-1,22
 82 468 82 468 75 439 c 1,23,24
 25 446 25 446 25 482 c 128,-1,25
 25 518 25 518 63.5 539.5 c 128,-1,26
 102 561 102 561 155 561 c 0,27,28
 213 561 213 561 259 536 c 128,-1,29
 305 511 305 511 305 458 c 0,30,31
 305 425 305 425 292 398.5 c 128,-1,32
 279 372 279 372 260 354.5 c 128,-1,33
 241 337 241 337 222 322 c 128,-1,34
 203 307 203 307 190 288.5 c 128,-1,35
 177 270 177 270 177 249 c 0,36,37
 177 229 177 229 188 200 c 1,8,9
EndSplineSet
EndChar

StartChar: at
Encoding: 64 64 35
Width: 861
GlyphClass: 2
Flags: W
LayerCount: 2
Fore
SplineSet
350 95 m 0,0,1
 308 95 308 95 280.5 127.5 c 128,-1,2
 253 160 253 160 253 221 c 0,3,4
 253 310 253 310 299.5 373.5 c 128,-1,5
 346 437 346 437 414 437 c 0,6,7
 493 437 493 437 547 397 c 1,8,9
 515 275 515 275 515 206 c 0,10,11
 515 158 515 158 549 158 c 0,12,13
 580 158 580 158 609.5 203 c 128,-1,14
 639 248 639 248 639 321 c 0,15,16
 639 411 639 411 591.5 461 c 128,-1,17
 544 511 544 511 447 511 c 0,18,19
 330 511 330 511 254 416.5 c 128,-1,20
 178 322 178 322 178 210 c 0,21,22
 178 125 178 125 227 69 c 128,-1,23
 276 13 276 13 371 13 c 0,24,25
 417 13 417 13 454.5 30 c 128,-1,26
 492 47 492 47 506 76 c 1,27,28
 553 60 553 60 553 34 c 0,29,30
 553 0 553 0 500 -24 c 128,-1,31
 447 -48 447 -48 375 -48 c 0,32,33
 245 -48 245 -48 177.5 25 c 128,-1,34
 110 98 110 98 110 206 c 0,35,36
 110 271 110 271 134.5 334.5 c 128,-1,37
 159 398 159 398 202.5 450 c 128,-1,38
 246 502 246 502 314 534.5 c 128,-1,39
 382 567 382 567 462 567 c 0,40,41
 575 567 575 567 642.5 504.5 c 128,-1,42
 710 442 710 442 710 345 c 0,43,44
 710 249 710 249 652 179 c 128,-1,45
 594 109 594 109 534 109 c 0,46,47
 476 109 476 109 460 176 c 1,48,49
 414 95 414 95 350 95 c 0,0,1
455 228 m 1,50,51
 458 248 458 248 463 296.5 c 128,-1,52
 468 345 468 345 471 361 c 1,53,54
 440 386 440 386 409 386 c 0,55,56
 368 386 368 386 341.5 345.5 c 128,-1,57
 315 305 315 305 315 239 c 0,58,59
 315 200 315 200 328 174.5 c 128,-1,60
 341 149 341 149 365 149 c 0,61,62
 387 149 387 149 411.5 169 c 128,-1,63
 436 189 436 189 455 228 c 1,50,51
EndSplineSet
EndChar

StartChar: A
Encoding: 65 65 36
Width: 551
GlyphClass: 2
Flags: W
LayerCount: 2
Fore
SplineSet
388 268 m 1,0,1
 354 357 354 357 285 569 c 1,2,3
 276 546 276 546 239 441 c 128,-1,4
 202 336 202 336 174 268 c 1,5,6
 252 266 252 266 296 266 c 0,7,8
 358 266 358 266 388 268 c 1,0,1
275 207 m 0,9,10
 249 207 249 207 149 209 c 1,11,12
 82 40 82 40 65 -21 c 1,13,14
 32 -14 32 -14 18.5 -5 c 128,-1,15
 5 4 5 4 5 19 c 0,16,17
 5 31 5 31 47.5 131 c 128,-1,18
 90 231 90 231 151 385.5 c 128,-1,19
 212 540 212 540 247 660 c 1,20,21
 266 663 266 663 289 663 c 0,22,23
 314 663 314 663 324 654.5 c 128,-1,24
 334 646 334 646 345 610 c 0,25,26
 408 407 408 407 457 280 c 0,27,28
 535 76 535 76 569 10 c 1,29,30
 541 -10 541 -10 521 -10 c 0,31,32
 489 -10 489 -10 478 17 c 0,33,34
 459 66 459 66 409 209 c 1,35,36
 297 207 297 207 275 207 c 0,9,10
EndSplineSet
EndChar

StartChar: B
Encoding: 66 66 37
Width: 547
GlyphClass: 2
Flags: W
LayerCount: 2
Fore
SplineSet
224 612 m 0,0,1
 200 612 200 612 156 608 c 1,2,3
 160 524 160 524 160 383 c 1,4,5
 192 381 192 381 215 381 c 0,6,7
 401 381 401 381 401 495 c 0,8,9
 401 612 401 612 224 612 c 0,0,1
272 51 m 0,10,11
 337 51 337 51 381 87.5 c 128,-1,12
 425 124 425 124 425 187 c 0,13,14
 425 257 425 257 375.5 294 c 128,-1,15
 326 331 326 331 254 331 c 0,16,17
 189 331 189 331 159 326 c 1,18,19
 159 246 159 246 146 87 c 1,20,21
 165 72 165 72 201.5 61.5 c 128,-1,22
 238 51 238 51 272 51 c 0,10,11
69 53 m 1,23,24
 85 167 85 167 85 387 c 0,25,26
 85 573 85 573 72 661 c 1,27,28
 146 673 146 673 231 673 c 0,29,30
 340 673 340 673 409 633 c 128,-1,31
 478 593 478 593 478 501 c 0,32,33
 478 401 478 401 391 362 c 1,34,35
 502 315 502 315 502 191 c 0,36,37
 502 96 502 96 440.5 43 c 128,-1,38
 379 -10 379 -10 290 -10 c 0,39,40
 145 -10 145 -10 69 53 c 1,23,24
EndSplineSet
EndChar

StartChar: C
Encoding: 67 67 38
Width: 602
GlyphClass: 2
Flags: W
LayerCount: 2
Fore
SplineSet
514 134 m 1,0,1
 558 116 558 116 558 85 c 0,2,3
 558 49 558 49 501 19.5 c 128,-1,4
 444 -10 444 -10 360 -10 c 0,5,6
 219 -10 219 -10 134 84.5 c 128,-1,7
 49 179 49 179 49 332 c 0,8,9
 49 492 49 492 134 582.5 c 128,-1,10
 219 673 219 673 364 673 c 0,11,12
 442 673 442 673 495 641.5 c 128,-1,13
 548 610 548 610 548 564 c 0,14,15
 548 523 548 523 491 514 c 1,16,17
 472 563 472 563 431 587.5 c 128,-1,18
 390 612 390 612 344 612 c 0,19,20
 250 612 250 612 190.5 537.5 c 128,-1,21
 131 463 131 463 131 352 c 0,22,23
 131 224 131 224 191 137.5 c 128,-1,24
 251 51 251 51 359 51 c 0,25,26
 407 51 407 51 448.5 72 c 128,-1,27
 490 93 490 93 514 134 c 1,0,1
EndSplineSet
EndChar

StartChar: D
Encoding: 68 68 39
Width: 635
GlyphClass: 2
Flags: W
LayerCount: 2
Fore
SplineSet
66 53 m 1,0,1
 80 144 80 144 82 389 c 1,2,3
 82 564 82 564 69 661 c 1,4,5
 129 673 129 673 224 673 c 0,6,7
 302 673 302 673 364 656 c 128,-1,8
 426 639 426 639 477.5 601.5 c 128,-1,9
 529 564 529 564 557.5 496 c 128,-1,10
 586 428 586 428 586 333 c 0,11,12
 586 183 586 183 506 86.5 c 128,-1,13
 426 -10 426 -10 278 -10 c 0,14,15
 142 -10 142 -10 66 53 c 1,0,1
153 608 m 1,16,17
 157 539 157 539 157 445 c 0,18,19
 157 223 157 223 143 87 c 1,20,21
 197 51 197 51 276 51 c 0,22,23
 339 51 339 51 385 75 c 128,-1,24
 431 99 431 99 455.5 139.5 c 128,-1,25
 480 180 480 180 491 223 c 128,-1,26
 502 266 502 266 502 313 c 0,27,28
 502 462 502 462 428 537 c 128,-1,29
 354 612 354 612 217 612 c 0,30,31
 195 612 195 612 153 608 c 1,16,17
EndSplineSet
EndChar

StartChar: E
Encoding: 69 69 40
Width: 486
GlyphClass: 2
Flags: W
LayerCount: 2
Fore
SplineSet
151 599 m 1,0,1
 155 555 155 555 155 387 c 1,2,-1
 234 387 l 2,3,4
 318 387 318 387 354 391 c 1,5,6
 358 383 358 383 358 365 c 0,7,8
 358 342 358 342 347.5 334 c 128,-1,9
 337 326 337 326 314 325 c 0,10,11
 288 324 288 324 243 324 c 2,12,-1
 155 324 l 1,13,14
 155 106 155 106 162 62 c 1,15,16
 206 60 206 60 233 60 c 0,17,18
 401 60 401 60 448 83 c 1,19,20
 456 63 456 63 456 39 c 0,21,22
 456 21 456 21 447 13 c 0,23,24
 429 -2 429 -2 285 -2 c 0,25,26
 157 -2 157 -2 127 0 c 0,27,28
 98 1 98 1 88 14 c 128,-1,29
 78 27 78 27 78 57 c 0,30,31
 78 73 78 73 79 131 c 128,-1,32
 80 189 80 189 80 224 c 2,33,-1
 80 424 l 2,34,35
 80 567 80 567 66 657 c 1,36,37
 173 666 173 666 284 666 c 0,38,39
 428 666 428 666 446 651 c 0,40,41
 455 643 455 643 455 625 c 0,42,43
 455 601 455 601 447 581 c 1,44,45
 390 602 390 602 261 602 c 0,46,47
 208 602 208 602 151 599 c 1,0,1
EndSplineSet
EndChar

StartChar: F
Encoding: 70 70 41
Width: 455
GlyphClass: 2
Flags: W
LayerCount: 2
Fore
SplineSet
155 314 m 1,0,-1
 155 203 l 2,1,2
 155 68 155 68 174 5 c 1,3,4
 156 -3 156 -3 127 -3 c 128,-1,5
 98 -3 98 -3 88 10 c 128,-1,6
 78 23 78 23 78 54 c 0,7,8
 78 70 78 70 79 133 c 128,-1,9
 80 196 80 196 80 231 c 2,10,-1
 80 424 l 2,11,12
 80 567 80 567 66 657 c 1,13,14
 173 666 173 666 284 666 c 0,15,16
 428 666 428 666 446 651 c 0,17,18
 455 643 455 643 455 625 c 0,19,20
 455 601 455 601 447 581 c 1,21,22
 390 602 390 602 261 602 c 0,23,24
 208 602 208 602 151 599 c 1,25,26
 155 555 155 555 155 480 c 2,27,-1
 155 377 l 1,28,-1
 234 377 l 2,29,30
 317 377 317 377 354 381 c 1,31,32
 358 373 358 373 358 355 c 0,33,34
 358 326 358 326 342 320 c 128,-1,35
 326 314 326 314 268 314 c 2,36,-1
 155 314 l 1,0,-1
EndSplineSet
EndChar

StartChar: G
Encoding: 71 71 42
Width: 615
GlyphClass: 2
Flags: W
LayerCount: 2
Fore
SplineSet
558 85 m 0,0,1
 558 49 558 49 501 19.5 c 128,-1,2
 444 -10 444 -10 360 -10 c 0,3,4
 219 -10 219 -10 134 84.5 c 128,-1,5
 49 179 49 179 49 332 c 0,6,7
 49 492 49 492 134 582.5 c 128,-1,8
 219 673 219 673 364 673 c 0,9,10
 442 673 442 673 495 641.5 c 128,-1,11
 548 610 548 610 548 564 c 0,12,13
 548 523 548 523 491 514 c 1,14,15
 472 563 472 563 431 587.5 c 128,-1,16
 390 612 390 612 344 612 c 0,17,18
 250 612 250 612 190.5 537.5 c 128,-1,19
 131 463 131 463 131 352 c 0,20,21
 131 224 131 224 191 137.5 c 128,-1,22
 251 51 251 51 358 51 c 0,23,24
 438 51 438 51 487 99 c 1,25,26
 485 224 485 224 480 301 c 1,27,28
 497 304 497 304 516 304 c 0,29,30
 565 304 565 304 565 266 c 1,31,-1
 562 202 l 2,32,33
 558 138 558 138 558 85 c 0,0,1
EndSplineSet
EndChar

StartChar: H
Encoding: 72 72 43
Width: 627
GlyphClass: 2
Flags: W
LayerCount: 2
Fore
SplineSet
73 231 m 2,0,-1
 73 431 l 2,1,2
 73 572 73 572 66 663 c 1,3,4
 83 666 83 666 107 666 c 0,5,6
 156 666 156 666 156 628 c 0,7,8
 156 623 156 623 154 587.5 c 128,-1,9
 152 552 152 552 150 497.5 c 128,-1,10
 148 443 148 443 148 391 c 1,11,12
 196 389 196 389 310 389 c 0,13,14
 419 389 419 389 467 391 c 1,15,-1
 467 442 l 1,16,17
 466 586 466 586 460 663 c 1,18,19
 477 666 477 666 501 666 c 0,20,21
 550 666 550 666 550 628 c 0,22,23
 550 622 550 622 548 587.5 c 128,-1,24
 546 553 546 553 544 501.5 c 128,-1,25
 542 450 542 450 542 404 c 2,26,-1
 542 203 l 2,27,28
 542 68 542 68 561 5 c 1,29,30
 543 -3 543 -3 514 -3 c 128,-1,31
 485 -3 485 -3 475 10 c 128,-1,32
 465 23 465 23 465 54 c 0,33,34
 465 70 465 70 466 133 c 128,-1,35
 467 196 467 196 467 231 c 2,36,-1
 467 332 l 1,37,38
 416 330 416 330 310 330 c 0,39,40
 196 330 196 330 148 332 c 1,41,-1
 148 203 l 2,42,43
 148 68 148 68 167 5 c 1,44,45
 149 -3 149 -3 120 -3 c 128,-1,46
 91 -3 91 -3 81 10 c 128,-1,47
 71 23 71 23 71 54 c 0,48,49
 71 70 71 70 72 133 c 128,-1,50
 73 196 73 196 73 231 c 2,0,-1
EndSplineSet
EndChar

StartChar: I
Encoding: 73 73 44
Width: 221
GlyphClass: 2
Flags: W
LayerCount: 2
Fore
SplineSet
73 231 m 2,0,-1
 73 431 l 2,1,2
 73 572 73 572 66 663 c 1,3,4
 83 666 83 666 107 666 c 0,5,6
 156 666 156 666 156 628 c 0,7,8
 156 622 156 622 154 587.5 c 128,-1,9
 152 553 152 553 150 501.5 c 128,-1,10
 148 450 148 450 148 404 c 2,11,-1
 148 203 l 2,12,13
 148 68 148 68 167 5 c 1,14,15
 149 -3 149 -3 120 -3 c 128,-1,16
 91 -3 91 -3 81 10 c 128,-1,17
 71 23 71 23 71 54 c 0,18,19
 71 70 71 70 72 133 c 128,-1,20
 73 196 73 196 73 231 c 2,0,-1
EndSplineSet
EndChar

StartChar: J
Encoding: 74 74 45
Width: 222
GlyphClass: 2
Flags: W
LayerCount: 2
Fore
SplineSet
3 -119 m 0,0,1
 -34 -119 -34 -119 -38 -62 c 1,2,3
 -5 -55 -5 -55 16 -43.5 c 128,-1,4
 37 -32 37 -32 49 -19.5 c 128,-1,5
 61 -7 61 -7 66.5 20 c 128,-1,6
 72 47 72 47 73 69 c 128,-1,7
 74 91 74 91 74 136 c 0,8,9
 74 157 74 157 73.5 267.5 c 128,-1,10
 73 378 73 378 73 431 c 0,11,12
 73 572 73 572 66 663 c 1,13,14
 83 666 83 666 107 666 c 0,15,16
 156 666 156 666 156 628 c 0,17,18
 156 623 156 623 154 591 c 128,-1,19
 152 559 152 559 150 511.5 c 128,-1,20
 148 464 148 464 148 421 c 2,21,-1
 148 111 l 2,22,23
 148 56 148 56 136 13 c 128,-1,24
 124 -30 124 -30 106.5 -54 c 128,-1,25
 89 -78 89 -78 67.5 -93.5 c 128,-1,26
 46 -109 46 -109 30.5 -114 c 128,-1,27
 15 -119 15 -119 3 -119 c 0,0,1
EndSplineSet
EndChar

StartChar: K
Encoding: 75 75 46
Width: 515
GlyphClass: 2
Flags: W
LayerCount: 2
Fore
SplineSet
100 666 m 0,0,1
 156 666 156 666 156 628 c 0,2,3
 156 623 156 623 154 585 c 128,-1,4
 152 547 152 547 150 488 c 128,-1,5
 148 429 148 429 148 374 c 1,6,7
 234 443 234 443 316 526.5 c 128,-1,8
 398 610 398 610 416 664 c 1,9,10
 468 655 468 655 468 626 c 128,-1,11
 468 597 468 597 398 523 c 128,-1,12
 328 449 328 449 234 370 c 1,13,14
 345 185 345 185 417 97 c 0,15,16
 429 82 429 82 436 75.5 c 128,-1,17
 443 69 443 69 457 62 c 128,-1,18
 471 55 471 55 488 55 c 0,19,20
 500 55 500 55 511 58 c 1,21,22
 515 44 515 44 515 33 c 0,23,24
 515 12 515 12 498 1 c 128,-1,25
 481 -10 481 -10 456 -10 c 0,26,27
 413 -10 413 -10 366 41 c 0,28,29
 344 65 344 65 315 104.5 c 128,-1,30
 286 144 286 144 266 174 c 128,-1,31
 246 204 246 204 214 254 c 128,-1,32
 182 304 182 304 172 319 c 1,33,34
 155 306 155 306 148 301 c 1,35,-1
 148 203 l 2,36,37
 148 68 148 68 167 5 c 1,38,39
 151 -3 151 -3 119 -3 c 0,40,41
 91 -3 91 -3 81 10.5 c 128,-1,42
 71 24 71 24 71 54 c 0,43,44
 71 70 71 70 72 133 c 128,-1,45
 73 196 73 196 73 231 c 2,46,-1
 73 431 l 2,47,48
 73 572 73 572 66 663 c 1,49,50
 86 666 86 666 100 666 c 0,0,1
EndSplineSet
EndChar

StartChar: L
Encoding: 76 76 47
Width: 429
GlyphClass: 2
Flags: W
LayerCount: 2
Fore
SplineSet
73 224 m 2,0,-1
 73 431 l 2,1,2
 73 572 73 572 66 663 c 1,3,4
 83 666 83 666 107 666 c 0,5,6
 156 666 156 666 156 628 c 0,7,8
 156 622 156 622 154 587.5 c 128,-1,9
 152 553 152 553 150 501.5 c 128,-1,10
 148 450 148 450 148 404 c 2,11,-1
 148 314 l 2,12,13
 148 106 148 106 155 62 c 1,14,15
 197 60 197 60 221 60 c 0,16,17
 377 60 377 60 422 83 c 1,18,19
 429 62 429 62 429 39 c 0,20,21
 429 21 429 21 420 13 c 0,22,23
 403 -2 403 -2 267 -2 c 0,24,25
 147 -2 147 -2 117 0 c 0,26,27
 90 1 90 1 80.5 14 c 128,-1,28
 71 27 71 27 71 57 c 0,29,30
 71 73 71 73 72 131 c 128,-1,31
 73 189 73 189 73 224 c 2,0,-1
EndSplineSet
EndChar

StartChar: M
Encoding: 77 77 48
Width: 797
GlyphClass: 2
Flags: W
LayerCount: 2
Fore
SplineSet
712 436 m 2,0,-1
 712 203 l 2,1,2
 712 68 712 68 731 5 c 1,3,4
 713 -3 713 -3 684 -3 c 128,-1,5
 655 -3 655 -3 645 10 c 128,-1,6
 635 23 635 23 635 54 c 0,7,8
 635 61 635 61 635.5 124 c 128,-1,9
 636 187 636 187 636.5 303.5 c 128,-1,10
 637 420 637 420 637 558 c 1,11,12
 545 373 545 373 436 2 c 1,13,14
 424 -2 424 -2 409 -2 c 0,15,16
 370 -2 370 -2 359 24 c 0,17,18
 335 78 335 78 268.5 264.5 c 128,-1,19
 202 451 202 451 150 556 c 1,20,-1
 150 203 l 2,21,22
 150 68 150 68 169 5 c 1,23,24
 151 -3 151 -3 132 -3 c 0,25,26
 103 -3 103 -3 93 10 c 128,-1,27
 83 23 83 23 83 54 c 0,28,29
 83 70 83 70 84 133 c 128,-1,30
 85 196 85 196 85 231 c 2,31,-1
 85 483 l 2,32,33
 85 595 85 595 66 659 c 1,34,35
 98 667 98 667 124 667 c 0,36,37
 166 667 166 667 195 619 c 1,38,39
 234 551 234 551 274 453 c 128,-1,40
 314 355 314 355 336.5 287.5 c 128,-1,41
 359 220 359 220 400 92 c 1,42,43
 431 216 431 216 483.5 360 c 128,-1,44
 536 504 536 504 601 619 c 0,45,46
 628 667 628 667 674 667 c 0,47,48
 708 667 708 667 730 659 c 1,49,50
 712 599 712 599 712 436 c 2,0,-1
EndSplineSet
EndChar

StartChar: N
Encoding: 78 78 49
Width: 629
GlyphClass: 2
Flags: W
LayerCount: 2
Fore
SplineSet
551 1 m 1,0,1
 535 -3 535 -3 518 -3 c 0,2,3
 484 -3 484 -3 466 24 c 0,4,5
 425 87 425 87 324 265.5 c 128,-1,6
 223 444 223 444 151 552 c 1,7,8
 150 514 150 514 150 203 c 0,9,10
 150 68 150 68 169 5 c 1,11,12
 151 -3 151 -3 132 -3 c 0,13,14
 103 -3 103 -3 93 10 c 128,-1,15
 83 23 83 23 83 54 c 0,16,17
 83 70 83 70 84 133 c 128,-1,18
 85 196 85 196 85 231 c 2,19,-1
 85 431 l 2,20,21
 85 598 85 598 66 659 c 1,22,23
 85 667 85 667 113 667 c 0,24,25
 133 667 133 667 144.5 660 c 128,-1,26
 156 653 156 653 169 638 c 0,27,28
 219 581 219 581 313 425 c 128,-1,29
 407 269 407 269 485 119 c 1,30,31
 482 155 482 155 480.5 233 c 128,-1,32
 479 311 479 311 479 371 c 2,33,-1
 479 431 l 2,34,35
 479 572 479 572 472 663 c 1,36,37
 489 666 489 666 503 666 c 0,38,39
 552 666 552 666 552 628 c 0,40,41
 552 622 552 622 550 587.5 c 128,-1,42
 548 553 548 553 546 501.5 c 128,-1,43
 544 450 544 450 544 404 c 2,44,-1
 544 233 l 2,45,46
 544 92 544 92 551 1 c 1,0,1
EndSplineSet
EndChar

StartChar: O
Encoding: 79 79 50
Width: 712
GlyphClass: 2
Flags: W
LayerCount: 2
Fore
SplineSet
355 -10 m 0,0,1
 215 -10 215 -10 132 83 c 128,-1,2
 49 176 49 176 49 331 c 0,3,4
 49 488 49 488 132 580.5 c 128,-1,5
 215 673 215 673 355 673 c 0,6,7
 496 673 496 673 579.5 580.5 c 128,-1,8
 663 488 663 488 663 331 c 0,9,10
 663 176 663 176 579.5 83 c 128,-1,11
 496 -10 496 -10 355 -10 c 0,0,1
579 313 m 0,12,13
 579 369 579 369 566.5 420 c 128,-1,14
 554 471 554 471 529 515 c 128,-1,15
 504 559 504 559 459 585.5 c 128,-1,16
 414 612 414 612 356 612 c 0,17,18
 253 612 253 612 192 541.5 c 128,-1,19
 131 471 131 471 131 362 c 0,20,21
 131 303 131 303 143.5 250 c 128,-1,22
 156 197 156 197 181 151 c 128,-1,23
 206 105 206 105 250.5 78 c 128,-1,24
 295 51 295 51 354 51 c 0,25,26
 462 51 462 51 520.5 123.5 c 128,-1,27
 579 196 579 196 579 313 c 0,12,13
EndSplineSet
EndChar

StartChar: P
Encoding: 80 80 51
Width: 504
GlyphClass: 2
Flags: W
LayerCount: 2
Fore
SplineSet
254 304 m 0,0,1
 322 304 322 304 360.5 343.5 c 128,-1,2
 399 383 399 383 399 450 c 0,3,4
 399 542 399 542 356 577 c 128,-1,5
 313 612 313 612 222 612 c 0,6,7
 196 612 196 612 150 608 c 1,8,9
 154 550 154 550 154 404 c 2,10,-1
 154 329 l 1,11,12
 198 304 198 304 254 304 c 0,0,1
79 231 m 2,13,-1
 79 431 l 2,14,15
 79 569 79 569 66 661 c 1,16,17
 140 673 140 673 215 673 c 0,18,19
 483 673 483 673 483 457 c 0,20,21
 483 353 483 353 420.5 298 c 128,-1,22
 358 243 358 243 274 243 c 0,23,24
 203 243 203 243 154 275 c 1,25,-1
 154 203 l 2,26,27
 154 68 154 68 173 5 c 1,28,29
 155 -3 155 -3 126 -3 c 128,-1,30
 97 -3 97 -3 87 10 c 128,-1,31
 77 23 77 23 77 54 c 0,32,33
 77 70 77 70 78 133 c 128,-1,34
 79 196 79 196 79 231 c 2,13,-1
EndSplineSet
EndChar

StartChar: Q
Encoding: 81 81 52
Width: 712
GlyphClass: 2
Flags: W
LayerCount: 2
Fore
SplineSet
579 313 m 0,0,1
 579 369 579 369 566.5 420 c 128,-1,2
 554 471 554 471 529 515 c 128,-1,3
 504 559 504 559 459 585.5 c 128,-1,4
 414 612 414 612 356 612 c 0,5,6
 253 612 253 612 192 541.5 c 128,-1,7
 131 471 131 471 131 362 c 0,8,9
 131 303 131 303 143.5 250 c 128,-1,10
 156 197 156 197 181 151 c 128,-1,11
 206 105 206 105 250.5 78 c 128,-1,12
 295 51 295 51 354 51 c 0,13,14
 462 51 462 51 520.5 123.5 c 128,-1,15
 579 196 579 196 579 313 c 0,0,1
325 -9 m 1,16,17
 198 1 198 1 123.5 92.5 c 128,-1,18
 49 184 49 184 49 331 c 0,19,20
 49 488 49 488 132 580.5 c 128,-1,21
 215 673 215 673 355 673 c 0,22,23
 496 673 496 673 579.5 580.5 c 128,-1,24
 663 488 663 488 663 331 c 0,25,26
 663 185 663 185 588.5 94 c 128,-1,27
 514 3 514 3 387 -8 c 1,28,29
 399 -52 399 -52 429.5 -74 c 128,-1,30
 460 -96 460 -96 501 -96 c 0,31,32
 541 -96 541 -96 562 -88 c 128,-1,33
 583 -80 583 -80 611 -58 c 1,34,35
 621 -64 621 -64 630.5 -79 c 128,-1,36
 640 -94 640 -94 640 -104 c 0,37,38
 640 -129 640 -129 599.5 -143 c 128,-1,39
 559 -157 559 -157 508 -157 c 0,40,41
 435 -157 435 -157 386.5 -117 c 128,-1,42
 338 -77 338 -77 325 -9 c 1,16,17
EndSplineSet
EndChar

StartChar: R
Encoding: 82 82 53
Width: 530
GlyphClass: 2
Flags: W
LayerCount: 2
Fore
SplineSet
425 84 m 0,0,1
 451 55 451 55 489 55 c 0,2,3
 501 55 501 55 516 58 c 1,4,5
 525 40 525 40 525 28 c 0,6,7
 525 -10 525 -10 450 -10 c 0,8,9
 431 -10 431 -10 412 -1 c 128,-1,10
 393 8 393 8 374 30 c 128,-1,11
 355 52 355 52 341.5 69 c 128,-1,12
 328 86 328 86 308.5 122 c 128,-1,13
 289 158 289 158 281 173.5 c 128,-1,14
 273 189 273 189 254 230.5 c 128,-1,15
 235 272 235 272 232 278 c 1,16,17
 204 282 204 282 204 300 c 0,18,19
 204 309 204 309 209 327 c 1,20,21
 237 322 237 322 256 322 c 0,22,23
 323 322 323 322 361 361.5 c 128,-1,24
 399 401 399 401 399 469 c 0,25,26
 399 549 399 549 357 580.5 c 128,-1,27
 315 612 315 612 228 612 c 0,28,29
 196 612 196 612 150 608 c 1,30,31
 154 550 154 550 154 404 c 2,32,-1
 154 203 l 2,33,34
 154 68 154 68 173 5 c 1,35,36
 155 -3 155 -3 126 -3 c 128,-1,37
 97 -3 97 -3 87 10 c 128,-1,38
 77 23 77 23 77 54 c 0,39,40
 77 70 77 70 78 133 c 128,-1,41
 79 196 79 196 79 231 c 2,42,-1
 79 431 l 2,43,44
 79 569 79 569 66 661 c 1,45,46
 140 673 140 673 215 673 c 0,47,48
 483 673 483 673 483 474 c 0,49,50
 483 392 483 392 438 341.5 c 128,-1,51
 393 291 393 291 319 277 c 0,52,53
 319 276 319 276 336 240 c 128,-1,54
 353 204 353 204 359.5 192 c 128,-1,55
 366 180 366 180 380 153 c 128,-1,56
 394 126 394 126 404.5 110 c 128,-1,57
 415 94 415 94 425 84 c 0,0,1
EndSplineSet
EndChar

StartChar: S
Encoding: 83 83 54
Width: 518
GlyphClass: 2
Flags: W
LayerCount: 2
Fore
SplineSet
401 533 m 1,0,1
 384 566 384 566 340 587.5 c 128,-1,2
 296 609 296 609 249 609 c 0,3,4
 198 609 198 609 163.5 581 c 128,-1,5
 129 553 129 553 129 499 c 0,6,7
 129 458 129 458 154.5 431.5 c 128,-1,8
 180 405 180 405 218 394.5 c 128,-1,9
 256 384 256 384 301 369 c 128,-1,10
 346 354 346 354 384 338 c 128,-1,11
 422 322 422 322 447.5 283 c 128,-1,12
 473 244 473 244 473 186 c 0,13,14
 473 134 473 134 453 94.5 c 128,-1,15
 433 55 433 55 399 33 c 128,-1,16
 365 11 365 11 325.5 0.5 c 128,-1,17
 286 -10 286 -10 242 -10 c 0,18,19
 164 -10 164 -10 104.5 17.5 c 128,-1,20
 45 45 45 45 45 84 c 0,21,22
 45 97 45 97 53.5 107.5 c 128,-1,23
 62 118 62 118 70 123 c 128,-1,24
 78 128 78 128 96 137 c 1,25,26
 115 100 115 100 164.5 76.5 c 128,-1,27
 214 53 214 53 265 53 c 0,28,29
 321 53 321 53 361 83.5 c 128,-1,30
 401 114 401 114 401 171 c 0,31,32
 401 218 401 218 365.5 245.5 c 128,-1,33
 330 273 330 273 279.5 287 c 128,-1,34
 229 301 229 301 178.5 318 c 128,-1,35
 128 335 128 335 92.5 375.5 c 128,-1,36
 57 416 57 416 57 483 c 0,37,38
 57 575 57 575 117.5 624 c 128,-1,39
 178 673 178 673 272 673 c 0,40,41
 341 673 341 673 399.5 649 c 128,-1,42
 458 625 458 625 458 583 c 0,43,44
 458 543 458 543 401 533 c 1,0,1
EndSplineSet
EndChar

StartChar: T
Encoding: 84 84 55
Width: 465
GlyphClass: 2
Flags: W
LayerCount: 2
Fore
SplineSet
196 231 m 2,0,-1
 196 431 l 2,1,2
 196 524 196 524 193 602 c 1,3,4
 51 602 51 602 3 598 c 1,5,6
 0 607 0 607 0 625 c 0,7,8
 0 645 0 645 10.5 652 c 128,-1,9
 21 659 21 659 44 660 c 0,10,11
 69 661 69 661 151 661 c 2,12,-1
 269 661 l 2,13,14
 427 661 427 661 462 664 c 1,15,16
 465 655 465 655 465 638 c 0,17,18
 465 618 465 618 454.5 611 c 128,-1,19
 444 604 444 604 421 603 c 0,20,21
 390 602 390 602 278 602 c 1,22,23
 271 459 271 459 271 404 c 2,24,-1
 271 203 l 2,25,26
 271 68 271 68 290 5 c 1,27,28
 272 -3 272 -3 243 -3 c 128,-1,29
 214 -3 214 -3 204 10 c 128,-1,30
 194 23 194 23 194 54 c 0,31,32
 194 70 194 70 195 133 c 128,-1,33
 196 196 196 196 196 231 c 2,0,-1
EndSplineSet
EndChar

StartChar: U
Encoding: 85 85 56
Width: 644
GlyphClass: 2
Flags: W
LayerCount: 2
Fore
SplineSet
72 658 m 1,0,1
 92 666 92 666 117 666 c 0,2,3
 146 666 146 666 159.5 654.5 c 128,-1,4
 173 643 173 643 173 615 c 0,5,6
 173 572 173 572 165.5 425.5 c 128,-1,7
 158 279 158 279 158 198 c 0,8,9
 158 128 158 128 198.5 91 c 128,-1,10
 239 54 239 54 292 54 c 0,11,12
 341 54 341 54 395 78 c 128,-1,13
 449 102 449 102 483 134 c 1,14,15
 483 141 483 141 483.5 168.5 c 128,-1,16
 484 196 484 196 484 262.5 c 128,-1,17
 484 329 484 329 484 431 c 0,18,19
 484 572 484 572 477 663 c 1,20,21
 494 666 494 666 518 666 c 0,22,23
 567 666 567 666 567 628 c 0,24,25
 567 626 567 626 565 591 c 128,-1,26
 563 556 563 556 561 481.5 c 128,-1,27
 559 407 559 407 559 309 c 0,28,29
 559 154 559 154 562 101.5 c 128,-1,30
 565 49 565 49 578 5 c 1,31,32
 560 -3 560 -3 531 -3 c 0,33,34
 503 -3 503 -3 492.5 9.5 c 128,-1,35
 482 22 482 22 482 56 c 2,36,-1
 482 67 l 1,37,38
 442 33 442 33 386 11.5 c 128,-1,39
 330 -10 330 -10 283 -10 c 0,40,41
 189 -10 189 -10 134.5 34.5 c 128,-1,42
 80 79 80 79 80 192 c 0,43,44
 80 251 80 251 84.5 352 c 128,-1,45
 89 453 89 453 89 501 c 0,46,47
 89 596 89 596 72 658 c 1,0,1
EndSplineSet
EndChar

StartChar: V
Encoding: 86 86 57
Width: 558
GlyphClass: 2
Flags: W
LayerCount: 2
Fore
SplineSet
463 667 m 1,0,1
 491 673 491 673 505 673 c 0,2,3
 528 673 528 673 538 662 c 128,-1,4
 548 651 548 651 548 624 c 0,5,6
 548 514 548 514 478 329.5 c 128,-1,7
 408 145 408 145 335 52 c 0,8,9
 310 19 310 19 293 8 c 128,-1,10
 276 -3 276 -3 253 -3 c 0,11,12
 242 -3 242 -3 220 -1 c 1,13,14
 188 160 188 160 111 368 c 128,-1,15
 34 576 34 576 -20 629 c 1,16,17
 22 666 22 666 52 666 c 0,18,19
 83 666 83 666 101 623 c 0,20,21
 140 534 140 534 193 370 c 128,-1,22
 246 206 246 206 276 85 c 1,23,24
 335 151 335 151 401 326.5 c 128,-1,25
 467 502 467 502 467 617 c 0,26,27
 467 653 467 653 463 667 c 1,0,1
EndSplineSet
EndChar

StartChar: W
Encoding: 87 87 58
Width: 942
GlyphClass: 2
Flags: W
LayerCount: 2
Fore
SplineSet
837 667 m 1,0,1
 865 673 865 673 879 673 c 0,2,3
 901 673 901 673 911.5 663.5 c 128,-1,4
 922 654 922 654 922 630 c 0,5,6
 922 514 922 514 856.5 330.5 c 128,-1,7
 791 147 791 147 720 52 c 0,8,9
 695 19 695 19 679.5 8 c 128,-1,10
 664 -3 664 -3 642 -3 c 0,11,12
 630 -3 630 -3 610 -1 c 1,13,14
 571 209 571 209 485 440 c 1,15,16
 453 329 453 329 405.5 220.5 c 128,-1,17
 358 112 358 112 313 52 c 0,18,19
 288 19 288 19 272.5 8 c 128,-1,20
 257 -3 257 -3 235 -3 c 0,21,22
 224 -3 224 -3 204 -1 c 1,23,24
 175 159 175 159 102.5 367.5 c 128,-1,25
 30 576 30 576 -20 629 c 1,26,27
 21 666 21 666 53 666 c 0,28,29
 82 666 82 666 100 623 c 0,30,31
 137 536 137 536 184 374 c 128,-1,32
 231 212 231 212 260 85 c 1,33,34
 314 150 314 150 374 325.5 c 128,-1,35
 434 501 434 501 434 616 c 0,36,37
 434 652 434 652 430 667 c 1,38,39
 458 673 458 673 472 673 c 0,40,41
 494 673 494 673 504.5 663.5 c 128,-1,42
 515 654 515 654 515 630 c 0,43,44
 515 601 515 601 510 573 c 1,45,46
 576 469 576 469 666 85 c 1,47,48
 720 151 720 151 780.5 326 c 128,-1,49
 841 501 841 501 841 616 c 0,50,51
 841 652 841 652 837 667 c 1,0,1
EndSplineSet
EndChar

StartChar: X
Encoding: 88 88 59
Width: 576
GlyphClass: 2
Flags: W
LayerCount: 2
Fore
SplineSet
25 43 m 0,0,1
 25 102 25 102 247 345 c 1,2,3
 100 581 100 581 30 626 c 1,4,5
 68 673 68 673 104 673 c 0,6,7
 125 673 125 673 155 631 c 0,8,9
 219 539 219 539 300 405 c 1,10,11
 356 473 356 473 400 551.5 c 128,-1,12
 444 630 444 630 450 672 c 1,13,14
 521 658 521 658 521 616 c 0,15,16
 521 589 521 589 463 506.5 c 128,-1,17
 405 424 405 424 336 346 c 1,18,19
 492 80 492 80 570 33 c 1,20,21
 532 -10 532 -10 501 -10 c 0,22,23
 477 -10 477 -10 449 29 c 1,24,25
 390 107 390 107 283 285 c 1,26,27
 226 230 226 230 167 138 c 128,-1,28
 108 46 108 46 94 -10 c 1,29,30
 25 3 25 3 25 43 c 0,0,1
EndSplineSet
EndChar

StartChar: Y
Encoding: 89 89 60
Width: 501
GlyphClass: 2
Flags: W
LayerCount: 2
Fore
SplineSet
496 627 m 0,0,1
 496 602 496 602 420 485.5 c 128,-1,2
 344 369 344 369 287 301 c 1,3,-1
 287 216 l 2,4,5
 287 70 287 70 306 5 c 1,6,7
 288 -3 288 -3 259 -3 c 128,-1,8
 230 -3 230 -3 220 10 c 128,-1,9
 210 23 210 23 210 54 c 0,10,11
 211 146 211 146 212 232 c 1,12,-1
 212 294 l 1,13,14
 67 567 67 567 -10 619 c 1,15,16
 -7 623 -7 623 2.5 634 c 128,-1,17
 12 645 12 645 15.5 648 c 128,-1,18
 19 651 19 651 26 657 c 128,-1,19
 33 663 33 663 39 665 c 128,-1,20
 45 667 45 667 53 667 c 0,21,22
 78 667 78 667 101 633 c 0,23,24
 161 546 161 546 261 361 c 1,25,26
 309 424 309 424 363.5 529.5 c 128,-1,27
 418 635 418 635 420 672 c 1,28,29
 496 667 496 667 496 627 c 0,0,1
EndSplineSet
EndChar

StartChar: Z
Encoding: 90 90 61
Width: 535
GlyphClass: 2
Flags: W
LayerCount: 2
Fore
SplineSet
499 648 m 1,0,1
 515 630 515 630 515 608 c 0,2,3
 515 584 515 584 498 562 c 2,4,-1
 94 57 l 1,5,6
 130 53 130 53 175 53 c 0,7,8
 369 53 369 53 491 85 c 1,9,10
 501 59 501 59 501 43 c 0,11,12
 501 20 501 20 484 12 c 128,-1,13
 467 4 467 4 429 0 c 0,14,15
 369 -6 369 -6 273 -6 c 0,16,17
 134 -6 134 -6 44 6 c 1,18,19
 26 30 26 30 26 56 c 0,20,21
 26 88 26 88 51 119 c 2,22,-1
 428 600 l 1,23,24
 381 606 381 606 306 606 c 0,25,26
 165 606 165 606 56 579 c 1,27,28
 46 603 46 603 46 621 c 0,29,30
 46 649 46 649 75 657 c 1,31,32
 117 667 117 667 202 667 c 0,33,34
 386 667 386 667 499 648 c 1,0,1
EndSplineSet
EndChar

StartChar: bracketleft
Encoding: 91 91 62
Width: 380
GlyphClass: 2
Flags: W
LayerCount: 2
Fore
SplineSet
216 664 m 1,0,-1
 216 -134 l 1,1,2
 254 -132 254 -132 296 -132 c 0,3,4
 321 -132 321 -132 330.5 -140.5 c 128,-1,5
 340 -149 340 -149 340 -167 c 0,6,7
 340 -179 340 -179 336 -190 c 1,8,-1
 150 -190 l 1,9,-1
 150 720 l 1,10,-1
 336 720 l 1,11,12
 340 712 340 712 340 697 c 0,13,14
 340 677 340 677 329 669.5 c 128,-1,15
 318 662 318 662 296 662 c 0,16,17
 253 662 253 662 216 664 c 1,0,-1
EndSplineSet
EndChar

StartChar: backslash
Encoding: 92 92 63
Width: 258
GlyphClass: 2
Flags: W
LayerCount: 2
Fore
SplineSet
129 113 m 1,0,1
 35 700 35 700 35 715 c 0,2,3
 35 742 35 742 71 742 c 0,4,5
 83 742 83 742 92 739 c 1,6,7
 100 653 100 653 122 507 c 1,8,9
 216 -87 216 -87 216 -94 c 0,10,11
 216 -122 216 -122 183 -122 c 0,12,13
 172 -122 172 -122 159 -119 c 1,14,15
 151 -33 151 -33 129 113 c 1,0,1
EndSplineSet
EndChar

StartChar: bracketright
Encoding: 93 93 64
Width: 350
GlyphClass: 2
Flags: W
LayerCount: 2
Fore
SplineSet
154 -134 m 1,0,-1
 154 664 l 1,1,2
 117 662 117 662 74 662 c 0,3,4
 52 662 52 662 41 669.5 c 128,-1,5
 30 677 30 677 30 697 c 0,6,7
 30 711 30 711 34 720 c 1,8,-1
 220 720 l 1,9,-1
 220 -190 l 1,10,-1
 34 -190 l 1,11,12
 30 -179 30 -179 30 -167 c 0,13,14
 30 -149 30 -149 39.5 -140.5 c 128,-1,15
 49 -132 49 -132 74 -132 c 0,16,17
 116 -132 116 -132 154 -134 c 1,0,-1
EndSplineSet
EndChar

StartChar: asciicircum
Encoding: 94 94 65
Width: 470
GlyphClass: 2
Flags: W
LayerCount: 2
Fore
SplineSet
236 582 m 1,0,1
 82 417 82 417 52 417 c 0,2,3
 41 417 41 417 25 433 c 1,4,5
 48 472 48 472 119.5 552 c 128,-1,6
 191 632 191 632 235 675 c 1,7,8
 279 632 279 632 350.5 552 c 128,-1,9
 422 472 422 472 445 433 c 1,10,11
 429 417 429 417 419 417 c 0,12,13
 413 417 413 417 402 423.5 c 128,-1,14
 391 430 391 430 376.5 442.5 c 128,-1,15
 362 455 362 455 348 467.5 c 128,-1,16
 334 480 334 480 316 498.5 c 128,-1,17
 298 517 298 517 286.5 529 c 128,-1,18
 275 541 275 541 258 559 c 128,-1,19
 241 577 241 577 236 582 c 1,0,1
EndSplineSet
EndChar

StartChar: underscore
Encoding: 95 95 66
Width: 535
GlyphClass: 2
Flags: W
LayerCount: 2
Fore
SplineSet
535 -110 m 0,0,1
 535 -128 535 -128 525 -140 c 128,-1,2
 515 -152 515 -152 499 -152 c 0,3,4
 484 -152 484 -152 430 -148 c 128,-1,5
 376 -144 376 -144 348 -144 c 2,6,-1
 205 -144 l 2,7,8
 91 -144 91 -144 3 -152 c 1,9,10
 0 -137 0 -137 0 -122 c 0,11,12
 0 -106 0 -106 9 -93 c 128,-1,13
 18 -80 18 -80 36 -80 c 0,14,15
 39 -80 39 -80 99 -83.5 c 128,-1,16
 159 -87 159 -87 203 -87 c 2,17,-1
 345 -87 l 2,18,19
 472 -87 472 -87 532 -80 c 1,20,21
 535 -89 535 -89 535 -110 c 0,0,1
EndSplineSet
EndChar

StartChar: grave
Encoding: 96 96 67
Width: 201
GlyphClass: 2
Flags: W
LayerCount: 2
Fore
SplineSet
-15 702 m 1,0,1
 22 661 22 661 63 629.5 c 128,-1,2
 104 598 104 598 122 583.5 c 128,-1,3
 140 569 140 569 140 554 c 128,-1,4
 140 539 140 539 124 525 c 1,5,6
 96 546 96 546 47.5 573 c 128,-1,7
 -1 600 -1 600 -25.5 618 c 128,-1,8
 -50 636 -50 636 -50 656 c 0,9,10
 -50 682 -50 682 -15 702 c 1,0,1
EndSplineSet
EndChar

StartChar: a
Encoding: 97 97 68
Width: 467
GlyphClass: 2
Flags: W
LayerCount: 2
Fore
SplineSet
311 211 m 1,0,1
 292 256 292 256 230 424 c 1,2,3
 180 280 180 280 151 212 c 1,4,5
 211 210 211 210 243 210 c 0,6,7
 290 210 290 210 311 211 c 1,0,1
227 157 m 0,8,9
 206 157 206 157 130 159 c 1,10,11
 125 147 125 147 108.5 106 c 128,-1,12
 92 65 92 65 82 37.5 c 128,-1,13
 72 10 72 10 65 -16 c 1,14,15
 6 -8 6 -8 6 15 c 0,16,17
 6 25 6 25 15.5 48 c 128,-1,18
 25 71 25 71 48.5 124.5 c 128,-1,19
 72 178 72 178 93 232 c 0,20,21
 171 433 171 433 195 514 c 1,22,23
 211 517 211 517 232 517 c 0,24,25
 254 517 254 517 263 510.5 c 128,-1,26
 272 504 272 504 283 475 c 0,27,28
 291 454 291 454 326.5 358.5 c 128,-1,29
 362 263 362 263 382 212 c 0,30,31
 430 94 430 94 476 7 c 1,32,33
 448 -7 448 -7 431 -7 c 0,34,35
 401 -7 401 -7 390 13 c 1,36,37
 384 27 384 27 331 159 c 1,38,39
 245 157 245 157 227 157 c 0,8,9
EndSplineSet
EndChar

StartChar: b
Encoding: 98 98 69
Width: 488
GlyphClass: 2
Flags: W
LayerCount: 2
Fore
SplineSet
203 470 m 1,0,-1
 152 467 l 1,1,2
 155 420 155 420 155 301 c 1,3,4
 179 299 179 299 197 299 c 0,5,6
 336 299 336 299 336 383 c 0,7,8
 336 470 336 470 203 470 c 1,0,-1
239 46 m 0,9,10
 289 46 289 46 322.5 73 c 128,-1,11
 356 100 356 100 356 148 c 0,12,13
 356 200 356 200 318.5 227.5 c 128,-1,14
 281 255 281 255 227 255 c 0,15,16
 179 255 179 255 155 251 c 1,17,18
 155 170 155 170 144 74 c 1,19,20
 182 46 182 46 239 46 c 0,9,10
70 41 m 1,21,22
 83 130 83 130 83 301 c 0,23,24
 83 448 83 448 73 515 c 1,25,26
 129 524 129 524 206 524 c 0,27,28
 297 524 297 524 355 493 c 128,-1,29
 413 462 413 462 413 390 c 0,30,31
 413 312 413 312 341 282 c 1,32,33
 432 246 432 246 432 148 c 0,34,35
 432 75 432 75 381 34 c 128,-1,36
 330 -7 330 -7 255 -7 c 0,37,38
 133 -7 133 -7 70 41 c 1,21,22
EndSplineSet
EndChar

StartChar: c
Encoding: 99 99 70
Width: 516
GlyphClass: 2
Flags: W
LayerCount: 2
Fore
SplineSet
433 113 m 1,0,1
 472 97 472 97 472 68 c 0,2,3
 472 38 472 38 425 15.5 c 128,-1,4
 378 -7 378 -7 307 -7 c 0,5,6
 190 -7 190 -7 119 66 c 128,-1,7
 48 139 48 139 48 258 c 0,8,9
 48 383 48 383 118.5 453.5 c 128,-1,10
 189 524 189 524 311 524 c 0,11,12
 376 524 376 524 420 499.5 c 128,-1,13
 464 475 464 475 464 439 c 0,14,15
 464 402 464 402 409 393 c 1,16,17
 395 430 395 430 362.5 449.5 c 128,-1,18
 330 469 330 469 294 469 c 0,19,20
 221 469 221 469 174 413 c 128,-1,21
 127 357 127 357 127 274 c 0,22,23
 127 177 127 177 174 112 c 128,-1,24
 221 47 221 47 306 47 c 0,25,26
 344 47 344 47 378.5 64 c 128,-1,27
 413 81 413 81 433 113 c 1,0,1
EndSplineSet
EndChar

StartChar: d
Encoding: 100 100 71
Width: 552
GlyphClass: 2
Flags: W
LayerCount: 2
Fore
SplineSet
70 41 m 1,0,1
 81 108 81 108 83 303 c 1,2,3
 83 437 83 437 73 515 c 1,4,5
 121 524 121 524 202 524 c 0,6,7
 267 524 267 524 318.5 511 c 128,-1,8
 370 498 370 498 413.5 468.5 c 128,-1,9
 457 439 457 439 480.5 386 c 128,-1,10
 504 333 504 333 504 259 c 0,11,12
 504 143 504 143 437 68 c 128,-1,13
 370 -7 370 -7 247 -7 c 0,14,15
 132 -7 132 -7 70 41 c 1,0,1
152 467 m 1,16,17
 155 427 155 427 155 344 c 0,18,19
 155 174 155 174 144 75 c 1,20,21
 185 48 185 48 248 48 c 0,22,23
 297 48 297 48 333 66 c 128,-1,24
 369 84 369 84 388 114.5 c 128,-1,25
 407 145 407 145 415.5 177.5 c 128,-1,26
 424 210 424 210 424 245 c 0,27,28
 424 357 424 357 366.5 413.5 c 128,-1,29
 309 470 309 470 202 470 c 0,30,31
 195 470 195 470 187 469.5 c 128,-1,32
 179 469 179 469 168.5 468 c 128,-1,33
 158 467 158 467 152 467 c 1,16,17
EndSplineSet
EndChar

StartChar: e
Encoding: 101 101 72
Width: 447
GlyphClass: 2
Flags: W
LayerCount: 2
Fore
SplineSet
163 460 m 1,0,1
 166 436 166 436 166 305 c 1,2,-1
 230 305 l 2,3,4
 297 305 297 305 326 308 c 1,5,6
 329 300 329 300 329 286 c 0,7,8
 329 266 329 266 320.5 258.5 c 128,-1,9
 312 251 312 251 294 250 c 0,10,11
 273 249 273 249 237 249 c 2,12,-1
 166 249 l 1,13,14
 166 88 166 88 172 55 c 1,15,16
 208 53 208 53 230 53 c 0,17,18
 362 53 362 53 403 71 c 1,19,20
 410 53 410 53 410 33 c 0,21,22
 410 17 410 17 402 10 c 0,23,24
 387 -1 387 -1 266 -1 c 0,25,26
 242 -1 242 -1 189 -0.5 c 128,-1,27
 136 0 136 0 134 0 c 0,28,29
 109 1 109 1 100.5 11 c 128,-1,30
 92 21 92 21 92 44 c 0,31,32
 92 58 92 58 93 105.5 c 128,-1,33
 94 153 94 153 94 180 c 2,34,-1
 94 333 l 2,35,36
 94 447 94 447 82 512 c 1,37,38
 180 519 180 519 265 519 c 0,39,40
 386 519 386 519 401 507 c 0,41,42
 409 500 409 500 409 484 c 0,43,44
 409 464 409 464 402 446 c 1,45,46
 354 462 354 462 252 462 c 0,47,48
 213 462 213 462 163 460 c 1,0,1
EndSplineSet
EndChar

StartChar: f
Encoding: 102 102 73
Width: 409
GlyphClass: 2
Flags: W
LayerCount: 2
Fore
SplineSet
166 241 m 1,0,-1
 166 156 l 2,1,2
 166 51 166 51 182 2 c 1,3,4
 162 -4 162 -4 138 -4 c 0,5,6
 111 -4 111 -4 101.5 6 c 128,-1,7
 92 16 92 16 92 39 c 0,8,9
 92 52 92 52 93 101 c 128,-1,10
 94 150 94 150 94 177 c 2,11,-1
 94 334 l 2,12,13
 94 447 94 447 82 512 c 1,14,15
 180 519 180 519 265 519 c 0,16,17
 386 519 386 519 401 507 c 0,18,19
 409 500 409 500 409 484 c 0,20,21
 409 464 409 464 402 446 c 1,22,23
 354 462 354 462 252 462 c 0,24,25
 219 462 219 462 163 460 c 1,26,27
 166 433 166 433 166 360 c 2,28,-1
 166 297 l 1,29,-1
 230 297 l 2,30,31
 297 297 297 297 326 300 c 1,32,33
 329 292 329 292 329 277 c 0,34,35
 329 252 329 252 316 246.5 c 128,-1,36
 303 241 303 241 257 241 c 2,37,-1
 166 241 l 1,0,-1
EndSplineSet
EndChar

StartChar: g
Encoding: 103 103 74
Width: 528
GlyphClass: 2
Flags: W
LayerCount: 2
Fore
SplineSet
472 66 m 0,0,1
 472 38 472 38 424.5 15.5 c 128,-1,2
 377 -7 377 -7 307 -7 c 0,3,4
 190 -7 190 -7 119 66 c 128,-1,5
 48 139 48 139 48 258 c 0,6,7
 48 383 48 383 118.5 453.5 c 128,-1,8
 189 524 189 524 311 524 c 0,9,10
 376 524 376 524 420 499.5 c 128,-1,11
 464 475 464 475 464 439 c 0,12,13
 464 402 464 402 409 393 c 1,14,15
 394 431 394 431 362 450 c 128,-1,16
 330 469 330 469 294 469 c 0,17,18
 221 469 221 469 174 413 c 128,-1,19
 127 357 127 357 127 274 c 0,20,21
 127 177 127 177 173.5 112 c 128,-1,22
 220 47 220 47 303 47 c 0,23,24
 363 47 363 47 403 78 c 1,25,26
 401 169 401 169 397 239 c 1,27,28
 413 241 413 241 431 241 c 0,29,30
 478 241 478 241 478 212 c 0,31,32
 478 211 478 211 475 159.5 c 128,-1,33
 472 108 472 108 472 66 c 0,0,1
EndSplineSet
EndChar

StartChar: h
Encoding: 104 104 75
Width: 586
GlyphClass: 2
Flags: W
LayerCount: 2
Fore
SplineSet
97 180 m 2,0,-1
 97 336 l 2,1,2
 97 440 97 440 91 516 c 1,3,4
 109 519 109 519 129 519 c 0,5,6
 176 519 176 519 176 489 c 0,7,8
 176 485 176 485 174 457 c 128,-1,9
 172 429 172 429 170.5 387 c 128,-1,10
 169 345 169 345 169 307 c 1,11,12
 211 306 211 306 295 306 c 0,13,14
 376 306 376 306 417 307 c 1,15,-1
 417 339 l 1,16,17
 416 444 416 444 411 516 c 1,18,19
 429 519 429 519 449 519 c 0,20,21
 496 519 496 519 496 489 c 0,22,23
 496 485 496 485 494 458 c 128,-1,24
 492 431 492 431 490.5 391 c 128,-1,25
 489 351 489 351 489 315 c 2,26,-1
 489 158 l 2,27,28
 489 53 489 53 505 4 c 1,29,30
 490 -2 490 -2 461 -2 c 0,31,32
 434 -2 434 -2 424.5 8 c 128,-1,33
 415 18 415 18 415 42 c 0,34,35
 415 54 415 54 416 103 c 128,-1,36
 417 152 417 152 417 180 c 2,37,-1
 417 254 l 1,38,39
 375 253 375 253 294 253 c 0,40,41
 210 253 210 253 169 254 c 1,42,-1
 169 158 l 2,43,44
 169 53 169 53 185 4 c 1,45,46
 170 -2 170 -2 141 -2 c 0,47,48
 114 -2 114 -2 104.5 8 c 128,-1,49
 95 18 95 18 95 42 c 0,50,51
 95 54 95 54 96 103 c 128,-1,52
 97 152 97 152 97 180 c 2,0,-1
EndSplineSet
EndChar

StartChar: i
Encoding: 105 105 76
Width: 268
GlyphClass: 2
Flags: W
LayerCount: 2
Fore
SplineSet
98 180 m 2,0,-1
 98 336 l 2,1,2
 98 440 98 440 92 516 c 1,3,4
 110 519 110 519 130 519 c 0,5,6
 177 519 177 519 177 489 c 0,7,8
 177 485 177 485 175.5 458 c 128,-1,9
 174 431 174 431 172 391 c 128,-1,10
 170 351 170 351 170 315 c 2,11,-1
 170 158 l 2,12,13
 170 53 170 53 186 4 c 1,14,15
 171 -2 171 -2 142 -2 c 0,16,17
 115 -2 115 -2 105.5 8 c 128,-1,18
 96 18 96 18 96 42 c 0,19,20
 96 54 96 54 97 103 c 128,-1,21
 98 152 98 152 98 180 c 2,0,-1
EndSplineSet
EndChar

StartChar: j
Encoding: 106 106 77
Width: 258
GlyphClass: 2
Flags: W
LayerCount: 2
Fore
SplineSet
43 -92 m 0,0,1
 12 -92 12 -92 10 -38 c 1,2,3
 70 -26 70 -26 84 0 c 128,-1,4
 98 26 98 26 98 98 c 0,5,6
 98 128 98 128 97.5 211.5 c 128,-1,7
 97 295 97 295 97 336 c 0,8,9
 97 455 97 455 91 516 c 1,10,11
 108 519 108 519 130 519 c 0,12,13
 176 519 176 519 176 489 c 0,14,15
 176 485 176 485 174.5 460.5 c 128,-1,16
 173 436 173 436 171.5 399 c 128,-1,17
 170 362 170 362 170 328 c 2,18,-1
 170 86 l 2,19,20
 170 35 170 35 155.5 -2.5 c 128,-1,21
 141 -40 141 -40 119 -58 c 128,-1,22
 97 -76 97 -76 78 -84 c 128,-1,23
 59 -92 59 -92 43 -92 c 0,0,1
EndSplineSet
EndChar

StartChar: k
Encoding: 107 107 78
Width: 460
GlyphClass: 2
Flags: W
LayerCount: 2
Fore
SplineSet
225 279 m 1,0,1
 310 140 310 140 360 79 c 1,2,3
 389 48 389 48 422 48 c 0,4,5
 432 48 432 48 441 50 c 1,6,7
 448 39 448 39 448 26 c 0,8,9
 448 10 448 10 432 1 c 128,-1,10
 416 -8 416 -8 393 -8 c 0,11,12
 345 -8 345 -8 309 32 c 0,13,14
 293 50 293 50 272.5 78 c 128,-1,15
 252 106 252 106 237.5 127.5 c 128,-1,16
 223 149 223 149 199 185 c 128,-1,17
 175 221 175 221 167 234 c 1,18,-1
 160 229 l 1,19,-1
 160 158 l 2,20,21
 160 53 160 53 176 4 c 1,22,23
 161 -2 161 -2 132 -2 c 0,24,25
 105 -2 105 -2 95.5 8 c 128,-1,26
 86 18 86 18 86 42 c 0,27,28
 86 54 86 54 87 103 c 128,-1,29
 88 152 88 152 88 180 c 2,30,-1
 88 336 l 2,31,32
 88 440 88 440 82 516 c 1,33,34
 100 519 100 519 120 519 c 0,35,36
 167 519 167 519 167 489 c 0,37,38
 167 485 167 485 165.5 458 c 128,-1,39
 164 431 164 431 162 388.5 c 128,-1,40
 160 346 160 346 160 306 c 1,41,42
 221 349 221 349 281.5 412 c 128,-1,43
 342 475 342 475 356 518 c 1,44,45
 406 511 406 511 406 483 c 0,46,47
 406 462 406 462 349.5 398.5 c 128,-1,48
 293 335 293 335 225 279 c 1,0,1
EndSplineSet
EndChar

StartChar: l
Encoding: 108 108 79
Width: 387
GlyphClass: 2
Flags: W
LayerCount: 2
Fore
SplineSet
88 174 m 2,0,-1
 88 336 l 2,1,2
 88 440 88 440 82 517 c 1,3,4
 98 519 98 519 121 519 c 0,5,6
 167 519 167 519 167 489 c 0,7,8
 167 485 167 485 165.5 458 c 128,-1,9
 164 431 164 431 162 391 c 128,-1,10
 160 351 160 351 160 315 c 2,11,-1
 160 246 l 2,12,13
 160 88 160 88 166 55 c 1,14,15
 200 53 200 53 219 53 c 0,16,17
 344 53 344 53 381 71 c 1,18,19
 387 52 387 52 387 33 c 0,20,21
 387 17 387 17 380 10 c 1,22,23
 365 -1 365 -1 251 -1 c 0,24,25
 229 -1 229 -1 178.5 -0.5 c 128,-1,26
 128 0 128 0 125 0 c 0,27,28
 102 1 102 1 94 11 c 128,-1,29
 86 21 86 21 86 44 c 0,30,31
 86 56 86 56 87 101 c 128,-1,32
 88 146 88 146 88 174 c 2,0,-1
EndSplineSet
EndChar

StartChar: m
Encoding: 109 109 80
Width: 714
GlyphClass: 2
Flags: W
LayerCount: 2
Fore
SplineSet
617 340 m 2,0,-1
 617 158 l 2,1,2
 617 53 617 53 632 3 c 1,3,4
 619 -2 619 -2 591 -2 c 128,-1,5
 563 -2 563 -2 553.5 8 c 128,-1,6
 544 18 544 18 544 42 c 0,7,8
 544 69 544 69 544.5 192.5 c 128,-1,9
 545 316 545 316 545 413 c 1,10,11
 479 276 479 276 392 1 c 1,12,13
 380 -2 380 -2 360 -2 c 1,14,15
 329 0 329 0 320 18 c 0,16,17
 298 63 298 63 247 201 c 128,-1,18
 196 339 196 339 160 413 c 1,19,-1
 160 158 l 2,20,21
 160 53 160 53 176 3 c 1,22,23
 156 -2 156 -2 140 -2 c 0,24,25
 114 -2 114 -2 105 8 c 128,-1,26
 96 18 96 18 96 42 c 0,27,28
 96 54 96 54 96.5 103 c 128,-1,29
 97 152 97 152 97 180 c 2,30,-1
 97 376 l 2,31,32
 97 464 97 464 82 514 c 1,33,34
 112 520 112 520 134 520 c 0,35,36
 175 520 175 520 198 482 c 1,37,38
 230 432 230 432 261.5 357.5 c 128,-1,39
 293 283 293 283 311 230.5 c 128,-1,40
 329 178 329 178 359 84 c 1,41,42
 420 327 420 327 518 483 c 1,43,44
 540 520 540 520 582 520 c 0,45,46
 606 520 606 520 632 514 c 1,47,48
 617 467 617 467 617 340 c 2,0,-1
EndSplineSet
EndChar

StartChar: n
Encoding: 110 110 81
Width: 578
GlyphClass: 2
Flags: W
LayerCount: 2
Fore
SplineSet
486 0 m 1,0,1
 466 -2 466 -2 455 -2 c 0,2,3
 421 -2 421 -2 407 18 c 0,4,5
 377 64 377 64 294 202 c 128,-1,6
 211 340 211 340 158 417 c 1,7,8
 160 342 160 342 160 181 c 0,9,10
 160 49 160 49 176 3 c 1,11,12
 158 -2 158 -2 141 -2 c 0,13,14
 114 -2 114 -2 105 8 c 128,-1,15
 96 18 96 18 96 42 c 0,16,17
 96 54 96 54 96.5 103 c 128,-1,18
 97 152 97 152 97 180 c 2,19,-1
 97 336 l 2,20,21
 97 466 97 466 82 514 c 1,22,23
 100 520 100 520 125 520 c 0,24,25
 156 520 156 520 177 497 c 1,26,27
 216 457 216 457 291 339 c 128,-1,28
 366 221 366 221 423 116 c 1,29,30
 418 188 418 188 418 331 c 0,31,32
 418 439 418 439 412 517 c 1,33,34
 428 519 428 519 441 519 c 0,35,36
 487 519 487 519 487 489 c 0,37,38
 487 485 487 485 485.5 458 c 128,-1,39
 484 431 484 431 482.5 391 c 128,-1,40
 481 351 481 351 481 315 c 2,41,-1
 481 181 l 2,42,43
 481 64 481 64 486 0 c 1,0,1
EndSplineSet
EndChar

StartChar: o
Encoding: 111 111 82
Width: 606
GlyphClass: 2
Flags: W
LayerCount: 2
Fore
SplineSet
302 -7 m 0,0,1
 186 -7 186 -7 117 65 c 128,-1,2
 48 137 48 137 48 258 c 0,3,4
 48 380 48 380 117 452 c 128,-1,5
 186 524 186 524 302 524 c 0,6,7
 419 524 419 524 488.5 452 c 128,-1,8
 558 380 558 380 558 258 c 0,9,10
 558 137 558 137 488.5 65 c 128,-1,11
 419 -7 419 -7 302 -7 c 0,0,1
478 244 m 0,12,13
 478 301 478 301 462 350 c 128,-1,14
 446 399 446 399 404.5 434 c 128,-1,15
 363 469 363 469 303 469 c 0,16,17
 222 469 222 469 174.5 416 c 128,-1,18
 127 363 127 363 127 281 c 0,19,20
 127 221 127 221 143 170 c 128,-1,21
 159 119 159 119 200 83 c 128,-1,22
 241 47 241 47 302 47 c 0,23,24
 386 47 386 47 432 101.5 c 128,-1,25
 478 156 478 156 478 244 c 0,12,13
EndSplineSet
EndChar

StartChar: p
Encoding: 112 112 83
Width: 457
GlyphClass: 2
Flags: W
LayerCount: 2
Fore
SplineSet
241 240 m 0,0,1
 293 240 293 240 322 269.5 c 128,-1,2
 351 299 351 299 351 349 c 0,3,4
 351 418 351 418 318.5 444 c 128,-1,5
 286 470 286 470 217 470 c 0,6,7
 213 470 213 470 162 467 c 1,8,9
 165 401 165 401 165 316 c 2,10,-1
 165 256 l 1,11,12
 197 240 197 240 241 240 c 0,0,1
92 180 m 2,13,-1
 92 336 l 2,14,15
 92 444 92 444 82 515 c 1,16,17
 136 524 136 524 207 524 c 0,18,19
 431 524 431 524 431 354 c 0,20,21
 431 271 431 271 380.5 228 c 128,-1,22
 330 185 330 185 262 185 c 0,23,24
 203 185 203 185 165 210 c 1,25,-1
 165 155 l 2,26,27
 165 52 165 52 181 3 c 1,28,29
 163 -2 163 -2 137 -2 c 0,30,31
 110 -2 110 -2 100.5 8 c 128,-1,32
 91 18 91 18 91 42 c 0,33,34
 91 54 91 54 91.5 103 c 128,-1,35
 92 152 92 152 92 180 c 2,13,-1
EndSplineSet
EndChar

StartChar: q
Encoding: 113 113 84
Width: 605
GlyphClass: 2
Flags: W
LayerCount: 2
Fore
SplineSet
478 244 m 0,0,1
 478 335 478 335 434.5 402 c 128,-1,2
 391 469 391 469 302 469 c 0,3,4
 221 469 221 469 173.5 416 c 128,-1,5
 126 363 126 363 126 281 c 0,6,7
 126 221 126 221 142 170 c 128,-1,8
 158 119 158 119 199 83 c 128,-1,9
 240 47 240 47 301 47 c 0,10,11
 385 47 385 47 431.5 101.5 c 128,-1,12
 478 156 478 156 478 244 c 0,0,1
271 -7 m 1,13,14
 167 2 167 2 107.5 72.5 c 128,-1,15
 48 143 48 143 48 258 c 0,16,17
 48 381 48 381 116 452.5 c 128,-1,18
 184 524 184 524 302 524 c 0,19,20
 419 524 419 524 488 452 c 128,-1,21
 557 380 557 380 557 258 c 0,22,23
 557 144 557 144 495.5 73 c 128,-1,24
 434 2 434 2 330 -6 c 1,25,26
 350 -62 350 -62 422 -62 c 0,27,28
 442 -62 442 -62 458.5 -56.5 c 128,-1,29
 475 -51 475 -51 484 -44.5 c 128,-1,30
 493 -38 493 -38 508 -26 c 1,31,32
 539 -48 539 -48 539 -72 c 128,-1,33
 539 -96 539 -96 507 -109 c 128,-1,34
 475 -122 475 -122 429 -122 c 0,35,36
 370 -122 370 -122 326.5 -93 c 128,-1,37
 283 -64 283 -64 271 -7 c 1,13,14
EndSplineSet
EndChar

StartChar: r
Encoding: 114 114 85
Width: 496
GlyphClass: 2
Flags: W
LayerCount: 2
Fore
SplineSet
390 70 m 0,0,1
 412 48 412 48 438 48 c 0,2,3
 443 48 443 48 459 50 c 1,4,5
 466 36 466 36 466 24 c 0,6,7
 466 -7 466 -7 401 -7 c 0,8,9
 372 -7 372 -7 345 14.5 c 128,-1,10
 318 36 318 36 293 76.5 c 128,-1,11
 268 117 268 117 254.5 144.5 c 128,-1,12
 241 172 241 172 222 215 c 1,13,14
 203 219 203 219 203 235 c 0,15,16
 203 245 203 245 210 265 c 1,17,18
 232 260 232 260 248 260 c 0,19,20
 294 260 294 260 323 288.5 c 128,-1,21
 352 317 352 317 352 366 c 0,22,23
 352 424 352 424 320 447 c 128,-1,24
 288 470 288 470 222 470 c 0,25,26
 216 470 216 470 162 467 c 1,27,28
 166 421 166 421 166 310 c 2,29,-1
 166 156 l 2,30,31
 166 52 166 52 181 3 c 1,32,33
 164 -2 164 -2 137 -2 c 128,-1,34
 110 -2 110 -2 100.5 8 c 128,-1,35
 91 18 91 18 91 42 c 0,36,37
 91 54 91 54 92 103 c 128,-1,38
 93 152 93 152 93 180 c 2,39,-1
 93 336 l 2,40,41
 93 446 93 446 82 515 c 1,42,43
 136 524 136 524 208 524 c 0,44,45
 432 524 432 524 432 367 c 0,46,47
 432 305 432 305 396.5 266 c 128,-1,48
 361 227 361 227 302 214 c 1,49,50
 363 97 363 97 390 70 c 0,0,1
EndSplineSet
EndChar

StartChar: s
Encoding: 115 115 86
Width: 454
GlyphClass: 2
Flags: W
LayerCount: 2
Fore
SplineSet
342 404 m 1,0,1
 328 432 328 432 293 450.5 c 128,-1,2
 258 469 258 469 220 469 c 0,3,4
 180 469 180 469 151.5 448.5 c 128,-1,5
 123 428 123 428 123 389 c 0,6,7
 123 358 123 358 144 338.5 c 128,-1,8
 165 319 165 319 196.5 311 c 128,-1,9
 228 303 228 303 264.5 292 c 128,-1,10
 301 281 301 281 332.5 268.5 c 128,-1,11
 364 256 364 256 385 225.5 c 128,-1,12
 406 195 406 195 406 150 c 0,13,14
 406 69 406 69 349.5 31 c 128,-1,15
 293 -7 293 -7 212 -7 c 0,16,17
 146 -7 146 -7 95.5 15 c 128,-1,18
 45 37 45 37 45 69 c 0,19,20
 45 94 45 94 90 116 c 1,21,22
 106 86 106 86 146.5 67 c 128,-1,23
 187 48 187 48 230 48 c 0,24,25
 274 48 274 48 306.5 69.5 c 128,-1,26
 339 91 339 91 339 131 c 0,27,28
 339 166 339 166 310 186.5 c 128,-1,29
 281 207 281 207 239.5 217 c 128,-1,30
 198 227 198 227 156.5 240.5 c 128,-1,31
 115 254 115 254 86 286.5 c 128,-1,32
 57 319 57 319 57 372 c 0,33,34
 57 446 57 446 108 485 c 128,-1,35
 159 524 159 524 238 524 c 0,36,37
 296 524 296 524 344.5 504.5 c 128,-1,38
 393 485 393 485 393 450 c 0,39,40
 393 414 393 414 342 404 c 1,0,1
EndSplineSet
EndChar

StartChar: t
Encoding: 116 116 87
Width: 418
GlyphClass: 2
Flags: W
LayerCount: 2
Fore
SplineSet
174 180 m 2,0,-1
 174 336 l 2,1,2
 174 382 174 382 172 460 c 1,3,4
 55 460 55 460 17 457 c 1,5,6
 15 462 15 462 15 482 c 0,7,8
 15 500 15 500 23.5 507 c 128,-1,9
 32 514 32 514 51 514 c 0,10,11
 59 514 59 514 90.5 514.5 c 128,-1,12
 122 515 122 515 142 515 c 2,13,-1
 239 515 l 2,14,15
 372 515 372 515 401 517 c 1,16,17
 403 507 403 507 403 493 c 0,18,19
 403 460 403 460 367 460 c 2,20,-1
 251 460 l 1,21,22
 251 449 251 449 249.5 422.5 c 128,-1,23
 248 396 248 396 247 368 c 128,-1,24
 246 340 246 340 246 315 c 2,25,-1
 246 158 l 2,26,27
 246 53 246 53 262 4 c 1,28,29
 247 -2 247 -2 218 -2 c 0,30,31
 191 -2 191 -2 181.5 8 c 128,-1,32
 172 18 172 18 172 42 c 0,33,34
 172 54 172 54 173 103 c 128,-1,35
 174 152 174 152 174 180 c 2,0,-1
EndSplineSet
EndChar

StartChar: u
Encoding: 117 117 88
Width: 580
GlyphClass: 2
Flags: W
LayerCount: 2
Fore
SplineSet
86 513 m 1,0,1
 104 519 104 519 128 519 c 0,2,3
 155 519 155 519 167.5 510 c 128,-1,4
 180 501 180 501 180 479 c 0,5,6
 180 446 180 446 173.5 334 c 128,-1,7
 167 222 167 222 167 159 c 0,8,9
 167 106 167 106 198 79 c 128,-1,10
 229 52 229 52 271 52 c 0,11,12
 309 52 309 52 351 70 c 128,-1,13
 393 88 393 88 419 112 c 1,14,15
 419 117 419 117 419.5 137.5 c 128,-1,16
 420 158 420 158 420 208 c 128,-1,17
 420 258 420 258 420 336 c 0,18,19
 420 440 420 440 414 516 c 1,20,21
 430 519 430 519 453 519 c 0,22,23
 499 519 499 519 499 489 c 0,24,25
 499 488 499 488 497.5 460.5 c 128,-1,26
 496 433 496 433 494 375 c 128,-1,27
 492 317 492 317 492 241 c 0,28,29
 492 120 492 120 494.5 79 c 128,-1,30
 497 38 497 38 508 3 c 1,31,32
 491 -2 491 -2 464 -2 c 0,33,34
 438 -2 438 -2 428 7.5 c 128,-1,35
 418 17 418 17 418 43 c 2,36,-1
 418 55 l 1,37,38
 385 28 385 28 340 10.5 c 128,-1,39
 295 -7 295 -7 257 -7 c 0,40,41
 181 -7 181 -7 136.5 27 c 128,-1,42
 92 61 92 61 92 149 c 0,43,44
 92 195 92 195 95.5 273.5 c 128,-1,45
 99 352 99 352 99 390 c 0,46,47
 99 466 99 466 86 513 c 1,0,1
EndSplineSet
EndChar

StartChar: v
Encoding: 118 118 89
Width: 502
GlyphClass: 2
Flags: W
LayerCount: 2
Fore
SplineSet
402 519 m 1,0,1
 418 524 418 524 439 524 c 0,2,3
 464 524 464 524 473 515 c 128,-1,4
 482 506 482 506 482 481 c 0,5,6
 482 397 482 397 425 256 c 128,-1,7
 368 115 368 115 306 39 c 0,8,9
 283 12 283 12 269 5 c 128,-1,10
 255 -2 255 -2 227 -2 c 0,11,12
 215 -2 215 -2 206 0 c 1,13,14
 180 125 180 125 117 286.5 c 128,-1,15
 54 448 54 448 10 490 c 1,16,17
 42 518 42 518 75 518 c 0,18,19
 90 518 90 518 100 509 c 128,-1,20
 110 500 110 500 123 475 c 1,21,22
 152 414 152 414 194 291.5 c 128,-1,23
 236 169 236 169 260 81 c 1,24,25
 314 150 314 150 359.5 274 c 128,-1,26
 405 398 405 398 405 489 c 0,27,28
 405 507 405 507 402 519 c 1,0,1
EndSplineSet
EndChar

StartChar: w
Encoding: 119 119 90
Width: 809
GlyphClass: 2
Flags: W
LayerCount: 2
Fore
SplineSet
709 519 m 1,0,1
 725 524 725 524 748 524 c 0,2,3
 770 524 770 524 779.5 516 c 128,-1,4
 789 508 789 508 789 488 c 0,5,6
 789 400 789 400 733.5 256.5 c 128,-1,7
 678 113 678 113 619 40 c 0,8,9
 599 15 599 15 584 6.5 c 128,-1,10
 569 -2 569 -2 549 -2 c 128,-1,11
 529 -2 529 -2 520 0 c 1,12,13
 492 134 492 134 429 297 c 1,14,15
 371 131 371 131 297 40 c 0,16,17
 277 15 277 15 262 6.5 c 128,-1,18
 247 -2 247 -2 227 -2 c 0,19,20
 208 -2 208 -2 198 0 c 1,21,22
 174 124 174 124 113 286 c 128,-1,23
 52 448 52 448 10 490 c 1,24,25
 42 519 42 519 74 519 c 0,26,27
 102 519 102 519 118 485 c 0,28,29
 149 419 149 419 188.5 298 c 128,-1,30
 228 177 228 177 252 81 c 1,31,32
 302 147 302 147 346 271 c 128,-1,33
 390 395 390 395 390 480 c 0,34,35
 390 508 390 508 387 519 c 1,36,37
 403 524 403 524 426 524 c 0,38,39
 448 524 448 524 457.5 516 c 128,-1,40
 467 508 467 508 467 488 c 0,41,42
 467 461 467 461 458 414 c 1,43,44
 515 307 515 307 574 81 c 1,45,46
 623 148 623 148 667.5 271.5 c 128,-1,47
 712 395 712 395 712 480 c 0,48,49
 712 508 712 508 709 519 c 1,0,1
EndSplineSet
EndChar

StartChar: x
Encoding: 120 120 91
Width: 497
GlyphClass: 2
Flags: W
LayerCount: 2
Fore
SplineSet
31 33 m 0,0,1
 31 88 31 88 216 268 c 1,2,3
 81 455 81 455 36 489 c 1,4,5
 68 524 68 524 103 524 c 0,6,7
 128 524 128 524 153 490 c 1,8,9
 186 449 186 449 264 323 c 1,10,11
 305 370 305 370 338.5 427.5 c 128,-1,12
 372 485 372 485 380 524 c 1,13,14
 451 515 451 515 451 480 c 0,15,16
 451 454 451 454 402.5 391.5 c 128,-1,17
 354 329 354 329 296 271 c 1,18,19
 433 63 433 63 490 27 c 1,20,21
 458 -7 458 -7 427 -7 c 0,22,23
 400 -7 400 -7 378 22 c 0,24,25
 320 95 320 95 247 215 c 1,26,27
 199 163 199 163 156 99.5 c 128,-1,28
 113 36 113 36 101 -7 c 1,29,30
 31 -1 31 -1 31 33 c 0,0,1
EndSplineSet
EndChar

StartChar: y
Encoding: 121 121 92
Width: 424
GlyphClass: 2
Flags: W
LayerCount: 2
Fore
SplineSet
416 484 m 0,0,1
 416 460 416 460 359 378 c 128,-1,2
 302 296 302 296 251 237 c 1,3,-1
 251 162 l 2,4,5
 251 56 251 56 266 4 c 1,6,7
 251 -2 251 -2 222 -2 c 0,8,9
 195 -2 195 -2 186 8 c 128,-1,10
 177 18 177 18 177 42 c 0,11,12
 177 45 177 45 177.5 95.5 c 128,-1,13
 178 146 178 146 178 180 c 2,14,-1
 178 233 l 1,15,16
 61 441 61 441 0 480 c 1,17,18
 34 520 34 520 60 520 c 0,19,20
 85 520 85 520 104 493 c 0,21,22
 166 406 166 406 227 292 c 1,23,24
 267 347 267 347 306 422 c 128,-1,25
 345 497 345 497 347 524 c 1,26,27
 416 520 416 520 416 484 c 0,0,1
EndSplineSet
EndChar

StartChar: z
Encoding: 122 122 93
Width: 471
GlyphClass: 2
Flags: W
LayerCount: 2
Fore
SplineSet
433 505 m 1,0,1
 446 490 446 490 446 474 c 0,2,3
 446 455 446 455 432 438 c 2,4,-1
 104 49 l 1,5,6
 132 47 132 47 162 47 c 0,7,8
 320 47 320 47 424 72 c 1,9,10
 432 48 432 48 432 36 c 0,11,12
 432 16 432 16 417.5 9.5 c 128,-1,13
 403 3 403 3 372 0 c 0,14,15
 328 -4 328 -4 240 -4 c 0,16,17
 127 -4 127 -4 47 4 c 1,18,19
 32 24 32 24 32 43 c 0,20,21
 32 69 32 69 52 92 c 2,22,-1
 358 462 l 1,23,24
 331 465 331 465 267 465 c 0,25,26
 150 465 150 465 60 444 c 1,27,28
 52 466 52 466 52 481 c 0,29,30
 52 505 52 505 75 512 c 1,31,32
 109 520 109 520 181 520 c 0,33,34
 328 520 328 520 433 505 c 1,0,1
EndSplineSet
EndChar

StartChar: braceleft
Encoding: 123 123 94
Width: 426
GlyphClass: 2
Flags: W
LayerCount: 2
Fore
SplineSet
182 286 m 1,0,1
 207 277 207 277 229 244 c 128,-1,2
 251 211 251 211 251 180 c 2,3,-1
 251 -19 l 2,4,5
 251 -40 251 -40 252.5 -49 c 128,-1,6
 254 -58 254 -58 261 -67.5 c 128,-1,7
 268 -77 268 -77 283.5 -80 c 128,-1,8
 299 -83 299 -83 327 -83 c 0,9,10
 352 -83 352 -83 363.5 -90.5 c 128,-1,11
 375 -98 375 -98 375 -118 c 0,12,13
 375 -133 375 -133 371 -141 c 1,14,15
 358 -142 358 -142 335 -142 c 0,16,17
 248 -142 248 -142 216 -115.5 c 128,-1,18
 184 -89 184 -89 184 -31 c 2,19,-1
 184 178 l 2,20,21
 184 208 184 208 155 234.5 c 128,-1,22
 126 261 126 261 70 261 c 1,23,-1
 70 311 l 1,24,25
 126 311 126 311 155.5 338 c 128,-1,26
 185 365 185 365 185 395 c 2,27,-1
 185 604 l 2,28,29
 185 662 185 662 216.5 688.5 c 128,-1,30
 248 715 248 715 335 715 c 0,31,32
 358 715 358 715 371 714 c 1,33,34
 375 706 375 706 375 691 c 0,35,36
 375 671 375 671 363.5 663.5 c 128,-1,37
 352 656 352 656 327 656 c 0,38,39
 275 656 275 656 262.5 643 c 128,-1,40
 250 630 250 630 250 592 c 2,41,-1
 250 393 l 2,42,43
 250 362 250 362 228.5 328.5 c 128,-1,44
 207 295 207 295 182 286 c 1,0,1
EndSplineSet
EndChar

StartChar: bar
Encoding: 124 124 95
Width: 535
GlyphClass: 2
Flags: W
LayerCount: 2
Fore
SplineSet
237 136 m 2,0,-1
 237 444 l 2,1,2
 237 680 237 680 229 733 c 1,3,4
 245 736 245 736 259 736 c 0,5,6
 305 736 305 736 305 698 c 0,7,8
 305 694 305 694 303.5 644.5 c 128,-1,9
 302 595 302 595 300 513.5 c 128,-1,10
 298 432 298 432 298 351 c 2,11,-1
 298 43 l 2,12,13
 298 -193 298 -193 306 -246 c 1,14,15
 290 -249 290 -249 276 -249 c 0,16,17
 230 -249 230 -249 230 -211 c 0,18,19
 230 -207 230 -207 232 -157.5 c 128,-1,20
 234 -108 234 -108 235.5 -26.5 c 128,-1,21
 237 55 237 55 237 136 c 2,0,-1
EndSplineSet
EndChar

StartChar: braceright
Encoding: 125 125 96
Width: 404
GlyphClass: 2
Flags: W
LayerCount: 2
Fore
SplineSet
223 286 m 1,0,1
 198 295 198 295 176.5 328.5 c 128,-1,2
 155 362 155 362 155 393 c 2,3,-1
 155 592 l 2,4,5
 155 612 155 612 153.5 621.5 c 128,-1,6
 152 631 152 631 144.5 640.5 c 128,-1,7
 137 650 137 650 121.5 653 c 128,-1,8
 106 656 106 656 78 656 c 0,9,10
 53 656 53 656 41.5 663.5 c 128,-1,11
 30 671 30 671 30 691 c 0,12,13
 30 706 30 706 34 714 c 1,14,15
 47 715 47 715 70 715 c 0,16,17
 157 715 157 715 188.5 688.5 c 128,-1,18
 220 662 220 662 220 604 c 2,19,-1
 220 395 l 2,20,21
 220 365 220 365 249.5 338 c 128,-1,22
 279 311 279 311 335 311 c 1,23,-1
 335 261 l 1,24,25
 279 261 279 261 250 234.5 c 128,-1,26
 221 208 221 208 221 178 c 2,27,-1
 221 -31 l 2,28,29
 221 -89 221 -89 189 -115.5 c 128,-1,30
 157 -142 157 -142 70 -142 c 0,31,32
 47 -142 47 -142 34 -141 c 1,33,34
 30 -133 30 -133 30 -118 c 0,35,36
 30 -98 30 -98 41.5 -90.5 c 128,-1,37
 53 -83 53 -83 78 -83 c 0,38,39
 106 -83 106 -83 121.5 -80 c 128,-1,40
 137 -77 137 -77 144 -67.5 c 128,-1,41
 151 -58 151 -58 152.5 -49 c 128,-1,42
 154 -40 154 -40 154 -19 c 2,43,-1
 154 180 l 2,44,45
 154 211 154 211 176 244 c 128,-1,46
 198 277 198 277 223 286 c 1,0,1
EndSplineSet
EndChar

StartChar: asciitilde
Encoding: 126 126 97
Width: 546
GlyphClass: 2
Flags: W
LayerCount: 2
Fore
SplineSet
40 267 m 0,0,1
 40 329 40 329 138 329 c 0,2,3
 189 329 189 329 268.5 309 c 128,-1,4
 348 289 348 289 385 289 c 0,5,6
 451 289 451 289 487 324 c 1,7,8
 506 299 506 299 506 275 c 0,9,10
 506 243 506 243 470 228 c 128,-1,11
 434 213 434 213 385 213 c 0,12,13
 354 213 354 213 278 233 c 128,-1,14
 202 253 202 253 161 253 c 0,15,16
 95 253 95 253 59 218 c 1,17,18
 40 243 40 243 40 267 c 0,0,1
EndSplineSet
EndChar

StartChar: exclamdown
Encoding: 161 161 98
Width: 261
GlyphClass: 2
Flags: W
LayerCount: 2
Fore
SplineSet
140 526 m 128,-1,1
 165 526 165 526 183 508 c 128,-1,2
 201 490 201 490 201 463 c 128,-1,3
 201 436 201 436 183 417.5 c 128,-1,4
 165 399 165 399 140 399 c 128,-1,5
 115 399 115 399 97.5 417.5 c 128,-1,6
 80 436 80 436 80 463 c 128,-1,7
 80 490 80 490 97.5 508 c 128,-1,0
 115 526 115 526 140 526 c 128,-1,1
101 -6 m 0,8,9
 101 15 101 15 110 77.5 c 128,-1,10
 119 140 119 140 119 193 c 2,11,-1
 119 226 l 2,12,13
 119 285 119 285 103 317 c 1,14,15
 123 327 123 327 140 327 c 0,16,17
 180 327 180 327 181 290 c 0,18,19
 182 280 182 280 182 206.5 c 128,-1,20
 182 133 182 133 186 65 c 128,-1,21
 190 -3 190 -3 200 -34 c 1,22,23
 172 -44 172 -44 148 -44 c 0,24,25
 101 -44 101 -44 101 -6 c 0,8,9
EndSplineSet
EndChar

StartChar: cent
Encoding: 162 162 99
Width: 535
GlyphClass: 2
Flags: W
LayerCount: 2
Fore
SplineSet
272 50 m 1,0,-1
 272 411 l 1,1,2
 215 396 215 396 179 351 c 128,-1,3
 143 306 143 306 143 230 c 128,-1,4
 143 154 143 154 179 109 c 128,-1,5
 215 64 215 64 272 50 c 1,0,-1
434 348 m 1,6,7
 410 381 410 381 384 399 c 128,-1,8
 358 417 358 417 317 417 c 2,9,-1
 311 417 l 1,10,-1
 311 44 l 1,11,-1
 321 44 l 2,12,13
 385 44 385 44 434 113 c 1,14,15
 477 103 477 103 477 69 c 0,16,17
 477 31 477 31 423 9.5 c 128,-1,18
 369 -12 369 -12 319 -12 c 2,19,-1
 311 -12 l 1,20,21
 312 -46 312 -46 316 -96 c 1,22,-1
 301 -98 l 1,23,24
 272 -98 272 -98 272 -71 c 2,25,-1
 272 -9 l 1,26,27
 184 4 184 4 125.5 63.5 c 128,-1,28
 67 123 67 123 67 232 c 0,29,30
 67 337 67 337 125.5 396.5 c 128,-1,31
 184 456 184 456 271 469 c 1,32,33
 271 508 271 508 267 564 c 1,34,35
 278 567 278 567 284 567 c 0,36,37
 311 567 311 567 311 540 c 2,38,-1
 311 473 l 1,39,-1
 319 473 l 2,40,41
 369 473 369 473 423 451.5 c 128,-1,42
 477 430 477 430 477 392 c 0,43,44
 477 358 477 358 434 348 c 1,6,7
EndSplineSet
EndChar

StartChar: sterling
Encoding: 163 163 100
Width: 535
GlyphClass: 2
Flags: W
LayerCount: 2
Fore
SplineSet
408 337 m 1,0,1
 412 329 412 329 412 314 c 0,2,3
 412 292 412 292 399.5 285.5 c 128,-1,4
 387 279 387 279 360 279 c 0,5,6
 318 279 318 279 294 280 c 1,7,8
 297 265 297 265 297 250 c 0,9,10
 297 158 297 158 147 55 c 1,11,12
 170 52 170 52 231 52 c 0,13,14
 365 52 365 52 451 84 c 1,15,16
 466 62 466 62 466 44 c 0,17,18
 466 21 466 21 439 10 c 1,19,20
 403 -3 403 -3 293 -3 c 0,21,22
 143 -3 143 -3 77 9 c 1,23,24
 68 21 68 21 68 38 c 0,25,26
 68 45 68 45 69 49 c 1,27,28
 139 85 139 85 178.5 137 c 128,-1,29
 218 189 218 189 218 234 c 0,30,31
 218 254 218 254 209 283 c 1,32,33
 145 283 145 283 98 279 c 1,34,35
 95 288 95 288 95 295 c 0,36,37
 95 318 95 318 126 320 c 0,38,39
 136 320 136 320 161 321.5 c 128,-1,40
 186 323 186 323 193 323 c 1,41,42
 188 333 188 333 177 353 c 128,-1,43
 166 373 166 373 160.5 384 c 128,-1,44
 155 395 155 395 150 411.5 c 128,-1,45
 145 428 145 428 145 442 c 0,46,47
 145 493 145 493 188.5 536.5 c 128,-1,48
 232 580 232 580 299 580 c 0,49,50
 328 580 328 580 352.5 565.5 c 128,-1,51
 377 551 377 551 377 525 c 128,-1,52
 377 499 377 499 343 483 c 1,53,54
 321 517 321 517 276 517 c 0,55,56
 249 517 249 517 230 502.5 c 128,-1,57
 211 488 211 488 211 461 c 0,58,59
 211 443 211 443 221 422 c 128,-1,60
 231 401 231 401 249.5 372.5 c 128,-1,61
 268 344 268 344 277 326 c 1,62,63
 365 331 365 331 408 337 c 1,0,1
EndSplineSet
EndChar

StartChar: yen
Encoding: 165 165 101
Width: 535
GlyphClass: 2
Flags: W
LayerCount: 2
Fore
SplineSet
297 236 m 1,0,-1
 297 183 l 1,1,2
 404 183 404 183 461 188 c 1,3,-1
 463 173 l 1,4,5
 463 144 463 144 436 144 c 2,6,-1
 297 144 l 1,7,8
 299 42 299 42 315 -2 c 1,9,10
 299 -10 299 -10 277 -10 c 0,11,12
 228 -10 228 -10 228 39 c 1,13,14
 229 87 229 87 229 144 c 1,15,-1
 207 144 l 2,16,17
 122 144 122 144 66 139 c 1,18,19
 63 150 63 150 63 156 c 0,20,21
 63 183 63 183 90 183 c 2,22,-1
 230 183 l 1,23,-1
 230 233 l 1,24,-1
 224 244 l 1,25,-1
 207 244 l 2,26,27
 122 244 122 244 66 239 c 1,28,29
 63 249 63 249 63 256 c 0,30,31
 63 283 63 283 90 283 c 2,32,-1
 203 283 l 1,33,34
 164 355 164 355 135 401 c 0,35,36
 75 496 75 496 23 536 c 1,37,38
 48 576 48 576 81 576 c 0,39,40
 101 576 101 576 123 542 c 0,41,42
 203 424 203 424 276 290 c 1,43,44
 320 349 320 349 370 446.5 c 128,-1,45
 420 544 420 544 422 579 c 1,46,47
 426 580 426 580 436 580 c 0,48,49
 483 580 483 580 483 541 c 0,50,51
 483 521 483 521 434.5 434.5 c 128,-1,52
 386 348 386 348 337 283 c 1,53,54
 401 283 401 283 461 288 c 1,55,-1
 463 273 l 1,56,57
 463 244 463 244 436 244 c 2,58,-1
 305 244 l 1,59,-1
 297 236 l 1,0,-1
EndSplineSet
EndChar

StartChar: brokenbar
Encoding: 166 166 102
Width: 535
GlyphClass: 2
Flags: W
LayerCount: 2
Fore
SplineSet
237 534 m 2,0,-1
 237 564 l 2,1,2
 237 681 237 681 229 734 c 1,3,4
 245 737 245 737 259 737 c 0,5,6
 305 737 305 737 305 699 c 0,7,8
 305 694 305 694 301.5 627 c 128,-1,9
 298 560 298 560 298 528 c 2,10,-1
 298 489 l 2,11,12
 298 369 298 369 306 297 c 1,13,14
 290 294 290 294 276 294 c 0,15,16
 230 294 230 294 230 332 c 0,17,18
 230 337 230 337 233.5 419 c 128,-1,19
 237 501 237 501 237 534 c 2,0,-1
237 -9 m 2,20,-1
 237 22 l 2,21,22
 237 139 237 139 229 192 c 1,23,24
 245 195 245 195 259 195 c 0,25,26
 305 195 305 195 305 157 c 0,27,28
 305 152 305 152 301.5 85.5 c 128,-1,29
 298 19 298 19 298 -14 c 2,30,-1
 298 -54 l 2,31,32
 298 -174 298 -174 306 -246 c 1,33,34
 290 -249 290 -249 276 -249 c 0,35,36
 230 -249 230 -249 230 -211 c 0,37,38
 230 -206 230 -206 233.5 -124 c 128,-1,39
 237 -42 237 -42 237 -9 c 2,20,-1
EndSplineSet
EndChar

StartChar: section
Encoding: 167 167 103
Width: 445
GlyphClass: 2
Flags: W
LayerCount: 2
Fore
SplineSet
115 351 m 0,0,1
 115 311 115 311 148 286 c 128,-1,2
 181 261 181 261 237.5 236 c 128,-1,3
 294 211 294 211 321 188 c 1,4,5
 335 211 335 211 335 243 c 0,6,7
 335 276 335 276 312.5 299.5 c 128,-1,8
 290 323 290 323 261 334.5 c 128,-1,9
 232 346 232 346 192.5 365 c 128,-1,10
 153 384 153 384 129 406 c 1,11,12
 115 384 115 384 115 351 c 0,0,1
55 333 m 0,13,14
 55 397 55 397 102 439 c 1,15,16
 77 488 77 488 77 532 c 0,17,18
 77 594 77 594 123 633 c 128,-1,19
 169 672 169 672 244 672 c 0,20,21
 291 672 291 672 336 651 c 128,-1,22
 381 630 381 630 381 593 c 0,23,24
 381 562 381 562 336 551 c 1,25,26
 325 580 325 580 291 598 c 128,-1,27
 257 616 257 616 220 616 c 0,28,29
 184 616 184 616 160 598.5 c 128,-1,30
 136 581 136 581 136 546 c 128,-1,31
 136 511 136 511 155 485.5 c 128,-1,32
 174 460 174 460 203 446 c 128,-1,33
 232 432 232 432 265.5 415 c 128,-1,34
 299 398 299 398 328 381.5 c 128,-1,35
 357 365 357 365 376 334 c 128,-1,36
 395 303 395 303 395 261 c 0,37,38
 395 199 395 199 349 155 c 1,39,40
 375 112 375 112 375 68 c 0,41,42
 375 7 375 7 329 -35.5 c 128,-1,43
 283 -78 283 -78 201 -78 c 0,44,45
 140 -78 140 -78 92.5 -55 c 128,-1,46
 45 -32 45 -32 45 2 c 0,47,48
 45 31 45 31 90 44 c 1,49,50
 113 -21 113 -21 223 -21 c 0,51,52
 263 -21 263 -21 288 -2.5 c 128,-1,53
 313 16 313 16 313 57 c 0,54,55
 313 96 313 96 286.5 123 c 128,-1,56
 260 150 260 150 222 166.5 c 128,-1,57
 184 183 184 183 146 200.5 c 128,-1,58
 108 218 108 218 81.5 251 c 128,-1,59
 55 284 55 284 55 333 c 0,13,14
EndSplineSet
EndChar

StartChar: dieresis
Encoding: 168 168 104
Width: 257
GlyphClass: 2
Flags: W
LayerCount: 2
Fore
SplineSet
216 521 m 0,0,1
 195 521 195 521 180 536 c 128,-1,2
 165 551 165 551 165 575 c 0,3,4
 165 597 165 597 181 612.5 c 128,-1,5
 197 628 197 628 218 628 c 0,6,7
 238 628 238 628 253 612.5 c 128,-1,8
 268 597 268 597 268 575 c 0,9,10
 268 552 268 552 252 536.5 c 128,-1,11
 236 521 236 521 216 521 c 0,0,1
38 521 m 0,12,13
 17 521 17 521 2 536 c 128,-1,14
 -13 551 -13 551 -13 575 c 0,15,16
 -13 597 -13 597 3 612.5 c 128,-1,17
 19 628 19 628 40 628 c 0,18,19
 60 628 60 628 75 612.5 c 128,-1,20
 90 597 90 597 90 575 c 0,21,22
 90 552 90 552 74 536.5 c 128,-1,23
 58 521 58 521 38 521 c 0,12,13
EndSplineSet
EndChar

StartChar: copyright
Encoding: 169 169 105
Width: 888
GlyphClass: 2
Flags: W
LayerCount: 2
Fore
SplineSet
617 157 m 0,0,1
 617 133 617 133 580 115.5 c 128,-1,2
 543 98 543 98 493 98 c 0,3,4
 455 98 455 98 419.5 109.5 c 128,-1,5
 384 121 384 121 352.5 145.5 c 128,-1,6
 321 170 321 170 302 214.5 c 128,-1,7
 283 259 283 259 283 318 c 0,8,9
 283 431 283 431 345.5 489.5 c 128,-1,10
 408 548 408 548 487 548 c 0,11,12
 514 548 514 548 542.5 540 c 128,-1,13
 571 532 571 532 594.5 512.5 c 128,-1,14
 618 493 618 493 618 467 c 0,15,16
 618 433 618 433 575 427 c 1,17,18
 566 458 566 458 538.5 473.5 c 128,-1,19
 511 489 511 489 480 489 c 0,20,21
 432 489 432 489 399.5 445 c 128,-1,22
 367 401 367 401 367 330 c 0,23,24
 367 240 367 240 407 198.5 c 128,-1,25
 447 157 447 157 502 157 c 0,26,27
 561 157 561 157 588 195 c 1,28,29
 617 179 617 179 617 157 c 0,0,1
750 320 m 0,30,31
 750 452 750 452 670.5 534.5 c 128,-1,32
 591 617 591 617 477 617 c 0,33,34
 361 617 361 617 281.5 535 c 128,-1,35
 202 453 202 453 202 320 c 128,-1,36
 202 187 202 187 281.5 105 c 128,-1,37
 361 23 361 23 477 23 c 0,38,39
 591 23 591 23 670.5 105 c 128,-1,40
 750 187 750 187 750 320 c 0,30,31
822 320 m 0,41,42
 822 170 822 170 721.5 68 c 128,-1,43
 621 -34 621 -34 477 -34 c 0,44,45
 330 -34 330 -34 230 67.5 c 128,-1,46
 130 169 130 169 130 320 c 0,47,48
 130 472 130 472 230 573 c 128,-1,49
 330 674 330 674 477 674 c 0,50,51
 622 674 622 674 722 573 c 128,-1,52
 822 472 822 472 822 320 c 0,41,42
EndSplineSet
EndChar

StartChar: ordfeminine
Encoding: 170 170 106
Width: 317
GlyphClass: 2
Flags: W
LayerCount: 2
Fore
SplineSet
177 278 m 0,0,1
 264 278 264 278 304 285 c 1,2,3
 307 275 307 275 307 265 c 0,4,5
 307 247 307 247 297.5 236.5 c 128,-1,6
 288 226 288 226 271 226 c 0,7,8
 261 226 261 226 224 230 c 128,-1,9
 187 234 187 234 168 234 c 0,10,11
 91 234 91 234 33 226 c 1,12,13
 30 238 30 238 30 251 c 128,-1,14
 30 264 30 264 39 274.5 c 128,-1,15
 48 285 48 285 66 285 c 0,16,17
 68 285 68 285 108 281.5 c 128,-1,18
 148 278 148 278 177 278 c 0,0,1
170 458 m 2,19,-1
 205 458 l 1,20,21
 190 492 190 492 164 568 c 1,22,23
 137 491 137 491 123 459 c 1,24,25
 142 458 142 458 170 458 c 2,19,-1
162 424 m 128,-1,27
 130 424 130 424 110 425 c 1,28,29
 79 347 79 347 77 339 c 1,30,31
 36 343 36 343 36 355 c 0,32,33
 36 360 36 360 41 372 c 128,-1,34
 46 384 46 384 58 411.5 c 128,-1,35
 70 439 70 439 81 468 c 0,36,37
 122 572 122 572 134 614 c 1,38,39
 154 616 154 616 159 616 c 0,40,41
 178 616 178 616 186 612.5 c 128,-1,42
 194 609 194 609 202 594 c 1,43,44
 206 584 206 584 224 534 c 128,-1,45
 242 484 242 484 253 458 c 0,46,47
 280 394 280 394 303 351 c 1,48,49
 284 344 284 344 275 344 c 0,50,51
 249 344 249 344 244 359 c 128,-1,52
 239 374 239 374 218 425 c 1,53,26
 194 424 194 424 162 424 c 128,-1,27
EndSplineSet
EndChar

StartChar: guillemotleft
Encoding: 171 171 107
Width: 474
GlyphClass: 2
Flags: W
LayerCount: 2
Fore
SplineSet
308 235 m 1,0,1
 343 192 343 192 378.5 139 c 128,-1,2
 414 86 414 86 414 72 c 0,3,4
 414 59 414 59 394 44 c 1,5,6
 328 99 328 99 229 235 c 1,7,8
 328 371 328 371 394 426 c 1,9,10
 414 411 414 411 414 398 c 0,11,12
 414 384 414 384 378.5 331 c 128,-1,13
 343 278 343 278 308 235 c 1,0,1
119 235 m 1,14,15
 154 192 154 192 189.5 139 c 128,-1,16
 225 86 225 86 225 72 c 0,17,18
 225 59 225 59 205 44 c 1,19,20
 139 99 139 99 40 235 c 1,21,22
 139 371 139 371 205 426 c 1,23,24
 225 411 225 411 225 398 c 0,25,26
 225 384 225 384 189.5 331 c 128,-1,27
 154 278 154 278 119 235 c 1,14,15
EndSplineSet
EndChar

StartChar: logicalnot
Encoding: 172 172 108
Width: 535
GlyphClass: 2
Flags: W
LayerCount: 2
Fore
SplineSet
447 324 m 1,0,-1
 449 102 l 2,1,2
 449 74 449 74 440 62.5 c 128,-1,3
 431 51 431 51 405 51 c 0,4,5
 387 51 387 51 371 59 c 1,6,7
 388 115 388 115 388 236 c 2,8,-1
 388 272 l 1,9,-1
 157 272 l 2,10,11
 101 272 101 272 57 257 c 1,12,13
 50 274 50 274 50 287 c 0,14,15
 50 324 50 324 92 324 c 2,16,-1
 447 324 l 1,0,-1
EndSplineSet
EndChar

StartChar: registered
Encoding: 174 174 109
Width: 607
GlyphClass: 2
Flags: W
LayerCount: 2
Fore
SplineSet
498 440 m 128,-1,1
 498 522 498 522 449 572.5 c 128,-1,2
 400 623 400 623 329 623 c 0,3,4
 257 623 257 623 208 572.5 c 128,-1,5
 159 522 159 522 159 440 c 128,-1,6
 159 358 159 358 208 307.5 c 128,-1,7
 257 257 257 257 329 257 c 0,8,9
 400 257 400 257 449 307.5 c 128,-1,0
 498 358 498 358 498 440 c 128,-1,1
557 440 m 128,-1,11
 557 341 557 341 490.5 274 c 128,-1,12
 424 207 424 207 329 207 c 0,13,14
 232 207 232 207 166 274 c 128,-1,15
 100 341 100 341 100 440 c 0,16,17
 100 540 100 540 166 606.5 c 128,-1,18
 232 673 232 673 329 673 c 0,19,20
 424 673 424 673 490.5 606 c 128,-1,10
 557 539 557 539 557 440 c 128,-1,11
410 360 m 0,21,22
 418 352 418 352 432 352 c 1,23,24
 434 348 434 348 434 341 c 0,25,26
 434 323 434 323 410 323 c 0,27,28
 383 323 383 323 366 348 c 0,29,30
 363 353 363 353 342.5 380.5 c 128,-1,31
 322 408 322 408 315 420 c 1,32,33
 303 420 303 420 293 423 c 1,34,-1
 293 397 l 2,35,36
 293 353 293 353 301 330 c 1,37,38
 292 325 292 325 271 325 c 0,39,40
 240 325 240 325 240 348 c 0,41,42
 240 351 240 351 241 374 c 128,-1,43
 242 397 242 397 242 408 c 2,44,-1
 242 477 l 2,45,46
 242 529 242 529 238 558 c 1,47,48
 300 563 300 563 319 563 c 0,49,50
 427 563 427 563 427 491 c 0,51,52
 427 437 427 437 363 424 c 1,53,54
 383 390 383 390 410 360 c 0,21,22
320 445 m 0,55,56
 344 445 344 445 360.5 456 c 128,-1,57
 377 467 377 467 377 491 c 0,58,59
 377 531 377 531 315 531 c 0,60,61
 308 531 308 531 292 529 c 1,62,63
 293 519 293 519 293 449 c 1,64,65
 313 445 313 445 320 445 c 0,55,56
EndSplineSet
EndChar

StartChar: macron
Encoding: 175 175 110
Width: 272
GlyphClass: 2
Flags: W
LayerCount: 2
Fore
SplineSet
272 588 m 0,0,1
 272 551 272 551 242 551 c 0,2,3
 239 551 239 551 221.5 552.5 c 128,-1,4
 204 554 204 554 177.5 555.5 c 128,-1,5
 151 557 151 557 128 557 c 2,6,-1
 106 557 l 2,7,8
 46 557 46 557 2 551 c 1,9,10
 0 561 0 561 0 578 c 0,11,12
 0 615 0 615 30 615 c 0,13,14
 33 615 33 615 73 612 c 128,-1,15
 113 609 113 609 132 609 c 2,16,-1
 154 609 l 2,17,18
 220 609 220 609 270 615 c 1,19,20
 272 602 272 602 272 588 c 0,0,1
EndSplineSet
EndChar

StartChar: degree
Encoding: 176 176 111
Width: 406
GlyphClass: 2
Flags: W
LayerCount: 2
Fore
SplineSet
110 547 m 128,-1,1
 110 501 110 501 133 472 c 128,-1,2
 156 443 156 443 199 443 c 128,-1,3
 242 443 242 443 266 473.5 c 128,-1,4
 290 504 290 504 290 551 c 0,5,6
 290 596 290 596 267.5 625.5 c 128,-1,7
 245 655 245 655 203 655 c 0,8,9
 159 655 159 655 134.5 624 c 128,-1,0
 110 593 110 593 110 547 c 128,-1,1
48 547 m 0,10,11
 48 614 48 614 91.5 658.5 c 128,-1,12
 135 703 135 703 204 703 c 0,13,14
 269 703 269 703 311 659.5 c 128,-1,15
 353 616 353 616 353 552 c 0,16,17
 353 483 353 483 310 439 c 128,-1,18
 267 395 267 395 199 395 c 0,19,20
 133 395 133 395 90.5 438 c 128,-1,21
 48 481 48 481 48 547 c 0,10,11
EndSplineSet
EndChar

StartChar: plusminus
Encoding: 177 177 112
Width: 535
GlyphClass: 2
Flags: W
LayerCount: 2
Fore
SplineSet
456 48 m 0,0,1
 456 30 456 30 446 18 c 128,-1,2
 436 6 436 6 420 6 c 128,-1,3
 404 6 404 6 348.5 10 c 128,-1,4
 293 14 293 14 264 14 c 0,5,6
 150 14 150 14 62 6 c 1,7,8
 59 21 59 21 59 36 c 0,9,10
 59 52 59 52 68 65 c 128,-1,11
 77 78 77 78 95 78 c 0,12,13
 98 78 98 78 158 74.5 c 128,-1,14
 218 71 218 71 262 71 c 0,15,16
 392 71 392 71 453 78 c 1,17,18
 456 69 456 69 456 48 c 0,0,1
296 320 m 1,19,20
 404 320 404 320 473 328 c 1,21,22
 476 319 476 319 476 298 c 0,23,24
 476 280 476 280 466 268 c 128,-1,25
 456 256 456 256 440 256 c 0,26,27
 423 256 423 256 371.5 259.5 c 128,-1,28
 320 263 320 263 295 263 c 1,29,30
 295 204 295 204 303 116 c 1,31,32
 288 113 288 113 273 113 c 0,33,34
 256 113 256 113 243.5 122.5 c 128,-1,35
 231 132 231 132 231 149 c 0,36,37
 231 155 231 155 234 187 c 128,-1,38
 237 219 237 219 238 264 c 1,39,40
 151 263 151 263 62 256 c 1,41,42
 59 271 59 271 59 286 c 0,43,44
 59 302 59 302 68 315 c 128,-1,45
 77 328 77 328 95 328 c 0,46,47
 102 328 102 328 149.5 325 c 128,-1,48
 197 322 197 322 239 321 c 1,49,50
 239 409 239 409 231 478 c 1,51,52
 240 481 240 481 261 481 c 0,53,54
 279 481 279 481 291 471 c 128,-1,55
 303 461 303 461 303 445 c 0,56,57
 303 428 303 428 299.5 386.5 c 128,-1,58
 296 345 296 345 296 320 c 1,19,20
EndSplineSet
EndChar

StartChar: twosuperior
Encoding: 178 178 113
Width: 450
GlyphClass: 2
Flags: W
LayerCount: 2
Fore
SplineSet
105 549 m 1,0,1
 73 552 73 552 73 577 c 0,2,3
 73 608 73 608 118.5 640.5 c 128,-1,4
 164 673 164 673 219 673 c 0,5,6
 280 673 280 673 317 639 c 128,-1,7
 354 605 354 605 354 551 c 0,8,9
 354 488 354 488 297 415 c 128,-1,10
 240 342 240 342 124 275 c 1,11,12
 153 274 153 274 209 274 c 0,13,14
 318 274 318 274 372 298 c 1,15,16
 385 278 385 278 385 258 c 0,17,18
 385 241 385 241 362 232 c 0,19,20
 330 220 330 220 226 220 c 0,21,22
 152 220 152 220 102 222 c 1,23,24
 60 222 60 222 60 262 c 0,25,26
 60 276 60 276 61 279 c 1,27,28
 173 345 173 345 231 415.5 c 128,-1,29
 289 486 289 486 289 543 c 0,30,31
 289 578 289 578 266 600 c 128,-1,32
 243 622 243 622 206 622 c 0,33,34
 180 622 180 622 151 601 c 128,-1,35
 122 580 122 580 105 549 c 1,0,1
EndSplineSet
EndChar

StartChar: threesuperior
Encoding: 179 179 114
Width: 424
GlyphClass: 2
Flags: W
LayerCount: 2
Fore
SplineSet
166 472 m 0,0,1
 224 477 224 477 252.5 495 c 128,-1,2
 281 513 281 513 281 554 c 0,3,4
 281 587 281 587 264 604.5 c 128,-1,5
 247 622 247 622 205 622 c 0,6,7
 151 622 151 622 107 569 c 1,8,9
 75 575 75 575 75 601 c 0,10,11
 75 620 75 620 96 636 c 0,12,13
 145 673 145 673 209 673 c 0,14,15
 278 673 278 673 312 644 c 128,-1,16
 346 615 346 615 346 566 c 0,17,18
 346 486 346 486 260 458 c 1,19,20
 308 443 308 443 331 412.5 c 128,-1,21
 354 382 354 382 354 344 c 0,22,23
 354 290 354 290 310 249 c 128,-1,24
 266 208 266 208 184 208 c 0,25,26
 135 208 135 208 97.5 225 c 128,-1,27
 60 242 60 242 60 270 c 0,28,29
 60 291 60 291 88 300 c 1,30,31
 127 259 127 259 190 259 c 0,32,33
 234 259 234 259 261.5 281.5 c 128,-1,34
 289 304 289 304 289 344 c 0,35,36
 289 434 289 434 171 434 c 0,37,38
 163 434 163 434 158.5 435 c 128,-1,39
 154 436 154 436 150.5 441.5 c 128,-1,40
 147 447 147 447 147 457 c 0,41,42
 147 466 147 466 148 471 c 1,43,44
 159 471 159 471 166 472 c 0,0,1
EndSplineSet
EndChar

StartChar: acute
Encoding: 180 180 115
Width: 201
GlyphClass: 2
Flags: W
LayerCount: 2
Fore
SplineSet
226 619 m 0,0,1
 204 603 204 603 146.5 569.5 c 128,-1,2
 89 536 89 536 76 524 c 1,3,4
 60 538 60 538 60 553 c 0,5,6
 60 570 60 570 76 582.5 c 128,-1,7
 92 595 92 595 133.5 626 c 128,-1,8
 175 657 175 657 216 702 c 1,9,10
 251 682 251 682 251 656 c 0,11,12
 251 636 251 636 226 619 c 0,0,1
EndSplineSet
EndChar

StartChar: mu
Encoding: 181 181 116
Width: 513
GlyphClass: 2
Flags: W
LayerCount: 2
Fore
SplineSet
69 132 m 0,0,1
 69 135 69 135 70.5 204.5 c 128,-1,2
 72 274 72 274 72 309 c 0,3,4
 72 400 72 400 55 460 c 1,5,6
 75 468 75 468 94 468 c 0,7,8
 120 468 120 468 131.5 456.5 c 128,-1,9
 143 445 143 445 143 417 c 0,10,11
 143 381 143 381 140 279.5 c 128,-1,12
 137 178 137 178 137 158 c 0,13,14
 137 104 137 104 163.5 75 c 128,-1,15
 190 46 190 46 232 46 c 0,16,17
 304 46 304 46 367 101 c 1,18,19
 366 144 366 144 366 232 c 0,20,21
 366 378 366 378 359 465 c 1,22,23
 375 468 375 468 393 468 c 0,24,25
 438 468 438 468 438 430 c 0,26,27
 438 426 438 426 436 349 c 128,-1,28
 434 272 434 272 434 203 c 0,29,30
 434 76 434 76 453 5 c 1,31,32
 433 -3 433 -3 416 -3 c 0,33,34
 370 -3 370 -3 370 47 c 1,35,36
 340 22 340 22 298 6 c 128,-1,37
 256 -10 256 -10 216 -10 c 0,38,39
 161 -10 161 -10 127 20 c 1,40,41
 119 -14 119 -14 119 -51 c 0,42,43
 119 -141 119 -141 156 -245 c 1,44,45
 138 -253 138 -253 116 -253 c 0,46,47
 87 -253 87 -253 77 -240 c 128,-1,48
 67 -227 67 -227 67 -196 c 0,49,50
 67 -58 67 -58 69 132 c 0,0,1
EndSplineSet
EndChar

StartChar: paragraph
Encoding: 182 182 117
Width: 483
GlyphClass: 2
Flags: W
LayerCount: 2
Fore
SplineSet
405 514 m 2,0,-1
 383 514 l 1,1,2
 370 362 370 362 370 166 c 0,3,4
 370 141 370 141 372 58 c 128,-1,5
 374 -25 374 -25 374 -75 c 0,6,7
 374 -99 374 -99 364 -112.5 c 128,-1,8
 354 -126 354 -126 325 -126 c 0,9,10
 306 -126 306 -126 286 -118 c 1,11,12
 303 -70 303 -70 303 109 c 0,13,14
 303 374 303 374 313 514 c 1,15,16
 267 514 267 514 258 516 c 1,17,18
 248 425 248 425 248 235 c 0,19,20
 248 218 248 218 203 218 c 0,21,22
 138 218 138 218 91.5 266.5 c 128,-1,23
 45 315 45 315 45 392 c 0,24,25
 45 476 45 476 96.5 525.5 c 128,-1,26
 148 575 148 575 225 575 c 0,27,28
 231 575 231 575 287 573 c 128,-1,29
 343 571 343 571 371 571 c 0,30,31
 427 571 427 571 458 572 c 1,32,33
 463 557 463 557 463 548 c 0,34,35
 463 514 463 514 405 514 c 2,0,-1
EndSplineSet
EndChar

StartChar: periodcentered
Encoding: 183 183 118
Width: 201
GlyphClass: 2
Flags: W
LayerCount: 2
Fore
SplineSet
101 197 m 128,-1,1
 76 197 76 197 58 215 c 128,-1,2
 40 233 40 233 40 260 c 128,-1,3
 40 287 40 287 58 305.5 c 128,-1,4
 76 324 76 324 101 324 c 128,-1,5
 126 324 126 324 143.5 305.5 c 128,-1,6
 161 287 161 287 161 260 c 128,-1,7
 161 233 161 233 143.5 215 c 128,-1,0
 126 197 126 197 101 197 c 128,-1,1
EndSplineSet
EndChar

StartChar: cedilla
Encoding: 184 184 119
Width: 155
GlyphClass: 2
Flags: W
LayerCount: 2
Fore
SplineSet
92 32 m 1,0,-1
 129 27 l 1,1,2
 111 -27 111 -27 111 -30 c 128,-1,3
 111 -33 111 -33 111.5 -36 c 128,-1,4
 112 -39 112 -39 114 -41 c 128,-1,5
 116 -43 116 -43 117 -45 c 128,-1,6
 118 -47 118 -47 121.5 -49.5 c 128,-1,7
 125 -52 125 -52 126.5 -53 c 128,-1,8
 128 -54 128 -54 132 -56.5 c 128,-1,9
 136 -59 136 -59 138 -60 c 0,10,11
 185 -87 185 -87 185 -133 c 0,12,13
 185 -171 185 -171 150.5 -201.5 c 128,-1,14
 116 -232 116 -232 65 -232 c 0,15,16
 30 -232 30 -232 30 -207 c 0,17,18
 30 -191 30 -191 43 -178 c 1,19,20
 58 -187 58 -187 74 -187 c 0,21,22
 124 -187 124 -187 124 -147 c 0,23,24
 124 -124 124 -124 93.5 -98.5 c 128,-1,25
 63 -73 63 -73 63 -54 c 0,26,27
 63 -21 63 -21 92 32 c 1,0,-1
EndSplineSet
EndChar

StartChar: onesuperior
Encoding: 185 185 120
Width: 383
GlyphClass: 2
Flags: W
LayerCount: 2
Fore
SplineSet
233 268 m 1,0,1
 271 268 271 268 309 272 c 1,2,3
 313 260 313 260 313 252 c 0,4,5
 313 218 313 218 278 218 c 0,6,7
 272 218 272 218 232 219 c 128,-1,8
 192 220 192 220 154 220 c 0,9,10
 104 220 104 220 76 219 c 1,11,12
 71 232 71 232 71 240 c 0,13,14
 71 271 71 271 124 271 c 2,15,-1
 167 271 l 1,16,17
 167 283 167 283 168 349 c 128,-1,18
 169 415 169 415 169 462 c 0,19,20
 169 550 169 550 166 617 c 1,21,22
 98 606 98 606 76 598 c 1,23,24
 70 610 70 610 70 622 c 0,25,26
 70 651 70 651 104 659 c 0,27,28
 169 673 169 673 198 673 c 0,29,30
 234 673 234 673 234 639 c 0,31,32
 234 634 234 634 232 603 c 128,-1,33
 230 572 230 572 228.5 525.5 c 128,-1,34
 227 479 227 479 227 437 c 2,35,-1
 227 390 l 2,36,37
 227 309 227 309 233 268 c 1,0,1
EndSplineSet
EndChar

StartChar: ordmasculine
Encoding: 186 186 121
Width: 310
GlyphClass: 2
Flags: W
LayerCount: 2
Fore
SplineSet
157 346 m 0,0,1
 100 346 100 346 65 382.5 c 128,-1,2
 30 419 30 419 30 479 c 0,3,4
 30 540 30 540 65 576.5 c 128,-1,5
 100 613 100 613 157 613 c 0,6,7
 215 613 215 613 250 576.5 c 128,-1,8
 285 540 285 540 285 479 c 128,-1,9
 285 418 285 418 250 382 c 128,-1,10
 215 346 215 346 157 346 c 0,0,1
232 471 m 0,11,12
 232 515 232 515 212 544.5 c 128,-1,13
 192 574 192 574 157 574 c 128,-1,14
 122 574 122 574 103 550.5 c 128,-1,15
 84 527 84 527 84 487 c 0,16,17
 84 443 84 443 103.5 414 c 128,-1,18
 123 385 123 385 157 385 c 0,19,20
 192 385 192 385 212 408.5 c 128,-1,21
 232 432 232 432 232 471 c 0,11,12
170 278 m 0,22,23
 257 278 257 278 297 285 c 1,24,25
 300 275 300 275 300 265 c 0,26,27
 300 247 300 247 290.5 236.5 c 128,-1,28
 281 226 281 226 264 226 c 0,29,30
 254 226 254 226 217 230 c 128,-1,31
 180 234 180 234 161 234 c 0,32,33
 84 234 84 234 26 226 c 1,34,35
 23 238 23 238 23 251 c 128,-1,36
 23 264 23 264 32 274.5 c 128,-1,37
 41 285 41 285 59 285 c 0,38,39
 61 285 61 285 101 281.5 c 128,-1,40
 141 278 141 278 170 278 c 0,22,23
EndSplineSet
EndChar

StartChar: guillemotright
Encoding: 187 187 122
Width: 474
GlyphClass: 2
Flags: W
LayerCount: 2
Fore
SplineSet
146 235 m 1,0,1
 111 278 111 278 75.5 331 c 128,-1,2
 40 384 40 384 40 398 c 0,3,4
 40 411 40 411 60 426 c 1,5,6
 126 371 126 371 225 235 c 1,7,8
 126 99 126 99 60 44 c 1,9,10
 40 59 40 59 40 72 c 0,11,12
 40 86 40 86 75.5 139 c 128,-1,13
 111 192 111 192 146 235 c 1,0,1
335 235 m 1,14,15
 300 278 300 278 264.5 331 c 128,-1,16
 229 384 229 384 229 398 c 0,17,18
 229 411 229 411 249 426 c 1,19,20
 315 371 315 371 414 235 c 1,21,22
 315 99 315 99 249 44 c 1,23,24
 229 59 229 59 229 72 c 0,25,26
 229 86 229 86 264.5 139 c 128,-1,27
 300 192 300 192 335 235 c 1,14,15
EndSplineSet
EndChar

StartChar: onequarter
Encoding: 188 188 123
Width: 914
GlyphClass: 2
Flags: W
LayerCount: 2
Fore
SplineSet
231 -57 m 2,0,-1
 523 528 l 2,1,2
 587 656 587 656 622 740 c 1,3,4
 640 740 640 740 655.5 732 c 128,-1,5
 671 724 671 724 671 709 c 0,6,7
 671 704 671 704 650 660 c 0,8,9
 633 625 633 625 596 551.5 c 128,-1,10
 559 478 559 478 495 350.5 c 128,-1,11
 431 223 431 223 372 104 c 0,12,13
 308 -24 308 -24 274 -107 c 1,14,15
 254 -107 254 -107 239.5 -99 c 128,-1,16
 225 -91 225 -91 225 -77 c 0,17,18
 225 -69 225 -69 231 -57 c 2,0,-1
562 185 m 1,19,20
 595 183 595 183 711 183 c 1,21,22
 711 262 711 262 713 372 c 1,23,24
 704 362 704 362 678.5 335 c 128,-1,25
 653 308 653 308 641 294 c 128,-1,26
 629 280 629 280 606.5 250.5 c 128,-1,27
 584 221 584 221 562 185 c 1,19,20
709 441 m 0,28,29
 721 452 721 452 754 452 c 0,30,31
 760 452 760 452 776 450 c 1,32,33
 776 448 776 448 774 413.5 c 128,-1,34
 772 379 772 379 770 317.5 c 128,-1,35
 768 256 768 256 768 188 c 1,36,37
 816 191 816 191 836 200 c 1,38,39
 844 184 844 184 844 168 c 0,40,41
 844 143 844 143 826 137 c 0,42,43
 810 131 810 131 768 130 c 1,44,45
 768 49 768 49 784 -2 c 1,46,47
 768 -10 768 -10 753 -10 c 0,48,49
 727 -10 727 -10 718 2 c 128,-1,50
 709 14 709 14 709 42 c 0,51,52
 709 58 709 58 710 81 c 128,-1,53
 711 104 711 104 711 129 c 1,54,55
 577 129 577 129 527 136 c 1,56,57
 508 137 508 137 508 172 c 0,58,59
 508 189 508 189 509 195 c 1,60,61
 544 254 544 254 605.5 329 c 128,-1,62
 667 404 667 404 709 441 c 0,28,29
233 268 m 1,63,64
 271 268 271 268 309 272 c 1,65,66
 313 260 313 260 313 252 c 0,67,68
 313 218 313 218 278 218 c 0,69,70
 272 218 272 218 232 219 c 128,-1,71
 192 220 192 220 154 220 c 0,72,73
 104 220 104 220 76 219 c 1,74,75
 71 232 71 232 71 240 c 0,76,77
 71 271 71 271 124 271 c 2,78,-1
 167 271 l 1,79,80
 167 283 167 283 168 349 c 128,-1,81
 169 415 169 415 169 462 c 0,82,83
 169 550 169 550 166 617 c 1,84,85
 98 606 98 606 76 598 c 1,86,87
 70 610 70 610 70 622 c 0,88,89
 70 651 70 651 104 659 c 0,90,91
 169 673 169 673 198 673 c 0,92,93
 234 673 234 673 234 639 c 0,94,95
 234 634 234 634 232 603 c 128,-1,96
 230 572 230 572 228.5 525.5 c 128,-1,97
 227 479 227 479 227 437 c 2,98,-1
 227 390 l 2,99,100
 227 309 227 309 233 268 c 1,63,64
EndSplineSet
EndChar

StartChar: onehalf
Encoding: 189 189 124
Width: 965
GlyphClass: 2
Flags: W
LayerCount: 2
Fore
SplineSet
232 -57 m 2,0,-1
 524 528 l 2,1,2
 588 656 588 656 623 740 c 1,3,4
 641 740 641 740 656.5 732 c 128,-1,5
 672 724 672 724 672 709 c 0,6,7
 672 704 672 704 651 660 c 0,8,9
 634 625 634 625 597 551.5 c 128,-1,10
 560 478 560 478 496 350.5 c 128,-1,11
 432 223 432 223 373 104 c 0,12,13
 309 -24 309 -24 275 -107 c 1,14,15
 255 -107 255 -107 240.5 -99 c 128,-1,16
 226 -91 226 -91 226 -77 c 0,17,18
 226 -69 226 -69 232 -57 c 2,0,-1
620 328 m 1,19,20
 588 331 588 331 588 356 c 0,21,22
 588 387 588 387 633.5 419.5 c 128,-1,23
 679 452 679 452 734 452 c 0,24,25
 795 452 795 452 832 418 c 128,-1,26
 869 384 869 384 869 330 c 0,27,28
 869 267 869 267 812 194 c 128,-1,29
 755 121 755 121 639 54 c 1,30,31
 668 53 668 53 724 53 c 0,32,33
 833 53 833 53 887 77 c 1,34,35
 900 58 900 58 900 37 c 0,36,37
 900 20 900 20 877 11 c 0,38,39
 845 -1 845 -1 741 -1 c 0,40,41
 667 -1 667 -1 617 1 c 1,42,43
 575 1 575 1 575 41 c 0,44,45
 575 55 575 55 576 58 c 1,46,47
 688 124 688 124 746 194.5 c 128,-1,48
 804 265 804 265 804 322 c 0,49,50
 804 357 804 357 781 379 c 128,-1,51
 758 401 758 401 721 401 c 0,52,53
 695 401 695 401 666 380 c 128,-1,54
 637 359 637 359 620 328 c 1,19,20
233 268 m 1,55,56
 271 268 271 268 309 272 c 1,57,58
 313 260 313 260 313 252 c 0,59,60
 313 218 313 218 278 218 c 0,61,62
 272 218 272 218 232 219 c 128,-1,63
 192 220 192 220 154 220 c 0,64,65
 104 220 104 220 76 219 c 1,66,67
 71 232 71 232 71 240 c 0,68,69
 71 271 71 271 124 271 c 2,70,-1
 167 271 l 1,71,72
 167 283 167 283 168 349 c 128,-1,73
 169 415 169 415 169 462 c 0,74,75
 169 550 169 550 166 617 c 1,76,77
 98 606 98 606 76 598 c 1,78,79
 70 610 70 610 70 622 c 0,80,81
 70 651 70 651 104 659 c 0,82,83
 169 673 169 673 198 673 c 0,84,85
 234 673 234 673 234 639 c 0,86,87
 234 634 234 634 232 603 c 128,-1,88
 230 572 230 572 228.5 525.5 c 128,-1,89
 227 479 227 479 227 437 c 2,90,-1
 227 390 l 2,91,92
 227 309 227 309 233 268 c 1,55,56
EndSplineSet
EndChar

StartChar: threequarters
Encoding: 190 190 125
Width: 938
GlyphClass: 2
Flags: W
LayerCount: 2
Fore
SplineSet
166 472 m 0,0,1
 224 477 224 477 252.5 495 c 128,-1,2
 281 513 281 513 281 554 c 0,3,4
 281 587 281 587 264 604.5 c 128,-1,5
 247 622 247 622 205 622 c 0,6,7
 151 622 151 622 107 569 c 1,8,9
 75 575 75 575 75 601 c 0,10,11
 75 620 75 620 96 636 c 0,12,13
 145 673 145 673 209 673 c 0,14,15
 278 673 278 673 312 644 c 128,-1,16
 346 615 346 615 346 566 c 0,17,18
 346 486 346 486 260 458 c 1,19,20
 308 443 308 443 331 412.5 c 128,-1,21
 354 382 354 382 354 344 c 0,22,23
 354 290 354 290 310 249 c 128,-1,24
 266 208 266 208 184 208 c 0,25,26
 135 208 135 208 97.5 225 c 128,-1,27
 60 242 60 242 60 270 c 0,28,29
 60 291 60 291 88 300 c 1,30,31
 127 259 127 259 190 259 c 0,32,33
 234 259 234 259 261.5 281.5 c 128,-1,34
 289 304 289 304 289 344 c 0,35,36
 289 434 289 434 171 434 c 0,37,38
 163 434 163 434 158.5 435 c 128,-1,39
 154 436 154 436 150.5 441.5 c 128,-1,40
 147 447 147 447 147 457 c 0,41,42
 147 466 147 466 148 471 c 1,43,44
 159 471 159 471 166 472 c 0,0,1
586 185 m 1,45,46
 619 183 619 183 735 183 c 1,47,48
 735 262 735 262 737 372 c 1,49,50
 728 362 728 362 702.5 335 c 128,-1,51
 677 308 677 308 665 294 c 128,-1,52
 653 280 653 280 630.5 250.5 c 128,-1,53
 608 221 608 221 586 185 c 1,45,46
733 441 m 0,54,55
 745 452 745 452 778 452 c 0,56,57
 784 452 784 452 800 450 c 1,58,59
 800 448 800 448 798 413.5 c 128,-1,60
 796 379 796 379 794 317.5 c 128,-1,61
 792 256 792 256 792 188 c 1,62,63
 840 191 840 191 860 200 c 1,64,65
 868 184 868 184 868 168 c 0,66,67
 868 143 868 143 850 137 c 0,68,69
 834 131 834 131 792 130 c 1,70,71
 792 49 792 49 808 -2 c 1,72,73
 792 -10 792 -10 777 -10 c 0,74,75
 751 -10 751 -10 742 2 c 128,-1,76
 733 14 733 14 733 42 c 0,77,78
 733 58 733 58 734 81 c 128,-1,79
 735 104 735 104 735 129 c 1,80,81
 601 129 601 129 551 136 c 1,82,83
 532 137 532 137 532 172 c 0,84,85
 532 189 532 189 533 195 c 1,86,87
 568 254 568 254 629.5 329 c 128,-1,88
 691 404 691 404 733 441 c 0,54,55
255 -57 m 2,89,-1
 547 528 l 2,90,91
 611 656 611 656 646 740 c 1,92,93
 664 740 664 740 679.5 732 c 128,-1,94
 695 724 695 724 695 709 c 0,95,96
 695 704 695 704 674 660 c 0,97,98
 657 625 657 625 620 551.5 c 128,-1,99
 583 478 583 478 519 350.5 c 128,-1,100
 455 223 455 223 396 104 c 0,101,102
 332 -24 332 -24 298 -107 c 1,103,104
 278 -107 278 -107 263.5 -99 c 128,-1,105
 249 -91 249 -91 249 -77 c 0,106,107
 249 -69 249 -69 255 -57 c 2,89,-1
EndSplineSet
EndChar

StartChar: questiondown
Encoding: 191 191 126
Width: 325
GlyphClass: 2
Flags: W
LayerCount: 2
Fore
SplineSet
175 526 m 128,-1,1
 200 526 200 526 218 508 c 128,-1,2
 236 490 236 490 236 463 c 128,-1,3
 236 436 236 436 218 417.5 c 128,-1,4
 200 399 200 399 175 399 c 128,-1,5
 150 399 150 399 132.5 417.5 c 128,-1,6
 115 436 115 436 115 463 c 128,-1,7
 115 490 115 490 132.5 508 c 128,-1,0
 150 526 150 526 175 526 c 128,-1,1
137 317 m 1,8,9
 163 327 163 327 176 327 c 0,10,11
 221 327 221 327 221 273 c 0,12,13
 221 244 221 244 201 215 c 128,-1,14
 181 186 181 186 157.5 166.5 c 128,-1,15
 134 147 134 147 114 119 c 128,-1,16
 94 91 94 91 94 63 c 0,17,18
 94 39 94 39 112.5 25.5 c 128,-1,19
 131 12 131 12 158 12 c 0,20,21
 188 12 188 12 215.5 30.5 c 128,-1,22
 243 49 243 49 250 78 c 1,23,24
 300 71 300 71 300 35 c 128,-1,25
 300 -1 300 -1 261.5 -22.5 c 128,-1,26
 223 -44 223 -44 170 -44 c 0,27,28
 112 -44 112 -44 66 -19 c 128,-1,29
 20 6 20 6 20 59 c 0,30,31
 20 92 20 92 33 118.5 c 128,-1,32
 46 145 46 145 65 162.5 c 128,-1,33
 84 180 84 180 103 195 c 128,-1,34
 122 210 122 210 135 228.5 c 128,-1,35
 148 247 148 247 148 268 c 0,36,37
 148 288 148 288 137 317 c 1,8,9
EndSplineSet
EndChar

StartChar: Agrave
Encoding: 192 192 127
Width: 551
GlyphClass: 2
Flags: W
LayerCount: 2
Fore
SplineSet
197 894 m 1,0,1
 234 853 234 853 275 821.5 c 128,-1,2
 316 790 316 790 334 775.5 c 128,-1,3
 352 761 352 761 352 746 c 128,-1,4
 352 731 352 731 336 717 c 1,5,6
 308 738 308 738 259.5 765 c 128,-1,7
 211 792 211 792 186.5 810 c 128,-1,8
 162 828 162 828 162 848 c 0,9,10
 162 874 162 874 197 894 c 1,0,1
388 268 m 1,11,12
 354 357 354 357 285 569 c 1,13,14
 276 546 276 546 239 441 c 128,-1,15
 202 336 202 336 174 268 c 1,16,17
 252 266 252 266 296 266 c 0,18,19
 358 266 358 266 388 268 c 1,11,12
275 207 m 0,20,21
 249 207 249 207 149 209 c 1,22,23
 82 40 82 40 65 -21 c 1,24,25
 32 -14 32 -14 18.5 -5 c 128,-1,26
 5 4 5 4 5 19 c 0,27,28
 5 31 5 31 47.5 131 c 128,-1,29
 90 231 90 231 151 385.5 c 128,-1,30
 212 540 212 540 247 660 c 1,31,32
 266 663 266 663 289 663 c 0,33,34
 314 663 314 663 324 654.5 c 128,-1,35
 334 646 334 646 345 610 c 0,36,37
 408 407 408 407 457 280 c 0,38,39
 535 76 535 76 569 10 c 1,40,41
 541 -10 541 -10 521 -10 c 0,42,43
 489 -10 489 -10 478 17 c 0,44,45
 459 66 459 66 409 209 c 1,46,47
 297 207 297 207 275 207 c 0,20,21
EndSplineSet
EndChar

StartChar: Aacute
Encoding: 193 193 128
Width: 551
GlyphClass: 2
Flags: W
LayerCount: 2
Fore
SplineSet
401 811 m 0,0,1
 379 795 379 795 321.5 761.5 c 128,-1,2
 264 728 264 728 251 716 c 1,3,4
 235 730 235 730 235 745 c 0,5,6
 235 762 235 762 251 774.5 c 128,-1,7
 267 787 267 787 308.5 818 c 128,-1,8
 350 849 350 849 391 894 c 1,9,10
 426 874 426 874 426 848 c 0,11,12
 426 828 426 828 401 811 c 0,0,1
388 268 m 1,13,14
 354 357 354 357 285 569 c 1,15,16
 276 546 276 546 239 441 c 128,-1,17
 202 336 202 336 174 268 c 1,18,19
 252 266 252 266 296 266 c 0,20,21
 358 266 358 266 388 268 c 1,13,14
275 207 m 0,22,23
 249 207 249 207 149 209 c 1,24,25
 82 40 82 40 65 -21 c 1,26,27
 32 -14 32 -14 18.5 -5 c 128,-1,28
 5 4 5 4 5 19 c 0,29,30
 5 31 5 31 47.5 131 c 128,-1,31
 90 231 90 231 151 385.5 c 128,-1,32
 212 540 212 540 247 660 c 1,33,34
 266 663 266 663 289 663 c 0,35,36
 314 663 314 663 324 654.5 c 128,-1,37
 334 646 334 646 345 610 c 0,38,39
 408 407 408 407 457 280 c 0,40,41
 535 76 535 76 569 10 c 1,42,43
 541 -10 541 -10 521 -10 c 0,44,45
 489 -10 489 -10 478 17 c 0,46,47
 459 66 459 66 409 209 c 1,48,49
 297 207 297 207 275 207 c 0,22,23
EndSplineSet
EndChar

StartChar: Acircumflex
Encoding: 194 194 129
Width: 551
GlyphClass: 2
Flags: W
LayerCount: 2
Fore
SplineSet
303 871 m 1,0,1
 350 841 350 841 391.5 803.5 c 128,-1,2
 433 766 433 766 433 739 c 0,3,4
 433 721 433 721 410 711 c 1,5,6
 391 735 391 735 364 757 c 128,-1,7
 337 779 337 779 319 790 c 2,8,-1
 301 800 l 1,9,10
 295 795 295 795 282.5 784.5 c 128,-1,11
 270 774 270 774 262.5 768 c 128,-1,12
 255 762 255 762 244 753.5 c 128,-1,13
 233 745 233 745 225.5 739.5 c 128,-1,14
 218 734 218 734 210.5 729 c 128,-1,15
 203 724 203 724 197 721.5 c 128,-1,16
 191 719 191 719 187 719 c 0,17,18
 175 719 175 719 162 737 c 1,19,20
 226 814 226 814 303 871 c 1,0,1
388 268 m 1,21,22
 354 357 354 357 285 569 c 1,23,24
 276 546 276 546 239 441 c 128,-1,25
 202 336 202 336 174 268 c 1,26,27
 252 266 252 266 296 266 c 0,28,29
 358 266 358 266 388 268 c 1,21,22
275 207 m 0,30,31
 249 207 249 207 149 209 c 1,32,33
 82 40 82 40 65 -21 c 1,34,35
 32 -14 32 -14 18.5 -5 c 128,-1,36
 5 4 5 4 5 19 c 0,37,38
 5 31 5 31 47.5 131 c 128,-1,39
 90 231 90 231 151 385.5 c 128,-1,40
 212 540 212 540 247 660 c 1,41,42
 266 663 266 663 289 663 c 0,43,44
 314 663 314 663 324 654.5 c 128,-1,45
 334 646 334 646 345 610 c 0,46,47
 408 407 408 407 457 280 c 0,48,49
 535 76 535 76 569 10 c 1,50,51
 541 -10 541 -10 521 -10 c 0,52,53
 489 -10 489 -10 478 17 c 0,54,55
 459 66 459 66 409 209 c 1,56,57
 297 207 297 207 275 207 c 0,30,31
EndSplineSet
EndChar

StartChar: Atilde
Encoding: 195 195 130
Width: 551
GlyphClass: 2
Flags: W
LayerCount: 2
Fore
SplineSet
388 268 m 1,0,1
 354 357 354 357 285 569 c 1,2,3
 276 546 276 546 239 441 c 128,-1,4
 202 336 202 336 174 268 c 1,5,6
 252 266 252 266 296 266 c 0,7,8
 358 266 358 266 388 268 c 1,0,1
275 207 m 0,9,10
 249 207 249 207 149 209 c 1,11,12
 82 40 82 40 65 -21 c 1,13,14
 32 -14 32 -14 18.5 -5 c 128,-1,15
 5 4 5 4 5 19 c 0,16,17
 5 31 5 31 47.5 131 c 128,-1,18
 90 231 90 231 151 385.5 c 128,-1,19
 212 540 212 540 247 660 c 1,20,21
 266 663 266 663 289 663 c 0,22,23
 314 663 314 663 324 654.5 c 128,-1,24
 334 646 334 646 345 610 c 0,25,26
 408 407 408 407 457 280 c 0,27,28
 535 76 535 76 569 10 c 1,29,30
 541 -10 541 -10 521 -10 c 0,31,32
 489 -10 489 -10 478 17 c 0,33,34
 459 66 459 66 409 209 c 1,35,36
 297 207 297 207 275 207 c 0,9,10
438 798 m 0,37,38
 438 770 438 770 407 744 c 128,-1,39
 376 718 376 718 341 718 c 0,40,41
 320 718 320 718 282.5 740.5 c 128,-1,42
 245 763 245 763 227 763 c 128,-1,43
 209 763 209 763 168 721 c 1,44,45
 152 728 152 728 152 742 c 0,46,47
 152 769 152 769 183.5 795.5 c 128,-1,48
 215 822 215 822 250 822 c 0,49,50
 268 822 268 822 307 799.5 c 128,-1,51
 346 777 346 777 363 777 c 0,52,53
 386 777 386 777 422 819 c 1,54,55
 438 813 438 813 438 798 c 0,37,38
EndSplineSet
EndChar

StartChar: Adieresis
Encoding: 196 196 131
Width: 551
GlyphClass: 2
Flags: W
LayerCount: 2
Fore
SplineSet
388 268 m 1,0,1
 354 357 354 357 285 569 c 1,2,3
 276 546 276 546 239 441 c 128,-1,4
 202 336 202 336 174 268 c 1,5,6
 252 266 252 266 296 266 c 0,7,8
 358 266 358 266 388 268 c 1,0,1
275 207 m 0,9,10
 249 207 249 207 149 209 c 1,11,12
 82 40 82 40 65 -21 c 1,13,14
 32 -14 32 -14 18.5 -5 c 128,-1,15
 5 4 5 4 5 19 c 0,16,17
 5 31 5 31 47.5 131 c 128,-1,18
 90 231 90 231 151 385.5 c 128,-1,19
 212 540 212 540 247 660 c 1,20,21
 266 663 266 663 289 663 c 0,22,23
 314 663 314 663 324 654.5 c 128,-1,24
 334 646 334 646 345 610 c 0,25,26
 408 407 408 407 457 280 c 0,27,28
 535 76 535 76 569 10 c 1,29,30
 541 -10 541 -10 521 -10 c 0,31,32
 489 -10 489 -10 478 17 c 0,33,34
 459 66 459 66 409 209 c 1,35,36
 297 207 297 207 275 207 c 0,9,10
364 712 m 0,37,38
 343 712 343 712 328 727 c 128,-1,39
 313 742 313 742 313 766 c 0,40,41
 313 788 313 788 329 803.5 c 128,-1,42
 345 819 345 819 366 819 c 0,43,44
 386 819 386 819 401 803.5 c 128,-1,45
 416 788 416 788 416 766 c 0,46,47
 416 743 416 743 400 727.5 c 128,-1,48
 384 712 384 712 364 712 c 0,37,38
186 712 m 0,49,50
 165 712 165 712 150 727 c 128,-1,51
 135 742 135 742 135 766 c 0,52,53
 135 788 135 788 151 803.5 c 128,-1,54
 167 819 167 819 188 819 c 0,55,56
 208 819 208 819 223 803.5 c 128,-1,57
 238 788 238 788 238 766 c 0,58,59
 238 743 238 743 222 727.5 c 128,-1,60
 206 712 206 712 186 712 c 0,49,50
EndSplineSet
EndChar

StartChar: Aring
Encoding: 197 197 132
Width: 551
GlyphClass: 2
Flags: W
LayerCount: 2
Fore
SplineSet
298 712 m 0,0,1
 258 712 258 712 233.5 736.5 c 128,-1,2
 209 761 209 761 209 801 c 128,-1,3
 209 841 209 841 233.5 865.5 c 128,-1,4
 258 890 258 890 298 890 c 0,5,6
 337 890 337 890 361 865.5 c 128,-1,7
 385 841 385 841 385 801 c 128,-1,8
 385 761 385 761 361 736.5 c 128,-1,9
 337 712 337 712 298 712 c 0,0,1
343 796 m 0,10,11
 343 823 343 823 331 840 c 128,-1,12
 319 857 319 857 298 857 c 0,13,14
 276 857 276 857 263.5 843 c 128,-1,15
 251 829 251 829 251 805 c 0,16,17
 251 779 251 779 263.5 762 c 128,-1,18
 276 745 276 745 298 745 c 0,19,20
 319 745 319 745 331 758.5 c 128,-1,21
 343 772 343 772 343 796 c 0,10,11
388 268 m 1,22,23
 354 357 354 357 285 569 c 1,24,25
 276 546 276 546 239 441 c 128,-1,26
 202 336 202 336 174 268 c 1,27,28
 252 266 252 266 296 266 c 0,29,30
 358 266 358 266 388 268 c 1,22,23
275 207 m 0,31,32
 249 207 249 207 149 209 c 1,33,34
 82 40 82 40 65 -21 c 1,35,36
 32 -14 32 -14 18.5 -5 c 128,-1,37
 5 4 5 4 5 19 c 0,38,39
 5 31 5 31 47.5 131 c 128,-1,40
 90 231 90 231 151 385.5 c 128,-1,41
 212 540 212 540 247 660 c 1,42,43
 266 663 266 663 289 663 c 0,44,45
 314 663 314 663 324 654.5 c 128,-1,46
 334 646 334 646 345 610 c 0,47,48
 408 407 408 407 457 280 c 0,49,50
 535 76 535 76 569 10 c 1,51,52
 541 -10 541 -10 521 -10 c 0,53,54
 489 -10 489 -10 478 17 c 0,55,56
 459 66 459 66 409 209 c 1,57,58
 297 207 297 207 275 207 c 0,31,32
EndSplineSet
EndChar

StartChar: AE
Encoding: 198 198 133
Width: 764
GlyphClass: 2
Flags: W
LayerCount: 2
Fore
SplineSet
353 578 m 1,0,1
 338 549 338 549 286 441.5 c 128,-1,2
 234 334 234 334 198 268 c 1,3,4
 276 266 276 266 318 266 c 2,5,-1
 358 266 l 1,6,-1
 358 424 l 2,7,8
 358 503 358 503 353 578 c 1,0,1
429 599 m 1,9,10
 433 555 433 555 433 387 c 1,11,-1
 512 387 l 2,12,13
 596 387 596 387 632 391 c 1,14,15
 636 383 636 383 636 365 c 0,16,17
 636 342 636 342 625.5 334 c 128,-1,18
 615 326 615 326 592 325 c 0,19,20
 566 324 566 324 521 324 c 2,21,-1
 433 324 l 1,22,23
 433 106 433 106 440 62 c 1,24,25
 484 60 484 60 511 60 c 0,26,27
 679 60 679 60 726 83 c 1,28,29
 734 63 734 63 734 39 c 0,30,31
 734 21 734 21 725 13 c 0,32,33
 707 -2 707 -2 563 -2 c 0,34,35
 435 -2 435 -2 405 0 c 0,36,37
 376 1 376 1 366 14 c 128,-1,38
 356 27 356 27 356 57 c 0,39,40
 356 91 356 91 358 207 c 1,41,-1
 290 207 l 2,42,43
 266 207 266 207 166 209 c 1,44,45
 78 40 78 40 59 -10 c 1,46,47
 0 -1 0 -1 0 31 c 0,48,49
 0 40 0 40 23 83 c 128,-1,50
 46 126 46 126 89 203 c 128,-1,51
 132 280 132 280 154 321 c 0,52,53
 252 503 252 503 314 654 c 1,54,55
 433 666 433 666 562 666 c 0,56,57
 706 666 706 666 724 651 c 0,58,59
 733 643 733 643 733 625 c 0,60,61
 733 601 733 601 725 581 c 1,62,63
 668 602 668 602 539 602 c 0,64,65
 486 602 486 602 429 599 c 1,9,10
EndSplineSet
EndChar

StartChar: Ccedilla
Encoding: 199 199 134
Width: 602
GlyphClass: 2
Flags: W
LayerCount: 2
Fore
SplineSet
514 134 m 1,0,1
 558 116 558 116 558 85 c 0,2,3
 558 50 558 50 503.5 21 c 128,-1,4
 449 -8 449 -8 368 -10 c 1,5,6
 364 -26 364 -26 364 -30 c 0,7,8
 364 -33 364 -33 364.5 -36 c 128,-1,9
 365 -39 365 -39 367 -41 c 128,-1,10
 369 -43 369 -43 370 -45 c 128,-1,11
 371 -47 371 -47 374.5 -49.5 c 128,-1,12
 378 -52 378 -52 379.5 -53 c 128,-1,13
 381 -54 381 -54 385 -56.5 c 128,-1,14
 389 -59 389 -59 391 -60 c 0,15,16
 438 -87 438 -87 438 -133 c 0,17,18
 438 -171 438 -171 403.5 -201.5 c 128,-1,19
 369 -232 369 -232 318 -232 c 0,20,21
 283 -232 283 -232 283 -207 c 0,22,23
 283 -191 283 -191 296 -178 c 1,24,25
 311 -187 311 -187 327 -187 c 0,26,27
 377 -187 377 -187 377 -147 c 0,28,29
 377 -124 377 -124 346.5 -98.5 c 128,-1,30
 316 -73 316 -73 316 -54 c 0,31,32
 316 -37 316 -37 327 -8 c 1,33,34
 200 2 200 2 124.5 95 c 128,-1,35
 49 188 49 188 49 332 c 0,36,37
 49 492 49 492 134 582.5 c 128,-1,38
 219 673 219 673 364 673 c 0,39,40
 442 673 442 673 495 641.5 c 128,-1,41
 548 610 548 610 548 564 c 0,42,43
 548 523 548 523 491 514 c 1,44,45
 472 563 472 563 431 587.5 c 128,-1,46
 390 612 390 612 344 612 c 0,47,48
 250 612 250 612 190.5 537.5 c 128,-1,49
 131 463 131 463 131 352 c 0,50,51
 131 224 131 224 191 137.5 c 128,-1,52
 251 51 251 51 359 51 c 0,53,54
 407 51 407 51 448.5 72 c 128,-1,55
 490 93 490 93 514 134 c 1,0,1
EndSplineSet
EndChar

StartChar: Egrave
Encoding: 200 200 135
Width: 486
GlyphClass: 2
Flags: W
LayerCount: 2
Fore
SplineSet
135 899 m 1,0,1
 172 858 172 858 213 826.5 c 128,-1,2
 254 795 254 795 272 780.5 c 128,-1,3
 290 766 290 766 290 751 c 128,-1,4
 290 736 290 736 274 722 c 1,5,6
 246 743 246 743 197.5 770 c 128,-1,7
 149 797 149 797 124.5 815 c 128,-1,8
 100 833 100 833 100 853 c 0,9,10
 100 879 100 879 135 899 c 1,0,1
151 599 m 1,11,12
 155 555 155 555 155 387 c 1,13,-1
 234 387 l 2,14,15
 318 387 318 387 354 391 c 1,16,17
 358 383 358 383 358 365 c 0,18,19
 358 342 358 342 347.5 334 c 128,-1,20
 337 326 337 326 314 325 c 0,21,22
 288 324 288 324 243 324 c 2,23,-1
 155 324 l 1,24,25
 155 106 155 106 162 62 c 1,26,27
 206 60 206 60 233 60 c 0,28,29
 401 60 401 60 448 83 c 1,30,31
 456 63 456 63 456 39 c 0,32,33
 456 21 456 21 447 13 c 0,34,35
 429 -2 429 -2 285 -2 c 0,36,37
 157 -2 157 -2 127 0 c 0,38,39
 98 1 98 1 88 14 c 128,-1,40
 78 27 78 27 78 57 c 0,41,42
 78 73 78 73 79 131 c 128,-1,43
 80 189 80 189 80 224 c 2,44,-1
 80 424 l 2,45,46
 80 567 80 567 66 657 c 1,47,48
 173 666 173 666 284 666 c 0,49,50
 428 666 428 666 446 651 c 0,51,52
 455 643 455 643 455 625 c 0,53,54
 455 601 455 601 447 581 c 1,55,56
 390 602 390 602 261 602 c 0,57,58
 208 602 208 602 151 599 c 1,11,12
EndSplineSet
EndChar

StartChar: Eacute
Encoding: 201 201 136
Width: 486
GlyphClass: 2
Flags: W
LayerCount: 2
Fore
SplineSet
376 816 m 0,0,1
 354 800 354 800 296.5 766.5 c 128,-1,2
 239 733 239 733 226 721 c 1,3,4
 210 735 210 735 210 750 c 0,5,6
 210 767 210 767 226 779.5 c 128,-1,7
 242 792 242 792 283.5 823 c 128,-1,8
 325 854 325 854 366 899 c 1,9,10
 401 879 401 879 401 853 c 0,11,12
 401 833 401 833 376 816 c 0,0,1
151 599 m 1,13,14
 155 555 155 555 155 387 c 1,15,-1
 234 387 l 2,16,17
 318 387 318 387 354 391 c 1,18,19
 358 383 358 383 358 365 c 0,20,21
 358 342 358 342 347.5 334 c 128,-1,22
 337 326 337 326 314 325 c 0,23,24
 288 324 288 324 243 324 c 2,25,-1
 155 324 l 1,26,27
 155 106 155 106 162 62 c 1,28,29
 206 60 206 60 233 60 c 0,30,31
 401 60 401 60 448 83 c 1,32,33
 456 63 456 63 456 39 c 0,34,35
 456 21 456 21 447 13 c 0,36,37
 429 -2 429 -2 285 -2 c 0,38,39
 157 -2 157 -2 127 0 c 0,40,41
 98 1 98 1 88 14 c 128,-1,42
 78 27 78 27 78 57 c 0,43,44
 78 73 78 73 79 131 c 128,-1,45
 80 189 80 189 80 224 c 2,46,-1
 80 424 l 2,47,48
 80 567 80 567 66 657 c 1,49,50
 173 666 173 666 284 666 c 0,51,52
 428 666 428 666 446 651 c 0,53,54
 455 643 455 643 455 625 c 0,55,56
 455 601 455 601 447 581 c 1,57,58
 390 602 390 602 261 602 c 0,59,60
 208 602 208 602 151 599 c 1,13,14
EndSplineSet
EndChar

StartChar: Ecircumflex
Encoding: 202 202 137
Width: 486
GlyphClass: 2
Flags: W
LayerCount: 2
Fore
SplineSet
251 869 m 1,0,1
 298 839 298 839 339.5 801.5 c 128,-1,2
 381 764 381 764 381 737 c 0,3,4
 381 719 381 719 358 709 c 1,5,6
 339 733 339 733 312 755.5 c 128,-1,7
 285 778 285 778 267 788 c 2,8,-1
 249 798 l 1,9,10
 243 793 243 793 230.5 782.5 c 128,-1,11
 218 772 218 772 210.5 766 c 128,-1,12
 203 760 203 760 192 751.5 c 128,-1,13
 181 743 181 743 173.5 737.5 c 128,-1,14
 166 732 166 732 158.5 727 c 128,-1,15
 151 722 151 722 145 719.5 c 128,-1,16
 139 717 139 717 135 717 c 0,17,18
 123 717 123 717 110 735 c 1,19,20
 174 812 174 812 251 869 c 1,0,1
151 599 m 1,21,22
 155 555 155 555 155 387 c 1,23,-1
 234 387 l 2,24,25
 318 387 318 387 354 391 c 1,26,27
 358 383 358 383 358 365 c 0,28,29
 358 342 358 342 347.5 334 c 128,-1,30
 337 326 337 326 314 325 c 0,31,32
 288 324 288 324 243 324 c 2,33,-1
 155 324 l 1,34,35
 155 106 155 106 162 62 c 1,36,37
 206 60 206 60 233 60 c 0,38,39
 401 60 401 60 448 83 c 1,40,41
 456 63 456 63 456 39 c 0,42,43
 456 21 456 21 447 13 c 0,44,45
 429 -2 429 -2 285 -2 c 0,46,47
 157 -2 157 -2 127 0 c 0,48,49
 98 1 98 1 88 14 c 128,-1,50
 78 27 78 27 78 57 c 0,51,52
 78 73 78 73 79 131 c 128,-1,53
 80 189 80 189 80 224 c 2,54,-1
 80 424 l 2,55,56
 80 567 80 567 66 657 c 1,57,58
 173 666 173 666 284 666 c 0,59,60
 428 666 428 666 446 651 c 0,61,62
 455 643 455 643 455 625 c 0,63,64
 455 601 455 601 447 581 c 1,65,66
 390 602 390 602 261 602 c 0,67,68
 208 602 208 602 151 599 c 1,21,22
EndSplineSet
EndChar

StartChar: Edieresis
Encoding: 203 203 138
Width: 486
GlyphClass: 2
Flags: W
LayerCount: 2
Fore
SplineSet
151 599 m 1,0,1
 155 555 155 555 155 387 c 1,2,-1
 234 387 l 2,3,4
 318 387 318 387 354 391 c 1,5,6
 358 383 358 383 358 365 c 0,7,8
 358 342 358 342 347.5 334 c 128,-1,9
 337 326 337 326 314 325 c 0,10,11
 288 324 288 324 243 324 c 2,12,-1
 155 324 l 1,13,14
 155 106 155 106 162 62 c 1,15,16
 206 60 206 60 233 60 c 0,17,18
 401 60 401 60 448 83 c 1,19,20
 456 63 456 63 456 39 c 0,21,22
 456 21 456 21 447 13 c 0,23,24
 429 -2 429 -2 285 -2 c 0,25,26
 157 -2 157 -2 127 0 c 0,27,28
 98 1 98 1 88 14 c 128,-1,29
 78 27 78 27 78 57 c 0,30,31
 78 73 78 73 79 131 c 128,-1,32
 80 189 80 189 80 224 c 2,33,-1
 80 424 l 2,34,35
 80 567 80 567 66 657 c 1,36,37
 173 666 173 666 284 666 c 0,38,39
 428 666 428 666 446 651 c 0,40,41
 455 643 455 643 455 625 c 0,42,43
 455 601 455 601 447 581 c 1,44,45
 390 602 390 602 261 602 c 0,46,47
 208 602 208 602 151 599 c 1,0,1
331 712 m 0,48,49
 310 712 310 712 295 727 c 128,-1,50
 280 742 280 742 280 766 c 0,51,52
 280 788 280 788 296 803.5 c 128,-1,53
 312 819 312 819 333 819 c 0,54,55
 353 819 353 819 368 803.5 c 128,-1,56
 383 788 383 788 383 766 c 0,57,58
 383 743 383 743 367 727.5 c 128,-1,59
 351 712 351 712 331 712 c 0,48,49
153 712 m 0,60,61
 132 712 132 712 117 727 c 128,-1,62
 102 742 102 742 102 766 c 0,63,64
 102 788 102 788 118 803.5 c 128,-1,65
 134 819 134 819 155 819 c 0,66,67
 175 819 175 819 190 803.5 c 128,-1,68
 205 788 205 788 205 766 c 0,69,70
 205 743 205 743 189 727.5 c 128,-1,71
 173 712 173 712 153 712 c 0,60,61
EndSplineSet
EndChar

StartChar: Igrave
Encoding: 204 204 139
Width: 221
GlyphClass: 2
Flags: W
LayerCount: 2
Fore
SplineSet
73 231 m 2,0,-1
 73 431 l 2,1,2
 73 572 73 572 66 663 c 1,3,4
 83 666 83 666 107 666 c 0,5,6
 156 666 156 666 156 628 c 0,7,8
 156 622 156 622 154 587.5 c 128,-1,9
 152 553 152 553 150 501.5 c 128,-1,10
 148 450 148 450 148 404 c 2,11,-1
 148 203 l 2,12,13
 148 68 148 68 167 5 c 1,14,15
 149 -3 149 -3 120 -3 c 128,-1,16
 91 -3 91 -3 81 10 c 128,-1,17
 71 23 71 23 71 54 c 0,18,19
 71 70 71 70 72 133 c 128,-1,20
 73 196 73 196 73 231 c 2,0,-1
1 899 m 1,21,22
 38 858 38 858 79 826.5 c 128,-1,23
 120 795 120 795 138 780.5 c 128,-1,24
 156 766 156 766 156 751 c 128,-1,25
 156 736 156 736 140 722 c 1,26,27
 112 743 112 743 63.5 770 c 128,-1,28
 15 797 15 797 -9.5 815 c 128,-1,29
 -34 833 -34 833 -34 853 c 0,30,31
 -34 879 -34 879 1 899 c 1,21,22
EndSplineSet
EndChar

StartChar: Iacute
Encoding: 205 205 140
Width: 221
GlyphClass: 2
Flags: W
LayerCount: 2
Fore
SplineSet
73 231 m 2,0,-1
 73 431 l 2,1,2
 73 572 73 572 66 663 c 1,3,4
 83 666 83 666 107 666 c 0,5,6
 156 666 156 666 156 628 c 0,7,8
 156 622 156 622 154 587.5 c 128,-1,9
 152 553 152 553 150 501.5 c 128,-1,10
 148 450 148 450 148 404 c 2,11,-1
 148 203 l 2,12,13
 148 68 148 68 167 5 c 1,14,15
 149 -3 149 -3 120 -3 c 128,-1,16
 91 -3 91 -3 81 10 c 128,-1,17
 71 23 71 23 71 54 c 0,18,19
 71 70 71 70 72 133 c 128,-1,20
 73 196 73 196 73 231 c 2,0,-1
242 816 m 0,21,22
 220 800 220 800 162.5 766.5 c 128,-1,23
 105 733 105 733 92 721 c 1,24,25
 76 735 76 735 76 750 c 0,26,27
 76 767 76 767 92 779.5 c 128,-1,28
 108 792 108 792 149.5 823 c 128,-1,29
 191 854 191 854 232 899 c 1,30,31
 267 879 267 879 267 853 c 0,32,33
 267 833 267 833 242 816 c 0,21,22
EndSplineSet
EndChar

StartChar: Icircumflex
Encoding: 206 206 141
Width: 221
GlyphClass: 2
Flags: W
LayerCount: 2
Fore
SplineSet
73 231 m 2,0,-1
 73 431 l 2,1,2
 73 572 73 572 66 663 c 1,3,4
 83 666 83 666 107 666 c 0,5,6
 156 666 156 666 156 628 c 0,7,8
 156 622 156 622 154 587.5 c 128,-1,9
 152 553 152 553 150 501.5 c 128,-1,10
 148 450 148 450 148 404 c 2,11,-1
 148 203 l 2,12,13
 148 68 148 68 167 5 c 1,14,15
 149 -3 149 -3 120 -3 c 128,-1,16
 91 -3 91 -3 81 10 c 128,-1,17
 71 23 71 23 71 54 c 0,18,19
 71 70 71 70 72 133 c 128,-1,20
 73 196 73 196 73 231 c 2,0,-1
117 869 m 1,21,22
 164 839 164 839 205.5 801.5 c 128,-1,23
 247 764 247 764 247 737 c 0,24,25
 247 719 247 719 224 709 c 1,26,27
 205 733 205 733 178 755.5 c 128,-1,28
 151 778 151 778 133 788 c 2,29,-1
 115 798 l 1,30,31
 109 793 109 793 96.5 782.5 c 128,-1,32
 84 772 84 772 76.5 766 c 128,-1,33
 69 760 69 760 58 751.5 c 128,-1,34
 47 743 47 743 39.5 737.5 c 128,-1,35
 32 732 32 732 24.5 727 c 128,-1,36
 17 722 17 722 11 719.5 c 128,-1,37
 5 717 5 717 1 717 c 0,38,39
 -11 717 -11 717 -24 735 c 1,40,41
 40 812 40 812 117 869 c 1,21,22
EndSplineSet
EndChar

StartChar: Idieresis
Encoding: 207 207 142
Width: 221
GlyphClass: 2
Flags: W
LayerCount: 2
Fore
SplineSet
73 231 m 2,0,-1
 73 431 l 2,1,2
 73 572 73 572 66 663 c 1,3,4
 83 666 83 666 107 666 c 0,5,6
 156 666 156 666 156 628 c 0,7,8
 156 622 156 622 154 587.5 c 128,-1,9
 152 553 152 553 150 501.5 c 128,-1,10
 148 450 148 450 148 404 c 2,11,-1
 148 203 l 2,12,13
 148 68 148 68 167 5 c 1,14,15
 149 -3 149 -3 120 -3 c 128,-1,16
 91 -3 91 -3 81 10 c 128,-1,17
 71 23 71 23 71 54 c 0,18,19
 71 70 71 70 72 133 c 128,-1,20
 73 196 73 196 73 231 c 2,0,-1
18 712 m 0,21,22
 -3 712 -3 712 -18 727 c 128,-1,23
 -33 742 -33 742 -33 766 c 0,24,25
 -33 788 -33 788 -17 803.5 c 128,-1,26
 -1 819 -1 819 20 819 c 0,27,28
 40 819 40 819 55 803.5 c 128,-1,29
 70 788 70 788 70 766 c 0,30,31
 70 743 70 743 54 727.5 c 128,-1,32
 38 712 38 712 18 712 c 0,21,22
196 712 m 0,33,34
 175 712 175 712 160 727 c 128,-1,35
 145 742 145 742 145 766 c 0,36,37
 145 788 145 788 161 803.5 c 128,-1,38
 177 819 177 819 198 819 c 0,39,40
 218 819 218 819 233 803.5 c 128,-1,41
 248 788 248 788 248 766 c 0,42,43
 248 743 248 743 232 727.5 c 128,-1,44
 216 712 216 712 196 712 c 0,33,34
EndSplineSet
EndChar

StartChar: Eth
Encoding: 208 208 143
Width: 635
GlyphClass: 2
Flags: W
LayerCount: 2
Fore
SplineSet
153 608 m 1,0,1
 157 539 157 539 157 445 c 2,2,-1
 157 387 l 1,3,-1
 221 387 l 2,4,5
 304 387 304 387 335 391 c 1,6,7
 339 379 339 379 339 365 c 0,8,9
 339 345 339 345 330 335.5 c 128,-1,10
 321 326 321 326 295 325 c 0,11,12
 262 324 262 324 156 324 c 1,13,14
 153 185 153 185 143 87 c 1,15,16
 197 51 197 51 276 51 c 0,17,18
 339 51 339 51 385 75 c 128,-1,19
 431 99 431 99 455.5 139.5 c 128,-1,20
 480 180 480 180 491 223 c 128,-1,21
 502 266 502 266 502 313 c 0,22,23
 502 462 502 462 428 537 c 128,-1,24
 354 612 354 612 217 612 c 0,25,26
 195 612 195 612 153 608 c 1,0,1
66 53 m 1,27,28
 79 137 79 137 81 324 c 1,29,30
 23 324 23 324 -12 320 c 1,31,32
 -16 332 -16 332 -16 346 c 0,33,34
 -16 366 -16 366 -7 375.5 c 128,-1,35
 2 385 2 385 28 386 c 0,36,37
 34 386 34 386 52.5 386.5 c 128,-1,38
 71 387 71 387 82 387 c 1,39,40
 82 564 82 564 69 661 c 1,41,42
 129 673 129 673 224 673 c 0,43,44
 302 673 302 673 364 656 c 128,-1,45
 426 639 426 639 477.5 601.5 c 128,-1,46
 529 564 529 564 557.5 496 c 128,-1,47
 586 428 586 428 586 333 c 0,48,49
 586 183 586 183 506 86.5 c 128,-1,50
 426 -10 426 -10 278 -10 c 0,51,52
 142 -10 142 -10 66 53 c 1,27,28
EndSplineSet
EndChar

StartChar: Ntilde
Encoding: 209 209 144
Width: 618
GlyphClass: 2
Flags: W
LayerCount: 2
Fore
SplineSet
551 1 m 1,0,1
 535 -3 535 -3 518 -3 c 0,2,3
 484 -3 484 -3 466 24 c 0,4,5
 425 87 425 87 324 265.5 c 128,-1,6
 223 444 223 444 151 552 c 1,7,8
 150 514 150 514 150 203 c 0,9,10
 150 68 150 68 169 5 c 1,11,12
 151 -3 151 -3 132 -3 c 0,13,14
 103 -3 103 -3 93 10 c 128,-1,15
 83 23 83 23 83 54 c 0,16,17
 83 70 83 70 84 133 c 128,-1,18
 85 196 85 196 85 231 c 2,19,-1
 85 431 l 2,20,21
 85 598 85 598 66 659 c 1,22,23
 85 667 85 667 113 667 c 0,24,25
 133 667 133 667 144.5 660 c 128,-1,26
 156 653 156 653 169 638 c 0,27,28
 219 581 219 581 313 425 c 128,-1,29
 407 269 407 269 485 119 c 1,30,31
 482 155 482 155 480.5 233 c 128,-1,32
 479 311 479 311 479 371 c 2,33,-1
 479 431 l 2,34,35
 479 572 479 572 472 663 c 1,36,37
 489 666 489 666 503 666 c 0,38,39
 552 666 552 666 552 628 c 0,40,41
 552 622 552 622 550 587.5 c 128,-1,42
 548 553 548 553 546 501.5 c 128,-1,43
 544 450 544 450 544 404 c 2,44,-1
 544 233 l 2,45,46
 544 92 544 92 551 1 c 1,0,1
457 803 m 0,47,48
 457 775 457 775 426 749 c 128,-1,49
 395 723 395 723 360 723 c 0,50,51
 339 723 339 723 301.5 745.5 c 128,-1,52
 264 768 264 768 246 768 c 128,-1,53
 228 768 228 768 187 726 c 1,54,55
 171 733 171 733 171 747 c 0,56,57
 171 774 171 774 202.5 800.5 c 128,-1,58
 234 827 234 827 269 827 c 0,59,60
 287 827 287 827 326 804.5 c 128,-1,61
 365 782 365 782 382 782 c 0,62,63
 405 782 405 782 441 824 c 1,64,65
 457 818 457 818 457 803 c 0,47,48
EndSplineSet
EndChar

StartChar: Ograve
Encoding: 210 210 145
Width: 712
GlyphClass: 2
Flags: W
LayerCount: 2
Fore
SplineSet
240 899 m 1,0,1
 277 858 277 858 318 826.5 c 128,-1,2
 359 795 359 795 377 780.5 c 128,-1,3
 395 766 395 766 395 751 c 128,-1,4
 395 736 395 736 379 722 c 1,5,6
 351 743 351 743 302.5 770 c 128,-1,7
 254 797 254 797 229.5 815 c 128,-1,8
 205 833 205 833 205 853 c 0,9,10
 205 879 205 879 240 899 c 1,0,1
355 -10 m 0,11,12
 215 -10 215 -10 132 83 c 128,-1,13
 49 176 49 176 49 331 c 0,14,15
 49 488 49 488 132 580.5 c 128,-1,16
 215 673 215 673 355 673 c 0,17,18
 496 673 496 673 579.5 580.5 c 128,-1,19
 663 488 663 488 663 331 c 0,20,21
 663 176 663 176 579.5 83 c 128,-1,22
 496 -10 496 -10 355 -10 c 0,11,12
579 313 m 0,23,24
 579 369 579 369 566.5 420 c 128,-1,25
 554 471 554 471 529 515 c 128,-1,26
 504 559 504 559 459 585.5 c 128,-1,27
 414 612 414 612 356 612 c 0,28,29
 253 612 253 612 192 541.5 c 128,-1,30
 131 471 131 471 131 362 c 0,31,32
 131 303 131 303 143.5 250 c 128,-1,33
 156 197 156 197 181 151 c 128,-1,34
 206 105 206 105 250.5 78 c 128,-1,35
 295 51 295 51 354 51 c 0,36,37
 462 51 462 51 520.5 123.5 c 128,-1,38
 579 196 579 196 579 313 c 0,23,24
EndSplineSet
EndChar

StartChar: Oacute
Encoding: 211 211 146
Width: 712
GlyphClass: 2
Flags: W
LayerCount: 2
Fore
SplineSet
481 816 m 0,0,1
 459 800 459 800 401.5 766.5 c 128,-1,2
 344 733 344 733 331 721 c 1,3,4
 315 735 315 735 315 750 c 0,5,6
 315 767 315 767 331 779.5 c 128,-1,7
 347 792 347 792 388.5 823 c 128,-1,8
 430 854 430 854 471 899 c 1,9,10
 506 879 506 879 506 853 c 0,11,12
 506 833 506 833 481 816 c 0,0,1
355 -10 m 0,13,14
 215 -10 215 -10 132 83 c 128,-1,15
 49 176 49 176 49 331 c 0,16,17
 49 488 49 488 132 580.5 c 128,-1,18
 215 673 215 673 355 673 c 0,19,20
 496 673 496 673 579.5 580.5 c 128,-1,21
 663 488 663 488 663 331 c 0,22,23
 663 176 663 176 579.5 83 c 128,-1,24
 496 -10 496 -10 355 -10 c 0,13,14
579 313 m 0,25,26
 579 369 579 369 566.5 420 c 128,-1,27
 554 471 554 471 529 515 c 128,-1,28
 504 559 504 559 459 585.5 c 128,-1,29
 414 612 414 612 356 612 c 0,30,31
 253 612 253 612 192 541.5 c 128,-1,32
 131 471 131 471 131 362 c 0,33,34
 131 303 131 303 143.5 250 c 128,-1,35
 156 197 156 197 181 151 c 128,-1,36
 206 105 206 105 250.5 78 c 128,-1,37
 295 51 295 51 354 51 c 0,38,39
 462 51 462 51 520.5 123.5 c 128,-1,40
 579 196 579 196 579 313 c 0,25,26
EndSplineSet
EndChar

StartChar: Ocircumflex
Encoding: 212 212 147
Width: 712
GlyphClass: 2
Flags: W
LayerCount: 2
Fore
SplineSet
356 868 m 1,0,1
 403 838 403 838 444.5 800.5 c 128,-1,2
 486 763 486 763 486 736 c 0,3,4
 486 718 486 718 463 708 c 1,5,6
 444 732 444 732 417 754 c 128,-1,7
 390 776 390 776 372 786 c 2,8,-1
 354 797 l 1,9,10
 348 792 348 792 335.5 781.5 c 128,-1,11
 323 771 323 771 315.5 765 c 128,-1,12
 308 759 308 759 297 750.5 c 128,-1,13
 286 742 286 742 278.5 736.5 c 128,-1,14
 271 731 271 731 263.5 726 c 128,-1,15
 256 721 256 721 250 718.5 c 128,-1,16
 244 716 244 716 240 716 c 0,17,18
 228 716 228 716 215 734 c 1,19,20
 279 811 279 811 356 868 c 1,0,1
355 -10 m 0,21,22
 215 -10 215 -10 132 83 c 128,-1,23
 49 176 49 176 49 331 c 0,24,25
 49 488 49 488 132 580.5 c 128,-1,26
 215 673 215 673 355 673 c 0,27,28
 496 673 496 673 579.5 580.5 c 128,-1,29
 663 488 663 488 663 331 c 0,30,31
 663 176 663 176 579.5 83 c 128,-1,32
 496 -10 496 -10 355 -10 c 0,21,22
579 313 m 0,33,34
 579 369 579 369 566.5 420 c 128,-1,35
 554 471 554 471 529 515 c 128,-1,36
 504 559 504 559 459 585.5 c 128,-1,37
 414 612 414 612 356 612 c 0,38,39
 253 612 253 612 192 541.5 c 128,-1,40
 131 471 131 471 131 362 c 0,41,42
 131 303 131 303 143.5 250 c 128,-1,43
 156 197 156 197 181 151 c 128,-1,44
 206 105 206 105 250.5 78 c 128,-1,45
 295 51 295 51 354 51 c 0,46,47
 462 51 462 51 520.5 123.5 c 128,-1,48
 579 196 579 196 579 313 c 0,33,34
EndSplineSet
EndChar

StartChar: Otilde
Encoding: 213 213 148
Width: 712
GlyphClass: 2
Flags: W
LayerCount: 2
Fore
SplineSet
499 803 m 0,0,1
 499 775 499 775 468 749 c 128,-1,2
 437 723 437 723 402 723 c 0,3,4
 381 723 381 723 343.5 745.5 c 128,-1,5
 306 768 306 768 288 768 c 128,-1,6
 270 768 270 768 229 726 c 1,7,8
 213 733 213 733 213 747 c 0,9,10
 213 774 213 774 244.5 800.5 c 128,-1,11
 276 827 276 827 311 827 c 0,12,13
 329 827 329 827 368 804.5 c 128,-1,14
 407 782 407 782 424 782 c 0,15,16
 447 782 447 782 483 824 c 1,17,18
 499 818 499 818 499 803 c 0,0,1
355 -10 m 0,19,20
 215 -10 215 -10 132 83 c 128,-1,21
 49 176 49 176 49 331 c 0,22,23
 49 488 49 488 132 580.5 c 128,-1,24
 215 673 215 673 355 673 c 0,25,26
 496 673 496 673 579.5 580.5 c 128,-1,27
 663 488 663 488 663 331 c 0,28,29
 663 176 663 176 579.5 83 c 128,-1,30
 496 -10 496 -10 355 -10 c 0,19,20
579 313 m 0,31,32
 579 369 579 369 566.5 420 c 128,-1,33
 554 471 554 471 529 515 c 128,-1,34
 504 559 504 559 459 585.5 c 128,-1,35
 414 612 414 612 356 612 c 0,36,37
 253 612 253 612 192 541.5 c 128,-1,38
 131 471 131 471 131 362 c 0,39,40
 131 303 131 303 143.5 250 c 128,-1,41
 156 197 156 197 181 151 c 128,-1,42
 206 105 206 105 250.5 78 c 128,-1,43
 295 51 295 51 354 51 c 0,44,45
 462 51 462 51 520.5 123.5 c 128,-1,46
 579 196 579 196 579 313 c 0,31,32
EndSplineSet
EndChar

StartChar: Odieresis
Encoding: 214 214 149
Width: 712
GlyphClass: 2
Flags: W
LayerCount: 2
Fore
SplineSet
355 -10 m 0,0,1
 215 -10 215 -10 132 83 c 128,-1,2
 49 176 49 176 49 331 c 0,3,4
 49 488 49 488 132 580.5 c 128,-1,5
 215 673 215 673 355 673 c 0,6,7
 496 673 496 673 579.5 580.5 c 128,-1,8
 663 488 663 488 663 331 c 0,9,10
 663 176 663 176 579.5 83 c 128,-1,11
 496 -10 496 -10 355 -10 c 0,0,1
579 313 m 0,12,13
 579 369 579 369 566.5 420 c 128,-1,14
 554 471 554 471 529 515 c 128,-1,15
 504 559 504 559 459 585.5 c 128,-1,16
 414 612 414 612 356 612 c 0,17,18
 253 612 253 612 192 541.5 c 128,-1,19
 131 471 131 471 131 362 c 0,20,21
 131 303 131 303 143.5 250 c 128,-1,22
 156 197 156 197 181 151 c 128,-1,23
 206 105 206 105 250.5 78 c 128,-1,24
 295 51 295 51 354 51 c 0,25,26
 462 51 462 51 520.5 123.5 c 128,-1,27
 579 196 579 196 579 313 c 0,12,13
444 712 m 0,28,29
 423 712 423 712 408 727 c 128,-1,30
 393 742 393 742 393 766 c 0,31,32
 393 788 393 788 409 803.5 c 128,-1,33
 425 819 425 819 446 819 c 0,34,35
 466 819 466 819 481 803.5 c 128,-1,36
 496 788 496 788 496 766 c 0,37,38
 496 743 496 743 480 727.5 c 128,-1,39
 464 712 464 712 444 712 c 0,28,29
266 712 m 0,40,41
 245 712 245 712 230 727 c 128,-1,42
 215 742 215 742 215 766 c 0,43,44
 215 788 215 788 231 803.5 c 128,-1,45
 247 819 247 819 268 819 c 0,46,47
 288 819 288 819 303 803.5 c 128,-1,48
 318 788 318 788 318 766 c 0,49,50
 318 743 318 743 302 727.5 c 128,-1,51
 286 712 286 712 266 712 c 0,40,41
EndSplineSet
EndChar

StartChar: multiply
Encoding: 215 215 150
Width: 535
GlyphClass: 2
Flags: W
LayerCount: 2
Fore
SplineSet
307 252 m 1,0,1
 417 142 417 142 473 97 c 1,2,3
 451 60 451 60 422 60 c 0,4,5
 409 60 409 60 399 70 c 0,6,7
 386 83 386 83 334 139.5 c 128,-1,8
 282 196 282 196 266 212 c 1,9,10
 167 115 167 115 111 46 c 1,11,12
 73 72 73 72 73 97 c 0,13,14
 73 110 73 110 83 120 c 2,15,-1
 226 253 l 1,16,17
 101 373 101 373 61 408 c 1,18,19
 85 446 85 446 111 446 c 0,20,21
 124 446 124 446 135 435 c 0,22,23
 141 429 141 429 162.5 405.5 c 128,-1,24
 184 382 184 382 215 349 c 128,-1,25
 246 316 246 316 267 293 c 1,26,27
 377 403 377 403 422 459 c 1,28,29
 436 451 436 451 447.5 437 c 128,-1,30
 459 423 459 423 459 408 c 0,31,32
 459 395 459 395 449 385 c 0,33,34
 436 372 436 372 379.5 320 c 128,-1,35
 323 268 323 268 307 252 c 1,0,1
EndSplineSet
EndChar

StartChar: Oslash
Encoding: 216 216 151
Width: 712
GlyphClass: 2
Flags: W
LayerCount: 2
Fore
SplineSet
579 313 m 0,0,1
 579 455 579 455 512 539 c 1,2,-1
 256 75 l 1,3,4
 298 51 298 51 354 51 c 0,5,6
 462 51 462 51 520.5 123.5 c 128,-1,7
 579 196 579 196 579 313 c 0,0,1
131 362 m 0,8,9
 131 194 131 194 213 108 c 1,10,-1
 472 577 l 1,11,12
 423 612 423 612 356 612 c 0,13,14
 253 612 253 612 192 541.5 c 128,-1,15
 131 471 131 471 131 362 c 0,8,9
135 -33 m 2,16,-1
 177 43 l 1,17,18
 49 133 49 133 49 331 c 0,19,20
 49 488 49 488 132 580.5 c 128,-1,21
 215 673 215 673 355 673 c 0,22,23
 438 673 438 673 504 639 c 1,24,25
 539 705 539 705 557 744 c 1,26,27
 574 743 574 743 588.5 734.5 c 128,-1,28
 603 726 603 726 603 713 c 0,29,30
 603 704 603 704 597 693 c 2,31,-1
 550 608 l 1,32,33
 663 517 663 517 663 331 c 0,34,35
 663 176 663 176 579.5 83 c 128,-1,36
 496 -10 496 -10 355 -10 c 0,37,38
 284 -10 284 -10 225 15 c 1,39,40
 194 -43 194 -43 175 -84 c 1,41,42
 129 -78 129 -78 129 -52 c 0,43,44
 129 -45 129 -45 135 -33 c 2,16,-1
EndSplineSet
EndChar

StartChar: Ugrave
Encoding: 217 217 152
Width: 644
GlyphClass: 2
Flags: W
LayerCount: 2
Fore
SplineSet
209 899 m 1,0,1
 246 858 246 858 287 826.5 c 128,-1,2
 328 795 328 795 346 780.5 c 128,-1,3
 364 766 364 766 364 751 c 128,-1,4
 364 736 364 736 348 722 c 1,5,6
 320 743 320 743 271.5 770 c 128,-1,7
 223 797 223 797 198.5 815 c 128,-1,8
 174 833 174 833 174 853 c 0,9,10
 174 879 174 879 209 899 c 1,0,1
72 658 m 1,11,12
 92 666 92 666 117 666 c 0,13,14
 146 666 146 666 159.5 654.5 c 128,-1,15
 173 643 173 643 173 615 c 0,16,17
 173 572 173 572 165.5 425.5 c 128,-1,18
 158 279 158 279 158 198 c 0,19,20
 158 128 158 128 198.5 91 c 128,-1,21
 239 54 239 54 292 54 c 0,22,23
 341 54 341 54 395 78 c 128,-1,24
 449 102 449 102 483 134 c 1,25,26
 483 141 483 141 483.5 168.5 c 128,-1,27
 484 196 484 196 484 262.5 c 128,-1,28
 484 329 484 329 484 431 c 0,29,30
 484 572 484 572 477 663 c 1,31,32
 494 666 494 666 518 666 c 0,33,34
 567 666 567 666 567 628 c 0,35,36
 567 626 567 626 565 591 c 128,-1,37
 563 556 563 556 561 481.5 c 128,-1,38
 559 407 559 407 559 309 c 0,39,40
 559 154 559 154 562 101.5 c 128,-1,41
 565 49 565 49 578 5 c 1,42,43
 560 -3 560 -3 531 -3 c 0,44,45
 503 -3 503 -3 492.5 9.5 c 128,-1,46
 482 22 482 22 482 56 c 2,47,-1
 482 67 l 1,48,49
 442 33 442 33 386 11.5 c 128,-1,50
 330 -10 330 -10 283 -10 c 0,51,52
 189 -10 189 -10 134.5 34.5 c 128,-1,53
 80 79 80 79 80 192 c 0,54,55
 80 251 80 251 84.5 352 c 128,-1,56
 89 453 89 453 89 501 c 0,57,58
 89 596 89 596 72 658 c 1,11,12
EndSplineSet
EndChar

StartChar: Uacute
Encoding: 218 218 153
Width: 644
GlyphClass: 2
Flags: W
LayerCount: 2
Fore
SplineSet
450 816 m 0,0,1
 428 800 428 800 370.5 766.5 c 128,-1,2
 313 733 313 733 300 721 c 1,3,4
 284 735 284 735 284 750 c 0,5,6
 284 767 284 767 300 779.5 c 128,-1,7
 316 792 316 792 357.5 823 c 128,-1,8
 399 854 399 854 440 899 c 1,9,10
 475 879 475 879 475 853 c 0,11,12
 475 833 475 833 450 816 c 0,0,1
72 658 m 1,13,14
 92 666 92 666 117 666 c 0,15,16
 146 666 146 666 159.5 654.5 c 128,-1,17
 173 643 173 643 173 615 c 0,18,19
 173 572 173 572 165.5 425.5 c 128,-1,20
 158 279 158 279 158 198 c 0,21,22
 158 128 158 128 198.5 91 c 128,-1,23
 239 54 239 54 292 54 c 0,24,25
 341 54 341 54 395 78 c 128,-1,26
 449 102 449 102 483 134 c 1,27,28
 483 141 483 141 483.5 168.5 c 128,-1,29
 484 196 484 196 484 262.5 c 128,-1,30
 484 329 484 329 484 431 c 0,31,32
 484 572 484 572 477 663 c 1,33,34
 494 666 494 666 518 666 c 0,35,36
 567 666 567 666 567 628 c 0,37,38
 567 626 567 626 565 591 c 128,-1,39
 563 556 563 556 561 481.5 c 128,-1,40
 559 407 559 407 559 309 c 0,41,42
 559 154 559 154 562 101.5 c 128,-1,43
 565 49 565 49 578 5 c 1,44,45
 560 -3 560 -3 531 -3 c 0,46,47
 503 -3 503 -3 492.5 9.5 c 128,-1,48
 482 22 482 22 482 56 c 2,49,-1
 482 67 l 1,50,51
 442 33 442 33 386 11.5 c 128,-1,52
 330 -10 330 -10 283 -10 c 0,53,54
 189 -10 189 -10 134.5 34.5 c 128,-1,55
 80 79 80 79 80 192 c 0,56,57
 80 251 80 251 84.5 352 c 128,-1,58
 89 453 89 453 89 501 c 0,59,60
 89 596 89 596 72 658 c 1,13,14
EndSplineSet
EndChar

StartChar: Ucircumflex
Encoding: 219 219 154
Width: 644
GlyphClass: 2
Flags: W
LayerCount: 2
Fore
SplineSet
325 869 m 1,0,1
 372 839 372 839 413.5 801.5 c 128,-1,2
 455 764 455 764 455 737 c 0,3,4
 455 719 455 719 432 709 c 1,5,6
 413 733 413 733 386 755.5 c 128,-1,7
 359 778 359 778 341 788 c 2,8,-1
 323 798 l 1,9,10
 317 793 317 793 304.5 782.5 c 128,-1,11
 292 772 292 772 284.5 766 c 128,-1,12
 277 760 277 760 266 751.5 c 128,-1,13
 255 743 255 743 247.5 737.5 c 128,-1,14
 240 732 240 732 232.5 727 c 128,-1,15
 225 722 225 722 219 719.5 c 128,-1,16
 213 717 213 717 209 717 c 0,17,18
 197 717 197 717 184 735 c 1,19,20
 248 812 248 812 325 869 c 1,0,1
72 658 m 1,21,22
 92 666 92 666 117 666 c 0,23,24
 146 666 146 666 159.5 654.5 c 128,-1,25
 173 643 173 643 173 615 c 0,26,27
 173 572 173 572 165.5 425.5 c 128,-1,28
 158 279 158 279 158 198 c 0,29,30
 158 128 158 128 198.5 91 c 128,-1,31
 239 54 239 54 292 54 c 0,32,33
 341 54 341 54 395 78 c 128,-1,34
 449 102 449 102 483 134 c 1,35,36
 483 141 483 141 483.5 168.5 c 128,-1,37
 484 196 484 196 484 262.5 c 128,-1,38
 484 329 484 329 484 431 c 0,39,40
 484 572 484 572 477 663 c 1,41,42
 494 666 494 666 518 666 c 0,43,44
 567 666 567 666 567 628 c 0,45,46
 567 626 567 626 565 591 c 128,-1,47
 563 556 563 556 561 481.5 c 128,-1,48
 559 407 559 407 559 309 c 0,49,50
 559 154 559 154 562 101.5 c 128,-1,51
 565 49 565 49 578 5 c 1,52,53
 560 -3 560 -3 531 -3 c 0,54,55
 503 -3 503 -3 492.5 9.5 c 128,-1,56
 482 22 482 22 482 56 c 2,57,-1
 482 67 l 1,58,59
 442 33 442 33 386 11.5 c 128,-1,60
 330 -10 330 -10 283 -10 c 0,61,62
 189 -10 189 -10 134.5 34.5 c 128,-1,63
 80 79 80 79 80 192 c 0,64,65
 80 251 80 251 84.5 352 c 128,-1,66
 89 453 89 453 89 501 c 0,67,68
 89 596 89 596 72 658 c 1,21,22
EndSplineSet
EndChar

StartChar: Udieresis
Encoding: 220 220 155
Width: 644
GlyphClass: 2
Flags: W
LayerCount: 2
Fore
SplineSet
72 658 m 1,0,1
 92 666 92 666 117 666 c 0,2,3
 146 666 146 666 159.5 654.5 c 128,-1,4
 173 643 173 643 173 615 c 0,5,6
 173 572 173 572 165.5 425.5 c 128,-1,7
 158 279 158 279 158 198 c 0,8,9
 158 128 158 128 198.5 91 c 128,-1,10
 239 54 239 54 292 54 c 0,11,12
 341 54 341 54 395 78 c 128,-1,13
 449 102 449 102 483 134 c 1,14,15
 483 141 483 141 483.5 168.5 c 128,-1,16
 484 196 484 196 484 262.5 c 128,-1,17
 484 329 484 329 484 431 c 0,18,19
 484 572 484 572 477 663 c 1,20,21
 494 666 494 666 518 666 c 0,22,23
 567 666 567 666 567 628 c 0,24,25
 567 626 567 626 565 591 c 128,-1,26
 563 556 563 556 561 481.5 c 128,-1,27
 559 407 559 407 559 309 c 0,28,29
 559 154 559 154 562 101.5 c 128,-1,30
 565 49 565 49 578 5 c 1,31,32
 560 -3 560 -3 531 -3 c 0,33,34
 503 -3 503 -3 492.5 9.5 c 128,-1,35
 482 22 482 22 482 56 c 2,36,-1
 482 67 l 1,37,38
 442 33 442 33 386 11.5 c 128,-1,39
 330 -10 330 -10 283 -10 c 0,40,41
 189 -10 189 -10 134.5 34.5 c 128,-1,42
 80 79 80 79 80 192 c 0,43,44
 80 251 80 251 84.5 352 c 128,-1,45
 89 453 89 453 89 501 c 0,46,47
 89 596 89 596 72 658 c 1,0,1
410 712 m 0,48,49
 389 712 389 712 374 727 c 128,-1,50
 359 742 359 742 359 766 c 0,51,52
 359 788 359 788 375 803.5 c 128,-1,53
 391 819 391 819 412 819 c 0,54,55
 432 819 432 819 447 803.5 c 128,-1,56
 462 788 462 788 462 766 c 0,57,58
 462 743 462 743 446 727.5 c 128,-1,59
 430 712 430 712 410 712 c 0,48,49
232 712 m 0,60,61
 211 712 211 712 196 727 c 128,-1,62
 181 742 181 742 181 766 c 0,63,64
 181 788 181 788 197 803.5 c 128,-1,65
 213 819 213 819 234 819 c 0,66,67
 254 819 254 819 269 803.5 c 128,-1,68
 284 788 284 788 284 766 c 0,69,70
 284 743 284 743 268 727.5 c 128,-1,71
 252 712 252 712 232 712 c 0,60,61
EndSplineSet
EndChar

StartChar: Yacute
Encoding: 221 221 156
Width: 501
GlyphClass: 2
Flags: W
LayerCount: 2
Fore
SplineSet
372 816 m 0,0,1
 350 800 350 800 292.5 766.5 c 128,-1,2
 235 733 235 733 222 721 c 1,3,4
 206 735 206 735 206 750 c 0,5,6
 206 767 206 767 222 779.5 c 128,-1,7
 238 792 238 792 279.5 823 c 128,-1,8
 321 854 321 854 362 899 c 1,9,10
 397 879 397 879 397 853 c 0,11,12
 397 833 397 833 372 816 c 0,0,1
496 627 m 0,13,14
 496 602 496 602 420 485.5 c 128,-1,15
 344 369 344 369 287 301 c 1,16,-1
 287 216 l 2,17,18
 287 70 287 70 306 5 c 1,19,20
 288 -3 288 -3 259 -3 c 128,-1,21
 230 -3 230 -3 220 10 c 128,-1,22
 210 23 210 23 210 54 c 0,23,24
 211 146 211 146 212 232 c 1,25,-1
 212 294 l 1,26,27
 67 567 67 567 -10 619 c 1,28,29
 -7 623 -7 623 2.5 634 c 128,-1,30
 12 645 12 645 15.5 648 c 128,-1,31
 19 651 19 651 26 657 c 128,-1,32
 33 663 33 663 39 665 c 128,-1,33
 45 667 45 667 53 667 c 0,34,35
 78 667 78 667 101 633 c 0,36,37
 161 546 161 546 261 361 c 1,38,39
 309 424 309 424 363.5 529.5 c 128,-1,40
 418 635 418 635 420 672 c 1,41,42
 496 667 496 667 496 627 c 0,13,14
EndSplineSet
EndChar

StartChar: Thorn
Encoding: 222 222 157
Width: 512
GlyphClass: 2
Flags: W
LayerCount: 2
Fore
SplineSet
248 189 m 0,0,1
 316 189 316 189 354.5 228.5 c 128,-1,2
 393 268 393 268 393 335 c 0,3,4
 393 427 393 427 350 462 c 128,-1,5
 307 497 307 497 216 497 c 0,6,7
 193 497 193 497 149 493 c 1,8,9
 148 465 148 465 148 338 c 2,10,-1
 148 214 l 1,11,12
 192 189 192 189 248 189 c 0,0,1
107 666 m 0,13,14
 156 666 156 666 156 628 c 0,15,16
 156 624 156 624 155.5 614.5 c 128,-1,17
 155 605 155 605 154 587 c 128,-1,18
 153 569 153 569 152 555 c 1,19,20
 184 558 184 558 209 558 c 0,21,22
 477 558 477 558 477 342 c 0,23,24
 477 238 477 238 414.5 183 c 128,-1,25
 352 128 352 128 268 128 c 0,26,27
 197 128 197 128 148 160 c 1,28,29
 148 67 148 67 167 5 c 1,30,31
 149 -3 149 -3 120 -3 c 128,-1,32
 91 -3 91 -3 81 10 c 128,-1,33
 71 23 71 23 71 54 c 0,34,35
 71 70 71 70 72 133 c 128,-1,36
 73 196 73 196 73 231 c 2,37,-1
 73 431 l 2,38,39
 73 572 73 572 66 663 c 1,40,41
 83 666 83 666 107 666 c 0,13,14
EndSplineSet
EndChar

StartChar: germandbls
Encoding: 223 223 158
Width: 520
GlyphClass: 2
Flags: W
LayerCount: 2
Fore
SplineSet
151 491 m 2,0,-1
 151 196 l 2,1,2
 151 157 151 157 151.5 107.5 c 128,-1,3
 152 58 152 58 152 49 c 0,4,5
 152 21 152 21 141.5 9 c 128,-1,6
 131 -3 131 -3 103 -3 c 0,7,8
 83 -3 83 -3 65 5 c 1,9,10
 85 72 85 72 85 202 c 2,11,-1
 85 464 l 2,12,13
 85 567 85 567 136.5 620 c 128,-1,14
 188 673 188 673 259 673 c 0,15,16
 317 673 317 673 357 644 c 128,-1,17
 397 615 397 615 397 563 c 0,18,19
 397 526 397 526 384 498 c 128,-1,20
 371 470 371 470 352.5 454 c 128,-1,21
 334 438 334 438 315 426 c 128,-1,22
 296 414 296 414 283 399.5 c 128,-1,23
 270 385 270 385 270 368 c 0,24,25
 270 347 270 347 291 327 c 128,-1,26
 312 307 312 307 342 288.5 c 128,-1,27
 372 270 372 270 402.5 249.5 c 128,-1,28
 433 229 433 229 454 197 c 128,-1,29
 475 165 475 165 475 127 c 0,30,31
 475 73 475 73 434 31.5 c 128,-1,32
 393 -10 393 -10 334 -10 c 0,33,34
 288 -10 288 -10 252.5 13 c 128,-1,35
 217 36 217 36 217 70 c 0,36,37
 217 99 217 99 262 112 c 1,38,39
 268 80 268 80 291.5 63 c 128,-1,40
 315 46 315 46 342 46 c 0,41,42
 367 46 367 46 386 66.5 c 128,-1,43
 405 87 405 87 405 115 c 0,44,45
 405 146 405 146 385 171.5 c 128,-1,46
 365 197 365 197 336.5 216 c 128,-1,47
 308 235 308 235 279 254.5 c 128,-1,48
 250 274 250 274 230 302 c 128,-1,49
 210 330 210 330 210 364 c 0,50,51
 210 390 210 390 228.5 412.5 c 128,-1,52
 247 435 247 435 268.5 449.5 c 128,-1,53
 290 464 290 464 308.5 489 c 128,-1,54
 327 514 327 514 327 543 c 0,55,56
 327 578 327 578 306.5 597.5 c 128,-1,57
 286 617 286 617 253 617 c 0,58,59
 211 617 211 617 181 585.5 c 128,-1,60
 151 554 151 554 151 491 c 2,0,-1
EndSplineSet
EndChar

StartChar: agrave
Encoding: 224 224 159
Width: 476
GlyphClass: 2
Flags: W
LayerCount: 2
Fore
SplineSet
128 747 m 1,0,1
 165 706 165 706 206 674.5 c 128,-1,2
 247 643 247 643 265 628.5 c 128,-1,3
 283 614 283 614 283 599 c 128,-1,4
 283 584 283 584 267 570 c 1,5,6
 239 591 239 591 190.5 618 c 128,-1,7
 142 645 142 645 117.5 663 c 128,-1,8
 93 681 93 681 93 701 c 0,9,10
 93 727 93 727 128 747 c 1,0,1
311 211 m 1,11,12
 292 256 292 256 230 424 c 1,13,14
 180 280 180 280 151 212 c 1,15,16
 211 210 211 210 243 210 c 0,17,18
 290 210 290 210 311 211 c 1,11,12
227 157 m 0,19,20
 206 157 206 157 130 159 c 1,21,22
 125 147 125 147 108.5 106 c 128,-1,23
 92 65 92 65 82 37.5 c 128,-1,24
 72 10 72 10 65 -16 c 1,25,26
 6 -8 6 -8 6 15 c 0,27,28
 6 25 6 25 15.5 48 c 128,-1,29
 25 71 25 71 48.5 124.5 c 128,-1,30
 72 178 72 178 93 232 c 0,31,32
 171 433 171 433 195 514 c 1,33,34
 211 517 211 517 232 517 c 0,35,36
 254 517 254 517 263 510.5 c 128,-1,37
 272 504 272 504 283 475 c 0,38,39
 291 454 291 454 326.5 358.5 c 128,-1,40
 362 263 362 263 382 212 c 0,41,42
 430 94 430 94 476 7 c 1,43,44
 448 -7 448 -7 431 -7 c 0,45,46
 401 -7 401 -7 390 13 c 1,47,48
 384 27 384 27 331 159 c 1,49,50
 245 157 245 157 227 157 c 0,19,20
EndSplineSet
EndChar

StartChar: aacute
Encoding: 225 225 160
Width: 476
GlyphClass: 2
Flags: W
LayerCount: 2
Fore
SplineSet
345 664 m 0,0,1
 323 648 323 648 265.5 614.5 c 128,-1,2
 208 581 208 581 195 569 c 1,3,4
 179 583 179 583 179 598 c 0,5,6
 179 615 179 615 195 627.5 c 128,-1,7
 211 640 211 640 252.5 671 c 128,-1,8
 294 702 294 702 335 747 c 1,9,10
 370 727 370 727 370 701 c 0,11,12
 370 681 370 681 345 664 c 0,0,1
311 211 m 1,13,14
 292 256 292 256 230 424 c 1,15,16
 180 280 180 280 151 212 c 1,17,18
 211 210 211 210 243 210 c 0,19,20
 290 210 290 210 311 211 c 1,13,14
227 157 m 0,21,22
 206 157 206 157 130 159 c 1,23,24
 125 147 125 147 108.5 106 c 128,-1,25
 92 65 92 65 82 37.5 c 128,-1,26
 72 10 72 10 65 -16 c 1,27,28
 6 -8 6 -8 6 15 c 0,29,30
 6 25 6 25 15.5 48 c 128,-1,31
 25 71 25 71 48.5 124.5 c 128,-1,32
 72 178 72 178 93 232 c 0,33,34
 171 433 171 433 195 514 c 1,35,36
 211 517 211 517 232 517 c 0,37,38
 254 517 254 517 263 510.5 c 128,-1,39
 272 504 272 504 283 475 c 0,40,41
 291 454 291 454 326.5 358.5 c 128,-1,42
 362 263 362 263 382 212 c 0,43,44
 430 94 430 94 476 7 c 1,45,46
 448 -7 448 -7 431 -7 c 0,47,48
 401 -7 401 -7 390 13 c 1,49,50
 384 27 384 27 331 159 c 1,51,52
 245 157 245 157 227 157 c 0,21,22
EndSplineSet
EndChar

StartChar: acircumflex
Encoding: 226 226 161
Width: 476
GlyphClass: 2
Flags: W
LayerCount: 2
Fore
SplineSet
235 724 m 1,0,1
 282 694 282 694 323.5 656.5 c 128,-1,2
 365 619 365 619 365 592 c 0,3,4
 365 574 365 574 342 564 c 1,5,6
 323 588 323 588 296 610 c 128,-1,7
 269 632 269 632 251 642 c 2,8,-1
 233 653 l 1,9,10
 227 648 227 648 214.5 637.5 c 128,-1,11
 202 627 202 627 194.5 621 c 128,-1,12
 187 615 187 615 176 606.5 c 128,-1,13
 165 598 165 598 157.5 592.5 c 128,-1,14
 150 587 150 587 142.5 582 c 128,-1,15
 135 577 135 577 129 574.5 c 128,-1,16
 123 572 123 572 119 572 c 0,17,18
 107 572 107 572 94 590 c 1,19,20
 158 667 158 667 235 724 c 1,0,1
311 211 m 1,21,22
 292 256 292 256 230 424 c 1,23,24
 180 280 180 280 151 212 c 1,25,26
 211 210 211 210 243 210 c 0,27,28
 290 210 290 210 311 211 c 1,21,22
227 157 m 0,29,30
 206 157 206 157 130 159 c 1,31,32
 125 147 125 147 108.5 106 c 128,-1,33
 92 65 92 65 82 37.5 c 128,-1,34
 72 10 72 10 65 -16 c 1,35,36
 6 -8 6 -8 6 15 c 0,37,38
 6 25 6 25 15.5 48 c 128,-1,39
 25 71 25 71 48.5 124.5 c 128,-1,40
 72 178 72 178 93 232 c 0,41,42
 171 433 171 433 195 514 c 1,43,44
 211 517 211 517 232 517 c 0,45,46
 254 517 254 517 263 510.5 c 128,-1,47
 272 504 272 504 283 475 c 0,48,49
 291 454 291 454 326.5 358.5 c 128,-1,50
 362 263 362 263 382 212 c 0,51,52
 430 94 430 94 476 7 c 1,53,54
 448 -7 448 -7 431 -7 c 0,55,56
 401 -7 401 -7 390 13 c 1,57,58
 384 27 384 27 331 159 c 1,59,60
 245 157 245 157 227 157 c 0,29,30
EndSplineSet
EndChar

StartChar: atilde
Encoding: 227 227 162
Width: 476
GlyphClass: 2
Flags: W
LayerCount: 2
Fore
SplineSet
381 655 m 0,0,1
 381 627 381 627 350 601 c 128,-1,2
 319 575 319 575 284 575 c 0,3,4
 263 575 263 575 225.5 597.5 c 128,-1,5
 188 620 188 620 170 620 c 128,-1,6
 152 620 152 620 111 578 c 1,7,8
 95 585 95 585 95 599 c 0,9,10
 95 626 95 626 126.5 652.5 c 128,-1,11
 158 679 158 679 193 679 c 0,12,13
 211 679 211 679 250 656.5 c 128,-1,14
 289 634 289 634 306 634 c 0,15,16
 329 634 329 634 365 676 c 1,17,18
 381 670 381 670 381 655 c 0,0,1
311 211 m 1,19,20
 292 256 292 256 230 424 c 1,21,22
 180 280 180 280 151 212 c 1,23,24
 211 210 211 210 243 210 c 0,25,26
 290 210 290 210 311 211 c 1,19,20
227 157 m 0,27,28
 206 157 206 157 130 159 c 1,29,30
 125 147 125 147 108.5 106 c 128,-1,31
 92 65 92 65 82 37.5 c 128,-1,32
 72 10 72 10 65 -16 c 1,33,34
 6 -8 6 -8 6 15 c 0,35,36
 6 25 6 25 15.5 48 c 128,-1,37
 25 71 25 71 48.5 124.5 c 128,-1,38
 72 178 72 178 93 232 c 0,39,40
 171 433 171 433 195 514 c 1,41,42
 211 517 211 517 232 517 c 0,43,44
 254 517 254 517 263 510.5 c 128,-1,45
 272 504 272 504 283 475 c 0,46,47
 291 454 291 454 326.5 358.5 c 128,-1,48
 362 263 362 263 382 212 c 0,49,50
 430 94 430 94 476 7 c 1,51,52
 448 -7 448 -7 431 -7 c 0,53,54
 401 -7 401 -7 390 13 c 1,55,56
 384 27 384 27 331 159 c 1,57,58
 245 157 245 157 227 157 c 0,27,28
EndSplineSet
EndChar

StartChar: adieresis
Encoding: 228 228 163
Width: 476
GlyphClass: 2
Flags: W
LayerCount: 2
Fore
SplineSet
311 211 m 1,0,1
 292 256 292 256 230 424 c 1,2,3
 180 280 180 280 151 212 c 1,4,5
 211 210 211 210 243 210 c 0,6,7
 290 210 290 210 311 211 c 1,0,1
227 157 m 0,8,9
 206 157 206 157 130 159 c 1,10,11
 125 147 125 147 108.5 106 c 128,-1,12
 92 65 92 65 82 37.5 c 128,-1,13
 72 10 72 10 65 -16 c 1,14,15
 6 -8 6 -8 6 15 c 0,16,17
 6 25 6 25 15.5 48 c 128,-1,18
 25 71 25 71 48.5 124.5 c 128,-1,19
 72 178 72 178 93 232 c 0,20,21
 171 433 171 433 195 514 c 1,22,23
 211 517 211 517 232 517 c 0,24,25
 254 517 254 517 263 510.5 c 128,-1,26
 272 504 272 504 283 475 c 0,27,28
 291 454 291 454 326.5 358.5 c 128,-1,29
 362 263 362 263 382 212 c 0,30,31
 430 94 430 94 476 7 c 1,32,33
 448 -7 448 -7 431 -7 c 0,34,35
 401 -7 401 -7 390 13 c 1,36,37
 384 27 384 27 331 159 c 1,38,39
 245 157 245 157 227 157 c 0,8,9
319 562 m 0,40,41
 298 562 298 562 283 577 c 128,-1,42
 268 592 268 592 268 616 c 0,43,44
 268 638 268 638 284 653.5 c 128,-1,45
 300 669 300 669 321 669 c 0,46,47
 341 669 341 669 356 653.5 c 128,-1,48
 371 638 371 638 371 616 c 0,49,50
 371 593 371 593 355 577.5 c 128,-1,51
 339 562 339 562 319 562 c 0,40,41
141 562 m 0,52,53
 120 562 120 562 105 577 c 128,-1,54
 90 592 90 592 90 616 c 0,55,56
 90 638 90 638 106 653.5 c 128,-1,57
 122 669 122 669 143 669 c 0,58,59
 163 669 163 669 178 653.5 c 128,-1,60
 193 638 193 638 193 616 c 0,61,62
 193 593 193 593 177 577.5 c 128,-1,63
 161 562 161 562 141 562 c 0,52,53
EndSplineSet
EndChar

StartChar: aring
Encoding: 229 229 164
Width: 476
GlyphClass: 2
Flags: W
LayerCount: 2
Fore
SplineSet
230 565 m 0,0,1
 190 565 190 565 165.5 589.5 c 128,-1,2
 141 614 141 614 141 654 c 128,-1,3
 141 694 141 694 165.5 718.5 c 128,-1,4
 190 743 190 743 230 743 c 0,5,6
 269 743 269 743 293 718.5 c 128,-1,7
 317 694 317 694 317 654 c 128,-1,8
 317 614 317 614 293 589.5 c 128,-1,9
 269 565 269 565 230 565 c 0,0,1
275 649 m 0,10,11
 275 676 275 676 263 693 c 128,-1,12
 251 710 251 710 230 710 c 0,13,14
 208 710 208 710 195.5 696 c 128,-1,15
 183 682 183 682 183 658 c 0,16,17
 183 632 183 632 195.5 615 c 128,-1,18
 208 598 208 598 230 598 c 0,19,20
 251 598 251 598 263 611.5 c 128,-1,21
 275 625 275 625 275 649 c 0,10,11
311 211 m 1,22,23
 292 256 292 256 230 424 c 1,24,25
 180 280 180 280 151 212 c 1,26,27
 211 210 211 210 243 210 c 0,28,29
 290 210 290 210 311 211 c 1,22,23
227 157 m 0,30,31
 206 157 206 157 130 159 c 1,32,33
 125 147 125 147 108.5 106 c 128,-1,34
 92 65 92 65 82 37.5 c 128,-1,35
 72 10 72 10 65 -16 c 1,36,37
 6 -8 6 -8 6 15 c 0,38,39
 6 25 6 25 15.5 48 c 128,-1,40
 25 71 25 71 48.5 124.5 c 128,-1,41
 72 178 72 178 93 232 c 0,42,43
 171 433 171 433 195 514 c 1,44,45
 211 517 211 517 232 517 c 0,46,47
 254 517 254 517 263 510.5 c 128,-1,48
 272 504 272 504 283 475 c 0,49,50
 291 454 291 454 326.5 358.5 c 128,-1,51
 362 263 362 263 382 212 c 0,52,53
 430 94 430 94 476 7 c 1,54,55
 448 -7 448 -7 431 -7 c 0,56,57
 401 -7 401 -7 390 13 c 1,58,59
 384 27 384 27 331 159 c 1,60,61
 245 157 245 157 227 157 c 0,30,31
EndSplineSet
EndChar

StartChar: ae
Encoding: 230 230 165
Width: 649
GlyphClass: 2
Flags: W
LayerCount: 2
Fore
SplineSet
296 157 m 1,0,-1
 245 157 l 2,1,2
 224 157 224 157 148 159 c 1,3,4
 67 15 67 15 53 -16 c 1,5,6
 0 -6 0 -6 0 23 c 0,7,8
 0 34 0 34 27.5 78.5 c 128,-1,9
 55 123 55 123 124 242 c 128,-1,10
 193 361 193 361 266 509 c 1,11,12
 307 519 307 519 467 519 c 0,13,14
 588 519 588 519 603 507 c 0,15,16
 611 500 611 500 611 484 c 0,17,18
 611 464 611 464 604 446 c 1,19,20
 556 462 556 462 454 462 c 0,21,22
 415 462 415 462 365 460 c 1,23,24
 368 436 368 436 368 305 c 1,25,-1
 432 305 l 2,26,27
 499 305 499 305 528 308 c 1,28,29
 531 301 531 301 531 286 c 0,30,31
 531 266 531 266 522.5 258.5 c 128,-1,32
 514 251 514 251 496 250 c 0,33,34
 475 249 475 249 439 249 c 2,35,-1
 368 249 l 1,36,37
 368 88 368 88 374 55 c 1,38,39
 410 53 410 53 432 53 c 0,40,41
 564 53 564 53 605 71 c 1,42,43
 612 53 612 53 612 33 c 0,44,45
 612 17 612 17 604 10 c 0,46,47
 589 -1 589 -1 468 -1 c 0,48,49
 445 -1 445 -1 391.5 -0.5 c 128,-1,50
 338 0 338 0 336 0 c 0,51,52
 311 1 311 1 302.5 11 c 128,-1,53
 294 21 294 21 294 44 c 0,54,55
 294 71 294 71 296 157 c 1,0,-1
296 210 m 1,56,-1
 296 333 l 2,57,58
 296 364 296 364 294 422 c 1,59,60
 213 269 213 269 179 212 c 1,61,62
 239 210 239 210 270 210 c 2,63,-1
 296 210 l 1,56,-1
EndSplineSet
EndChar

StartChar: ccedilla
Encoding: 231 231 166
Width: 522
GlyphClass: 2
Flags: W
LayerCount: 2
Fore
SplineSet
433 113 m 1,0,1
 472 97 472 97 472 68 c 128,-1,2
 472 39 472 39 429 17 c 128,-1,3
 386 -5 386 -5 319 -7 c 1,4,5
 314 -22 314 -22 314 -30 c 0,6,7
 314 -33 314 -33 314.5 -36 c 128,-1,8
 315 -39 315 -39 317 -41 c 128,-1,9
 319 -43 319 -43 320 -45 c 128,-1,10
 321 -47 321 -47 324.5 -49.5 c 128,-1,11
 328 -52 328 -52 329.5 -53 c 128,-1,12
 331 -54 331 -54 335 -56.5 c 128,-1,13
 339 -59 339 -59 341 -60 c 0,14,15
 388 -87 388 -87 388 -133 c 0,16,17
 388 -171 388 -171 353.5 -201.5 c 128,-1,18
 319 -232 319 -232 268 -232 c 0,19,20
 233 -232 233 -232 233 -207 c 0,21,22
 233 -191 233 -191 246 -178 c 1,23,24
 261 -187 261 -187 277 -187 c 0,25,26
 327 -187 327 -187 327 -147 c 0,27,28
 327 -124 327 -124 296.5 -98.5 c 128,-1,29
 266 -73 266 -73 266 -54 c 0,30,31
 266 -38 266 -38 278 -5 c 1,32,33
 172 4 172 4 110 75.5 c 128,-1,34
 48 147 48 147 48 258 c 0,35,36
 48 383 48 383 118.5 453.5 c 128,-1,37
 189 524 189 524 311 524 c 0,38,39
 376 524 376 524 420 499.5 c 128,-1,40
 464 475 464 475 464 439 c 0,41,42
 464 402 464 402 409 393 c 1,43,44
 395 430 395 430 362.5 449.5 c 128,-1,45
 330 469 330 469 294 469 c 0,46,47
 221 469 221 469 174 413 c 128,-1,48
 127 357 127 357 127 274 c 0,49,50
 127 177 127 177 174 112 c 128,-1,51
 221 47 221 47 306 47 c 0,52,53
 344 47 344 47 378.5 64 c 128,-1,54
 413 81 413 81 433 113 c 1,0,1
EndSplineSet
EndChar

StartChar: egrave
Encoding: 232 232 167
Width: 447
GlyphClass: 2
Flags: W
LayerCount: 2
Fore
SplineSet
136 747 m 1,0,1
 173 706 173 706 214 674.5 c 128,-1,2
 255 643 255 643 273 628.5 c 128,-1,3
 291 614 291 614 291 599 c 128,-1,4
 291 584 291 584 275 570 c 1,5,6
 247 591 247 591 198.5 618 c 128,-1,7
 150 645 150 645 125.5 663 c 128,-1,8
 101 681 101 681 101 701 c 0,9,10
 101 727 101 727 136 747 c 1,0,1
163 460 m 1,11,12
 166 436 166 436 166 305 c 1,13,-1
 230 305 l 2,14,15
 297 305 297 305 326 308 c 1,16,17
 329 300 329 300 329 286 c 0,18,19
 329 266 329 266 320.5 258.5 c 128,-1,20
 312 251 312 251 294 250 c 0,21,22
 273 249 273 249 237 249 c 2,23,-1
 166 249 l 1,24,25
 166 88 166 88 172 55 c 1,26,27
 208 53 208 53 230 53 c 0,28,29
 362 53 362 53 403 71 c 1,30,31
 410 53 410 53 410 33 c 0,32,33
 410 17 410 17 402 10 c 0,34,35
 387 -1 387 -1 266 -1 c 0,36,37
 242 -1 242 -1 189 -0.5 c 128,-1,38
 136 0 136 0 134 0 c 0,39,40
 109 1 109 1 100.5 11 c 128,-1,41
 92 21 92 21 92 44 c 0,42,43
 92 58 92 58 93 105.5 c 128,-1,44
 94 153 94 153 94 180 c 2,45,-1
 94 333 l 2,46,47
 94 447 94 447 82 512 c 1,48,49
 180 519 180 519 265 519 c 0,50,51
 386 519 386 519 401 507 c 0,52,53
 409 500 409 500 409 484 c 0,54,55
 409 464 409 464 402 446 c 1,56,57
 354 462 354 462 252 462 c 0,58,59
 213 462 213 462 163 460 c 1,11,12
EndSplineSet
EndChar

StartChar: eacute
Encoding: 233 233 168
Width: 447
GlyphClass: 2
Flags: W
LayerCount: 2
Fore
SplineSet
377 664 m 0,0,1
 355 648 355 648 297.5 614.5 c 128,-1,2
 240 581 240 581 227 569 c 1,3,4
 211 583 211 583 211 598 c 0,5,6
 211 615 211 615 227 627.5 c 128,-1,7
 243 640 243 640 284.5 671 c 128,-1,8
 326 702 326 702 367 747 c 1,9,10
 402 727 402 727 402 701 c 0,11,12
 402 681 402 681 377 664 c 0,0,1
163 460 m 1,13,14
 166 436 166 436 166 305 c 1,15,-1
 230 305 l 2,16,17
 297 305 297 305 326 308 c 1,18,19
 329 300 329 300 329 286 c 0,20,21
 329 266 329 266 320.5 258.5 c 128,-1,22
 312 251 312 251 294 250 c 0,23,24
 273 249 273 249 237 249 c 2,25,-1
 166 249 l 1,26,27
 166 88 166 88 172 55 c 1,28,29
 208 53 208 53 230 53 c 0,30,31
 362 53 362 53 403 71 c 1,32,33
 410 53 410 53 410 33 c 0,34,35
 410 17 410 17 402 10 c 0,36,37
 387 -1 387 -1 266 -1 c 0,38,39
 242 -1 242 -1 189 -0.5 c 128,-1,40
 136 0 136 0 134 0 c 0,41,42
 109 1 109 1 100.5 11 c 128,-1,43
 92 21 92 21 92 44 c 0,44,45
 92 58 92 58 93 105.5 c 128,-1,46
 94 153 94 153 94 180 c 2,47,-1
 94 333 l 2,48,49
 94 447 94 447 82 512 c 1,50,51
 180 519 180 519 265 519 c 0,52,53
 386 519 386 519 401 507 c 0,54,55
 409 500 409 500 409 484 c 0,56,57
 409 464 409 464 402 446 c 1,58,59
 354 462 354 462 252 462 c 0,60,61
 213 462 213 462 163 460 c 1,13,14
EndSplineSet
EndChar

StartChar: ecircumflex
Encoding: 234 234 169
Width: 447
GlyphClass: 2
Flags: W
LayerCount: 2
Fore
SplineSet
242 724 m 1,0,1
 289 694 289 694 330.5 656.5 c 128,-1,2
 372 619 372 619 372 592 c 0,3,4
 372 574 372 574 349 564 c 1,5,6
 330 588 330 588 303 610 c 128,-1,7
 276 632 276 632 258 642 c 2,8,-1
 240 653 l 1,9,10
 234 648 234 648 221.5 637.5 c 128,-1,11
 209 627 209 627 201.5 621 c 128,-1,12
 194 615 194 615 183 606.5 c 128,-1,13
 172 598 172 598 164.5 592.5 c 128,-1,14
 157 587 157 587 149.5 582 c 128,-1,15
 142 577 142 577 136 574.5 c 128,-1,16
 130 572 130 572 126 572 c 0,17,18
 114 572 114 572 101 590 c 1,19,20
 165 667 165 667 242 724 c 1,0,1
163 460 m 1,21,22
 166 436 166 436 166 305 c 1,23,-1
 230 305 l 2,24,25
 297 305 297 305 326 308 c 1,26,27
 329 300 329 300 329 286 c 0,28,29
 329 266 329 266 320.5 258.5 c 128,-1,30
 312 251 312 251 294 250 c 0,31,32
 273 249 273 249 237 249 c 2,33,-1
 166 249 l 1,34,35
 166 88 166 88 172 55 c 1,36,37
 208 53 208 53 230 53 c 0,38,39
 362 53 362 53 403 71 c 1,40,41
 410 53 410 53 410 33 c 0,42,43
 410 17 410 17 402 10 c 0,44,45
 387 -1 387 -1 266 -1 c 0,46,47
 242 -1 242 -1 189 -0.5 c 128,-1,48
 136 0 136 0 134 0 c 0,49,50
 109 1 109 1 100.5 11 c 128,-1,51
 92 21 92 21 92 44 c 0,52,53
 92 58 92 58 93 105.5 c 128,-1,54
 94 153 94 153 94 180 c 2,55,-1
 94 333 l 2,56,57
 94 447 94 447 82 512 c 1,58,59
 180 519 180 519 265 519 c 0,60,61
 386 519 386 519 401 507 c 0,62,63
 409 500 409 500 409 484 c 0,64,65
 409 464 409 464 402 446 c 1,66,67
 354 462 354 462 252 462 c 0,68,69
 213 462 213 462 163 460 c 1,21,22
EndSplineSet
EndChar

StartChar: edieresis
Encoding: 235 235 170
Width: 447
GlyphClass: 2
Flags: W
LayerCount: 2
Fore
SplineSet
322 562 m 0,0,1
 301 562 301 562 286 577 c 128,-1,2
 271 592 271 592 271 616 c 0,3,4
 271 638 271 638 287 653.5 c 128,-1,5
 303 669 303 669 324 669 c 0,6,7
 344 669 344 669 359 653.5 c 128,-1,8
 374 638 374 638 374 616 c 0,9,10
 374 593 374 593 358 577.5 c 128,-1,11
 342 562 342 562 322 562 c 0,0,1
144 562 m 0,12,13
 123 562 123 562 108 577 c 128,-1,14
 93 592 93 592 93 616 c 0,15,16
 93 638 93 638 109 653.5 c 128,-1,17
 125 669 125 669 146 669 c 0,18,19
 166 669 166 669 181 653.5 c 128,-1,20
 196 638 196 638 196 616 c 0,21,22
 196 593 196 593 180 577.5 c 128,-1,23
 164 562 164 562 144 562 c 0,12,13
163 460 m 1,24,25
 166 436 166 436 166 305 c 1,26,-1
 230 305 l 2,27,28
 297 305 297 305 326 308 c 1,29,30
 329 300 329 300 329 286 c 0,31,32
 329 266 329 266 320.5 258.5 c 128,-1,33
 312 251 312 251 294 250 c 0,34,35
 273 249 273 249 237 249 c 2,36,-1
 166 249 l 1,37,38
 166 88 166 88 172 55 c 1,39,40
 208 53 208 53 230 53 c 0,41,42
 362 53 362 53 403 71 c 1,43,44
 410 53 410 53 410 33 c 0,45,46
 410 17 410 17 402 10 c 0,47,48
 387 -1 387 -1 266 -1 c 0,49,50
 242 -1 242 -1 189 -0.5 c 128,-1,51
 136 0 136 0 134 0 c 0,52,53
 109 1 109 1 100.5 11 c 128,-1,54
 92 21 92 21 92 44 c 0,55,56
 92 58 92 58 93 105.5 c 128,-1,57
 94 153 94 153 94 180 c 2,58,-1
 94 333 l 2,59,60
 94 447 94 447 82 512 c 1,61,62
 180 519 180 519 265 519 c 0,63,64
 386 519 386 519 401 507 c 0,65,66
 409 500 409 500 409 484 c 0,67,68
 409 464 409 464 402 446 c 1,69,70
 354 462 354 462 252 462 c 0,71,72
 213 462 213 462 163 460 c 1,24,25
EndSplineSet
EndChar

StartChar: igrave
Encoding: 236 236 171
Width: 268
GlyphClass: 2
Flags: W
LayerCount: 2
Fore
SplineSet
98 180 m 2,0,-1
 98 336 l 2,1,2
 98 440 98 440 92 516 c 1,3,4
 110 519 110 519 130 519 c 0,5,6
 177 519 177 519 177 489 c 0,7,8
 177 485 177 485 175.5 458 c 128,-1,9
 174 431 174 431 172 391 c 128,-1,10
 170 351 170 351 170 315 c 2,11,-1
 170 158 l 2,12,13
 170 53 170 53 186 4 c 1,14,15
 171 -2 171 -2 142 -2 c 0,16,17
 115 -2 115 -2 105.5 8 c 128,-1,18
 96 18 96 18 96 42 c 0,19,20
 96 54 96 54 97 103 c 128,-1,21
 98 152 98 152 98 180 c 2,0,-1
39 747 m 1,22,23
 76 706 76 706 117 674.5 c 128,-1,24
 158 643 158 643 176 628.5 c 128,-1,25
 194 614 194 614 194 599 c 128,-1,26
 194 584 194 584 178 570 c 1,27,28
 150 591 150 591 101.5 618 c 128,-1,29
 53 645 53 645 28.5 663 c 128,-1,30
 4 681 4 681 4 701 c 0,31,32
 4 727 4 727 39 747 c 1,22,23
EndSplineSet
EndChar

StartChar: iacute
Encoding: 237 237 172
Width: 268
GlyphClass: 2
Flags: W
LayerCount: 2
Fore
SplineSet
98 180 m 2,0,-1
 98 336 l 2,1,2
 98 440 98 440 92 516 c 1,3,4
 110 519 110 519 130 519 c 0,5,6
 177 519 177 519 177 489 c 0,7,8
 177 485 177 485 175.5 458 c 128,-1,9
 174 431 174 431 172 391 c 128,-1,10
 170 351 170 351 170 315 c 2,11,-1
 170 158 l 2,12,13
 170 53 170 53 186 4 c 1,14,15
 171 -2 171 -2 142 -2 c 0,16,17
 115 -2 115 -2 105.5 8 c 128,-1,18
 96 18 96 18 96 42 c 0,19,20
 96 54 96 54 97 103 c 128,-1,21
 98 152 98 152 98 180 c 2,0,-1
240 664 m 0,22,23
 218 648 218 648 160.5 614.5 c 128,-1,24
 103 581 103 581 90 569 c 1,25,26
 74 583 74 583 74 598 c 0,27,28
 74 615 74 615 90 627.5 c 128,-1,29
 106 640 106 640 147.5 671 c 128,-1,30
 189 702 189 702 230 747 c 1,31,32
 265 727 265 727 265 701 c 0,33,34
 265 681 265 681 240 664 c 0,22,23
EndSplineSet
EndChar

StartChar: icircumflex
Encoding: 238 238 173
Width: 268
GlyphClass: 2
Flags: W
LayerCount: 2
Fore
SplineSet
98 180 m 2,0,-1
 98 336 l 2,1,2
 98 440 98 440 92 516 c 1,3,4
 110 519 110 519 130 519 c 0,5,6
 177 519 177 519 177 489 c 0,7,8
 177 485 177 485 175.5 458 c 128,-1,9
 174 431 174 431 172 391 c 128,-1,10
 170 351 170 351 170 315 c 2,11,-1
 170 158 l 2,12,13
 170 53 170 53 186 4 c 1,14,15
 171 -2 171 -2 142 -2 c 0,16,17
 115 -2 115 -2 105.5 8 c 128,-1,18
 96 18 96 18 96 42 c 0,19,20
 96 54 96 54 97 103 c 128,-1,21
 98 152 98 152 98 180 c 2,0,-1
138 724 m 1,22,23
 185 694 185 694 226.5 656.5 c 128,-1,24
 268 619 268 619 268 592 c 0,25,26
 268 574 268 574 245 564 c 1,27,28
 226 588 226 588 199 610 c 128,-1,29
 172 632 172 632 154 642 c 2,30,-1
 136 653 l 1,31,32
 130 648 130 648 117.5 637.5 c 128,-1,33
 105 627 105 627 97.5 621 c 128,-1,34
 90 615 90 615 79 606.5 c 128,-1,35
 68 598 68 598 60.5 592.5 c 128,-1,36
 53 587 53 587 45.5 582 c 128,-1,37
 38 577 38 577 32 574.5 c 128,-1,38
 26 572 26 572 22 572 c 0,39,40
 10 572 10 572 -3 590 c 1,41,42
 61 667 61 667 138 724 c 1,22,23
EndSplineSet
EndChar

StartChar: idieresis
Encoding: 239 239 174
Width: 268
GlyphClass: 2
Flags: W
LayerCount: 2
Fore
SplineSet
98 180 m 2,0,-1
 98 336 l 2,1,2
 98 440 98 440 92 516 c 1,3,4
 110 519 110 519 130 519 c 0,5,6
 177 519 177 519 177 489 c 0,7,8
 177 485 177 485 175.5 458 c 128,-1,9
 174 431 174 431 172 391 c 128,-1,10
 170 351 170 351 170 315 c 2,11,-1
 170 158 l 2,12,13
 170 53 170 53 186 4 c 1,14,15
 171 -2 171 -2 142 -2 c 0,16,17
 115 -2 115 -2 105.5 8 c 128,-1,18
 96 18 96 18 96 42 c 0,19,20
 96 54 96 54 97 103 c 128,-1,21
 98 152 98 152 98 180 c 2,0,-1
222 562 m 0,22,23
 201 562 201 562 186 577 c 128,-1,24
 171 592 171 592 171 616 c 0,25,26
 171 638 171 638 187 653.5 c 128,-1,27
 203 669 203 669 224 669 c 0,28,29
 244 669 244 669 259 653.5 c 128,-1,30
 274 638 274 638 274 616 c 0,31,32
 274 593 274 593 258 577.5 c 128,-1,33
 242 562 242 562 222 562 c 0,22,23
44 562 m 0,34,35
 23 562 23 562 8 577 c 128,-1,36
 -7 592 -7 592 -7 616 c 0,37,38
 -7 638 -7 638 9 653.5 c 128,-1,39
 25 669 25 669 46 669 c 0,40,41
 66 669 66 669 81 653.5 c 128,-1,42
 96 638 96 638 96 616 c 0,43,44
 96 593 96 593 80 577.5 c 128,-1,45
 64 562 64 562 44 562 c 0,34,35
EndSplineSet
EndChar

StartChar: eth
Encoding: 240 240 175
Width: 534
GlyphClass: 2
Flags: W
LayerCount: 2
Fore
SplineSet
39 41 m 1,0,1
 49 103 49 103 51 249 c 1,2,3
 16 249 16 249 -17 246 c 1,4,5
 -20 254 -20 254 -20 268 c 0,6,7
 -20 288 -20 288 -11.5 295.5 c 128,-1,8
 -3 303 -3 303 15 304 c 0,9,10
 22 304 22 304 34 304.5 c 128,-1,11
 46 305 46 305 52 305 c 1,12,13
 52 437 52 437 42 515 c 1,14,15
 90 524 90 524 171 524 c 0,16,17
 236 524 236 524 287.5 511 c 128,-1,18
 339 498 339 498 382.5 468.5 c 128,-1,19
 426 439 426 439 449.5 386 c 128,-1,20
 473 333 473 333 473 259 c 0,21,22
 473 143 473 143 406 68 c 128,-1,23
 339 -7 339 -7 216 -7 c 0,24,25
 101 -7 101 -7 39 41 c 1,0,1
124 305 m 1,26,-1
 164 305 l 2,27,28
 231 305 231 305 260 308 c 1,29,30
 263 300 263 300 263 286 c 0,31,32
 263 266 263 266 254.5 258.5 c 128,-1,33
 246 251 246 251 228 250 c 0,34,35
 207 249 207 249 171 249 c 2,36,-1
 123 249 l 1,37,38
 119 128 119 128 113 75 c 1,39,40
 154 48 154 48 217 48 c 0,41,42
 266 48 266 48 302 66 c 128,-1,43
 338 84 338 84 357 114.5 c 128,-1,44
 376 145 376 145 384.5 177.5 c 128,-1,45
 393 210 393 210 393 245 c 0,46,47
 393 357 393 357 335.5 413.5 c 128,-1,48
 278 470 278 470 171 470 c 0,49,50
 164 470 164 470 156 469.5 c 128,-1,51
 148 469 148 469 137.5 468 c 128,-1,52
 127 467 127 467 121 467 c 1,53,54
 124 427 124 427 124 344 c 2,55,-1
 124 305 l 1,26,-1
EndSplineSet
EndChar

StartChar: ntilde
Encoding: 241 241 176
Width: 569
GlyphClass: 2
Flags: W
LayerCount: 2
Fore
SplineSet
486 0 m 1,0,1
 466 -2 466 -2 455 -2 c 0,2,3
 421 -2 421 -2 407 18 c 0,4,5
 377 64 377 64 294 202 c 128,-1,6
 211 340 211 340 158 417 c 1,7,8
 160 342 160 342 160 181 c 0,9,10
 160 49 160 49 176 3 c 1,11,12
 158 -2 158 -2 141 -2 c 0,13,14
 114 -2 114 -2 105 8 c 128,-1,15
 96 18 96 18 96 42 c 0,16,17
 96 54 96 54 96.5 103 c 128,-1,18
 97 152 97 152 97 180 c 2,19,-1
 97 336 l 2,20,21
 97 466 97 466 82 514 c 1,22,23
 100 520 100 520 125 520 c 0,24,25
 156 520 156 520 177 497 c 1,26,27
 216 457 216 457 291 339 c 128,-1,28
 366 221 366 221 423 116 c 1,29,30
 418 188 418 188 418 331 c 0,31,32
 418 439 418 439 412 517 c 1,33,34
 428 519 428 519 441 519 c 0,35,36
 487 519 487 519 487 489 c 0,37,38
 487 485 487 485 485.5 458 c 128,-1,39
 484 431 484 431 482.5 391 c 128,-1,40
 481 351 481 351 481 315 c 2,41,-1
 481 181 l 2,42,43
 481 64 481 64 486 0 c 1,0,1
427 655 m 0,44,45
 427 627 427 627 396 601 c 128,-1,46
 365 575 365 575 330 575 c 0,47,48
 309 575 309 575 271.5 597.5 c 128,-1,49
 234 620 234 620 216 620 c 128,-1,50
 198 620 198 620 157 578 c 1,51,52
 141 585 141 585 141 599 c 0,53,54
 141 626 141 626 172.5 652.5 c 128,-1,55
 204 679 204 679 239 679 c 0,56,57
 257 679 257 679 296 656.5 c 128,-1,58
 335 634 335 634 352 634 c 0,59,60
 375 634 375 634 411 676 c 1,61,62
 427 670 427 670 427 655 c 0,44,45
EndSplineSet
EndChar

StartChar: ograve
Encoding: 242 242 177
Width: 606
GlyphClass: 2
Flags: W
LayerCount: 2
Fore
SplineSet
186 747 m 1,0,1
 223 706 223 706 264 674.5 c 128,-1,2
 305 643 305 643 323 628.5 c 128,-1,3
 341 614 341 614 341 599 c 128,-1,4
 341 584 341 584 325 570 c 1,5,6
 297 591 297 591 248.5 618 c 128,-1,7
 200 645 200 645 175.5 663 c 128,-1,8
 151 681 151 681 151 701 c 0,9,10
 151 727 151 727 186 747 c 1,0,1
302 -7 m 0,11,12
 186 -7 186 -7 117 65 c 128,-1,13
 48 137 48 137 48 258 c 0,14,15
 48 380 48 380 117 452 c 128,-1,16
 186 524 186 524 302 524 c 0,17,18
 419 524 419 524 488.5 452 c 128,-1,19
 558 380 558 380 558 258 c 0,20,21
 558 137 558 137 488.5 65 c 128,-1,22
 419 -7 419 -7 302 -7 c 0,11,12
478 244 m 0,23,24
 478 301 478 301 462 350 c 128,-1,25
 446 399 446 399 404.5 434 c 128,-1,26
 363 469 363 469 303 469 c 0,27,28
 222 469 222 469 174.5 416 c 128,-1,29
 127 363 127 363 127 281 c 0,30,31
 127 221 127 221 143 170 c 128,-1,32
 159 119 159 119 200 83 c 128,-1,33
 241 47 241 47 302 47 c 0,34,35
 386 47 386 47 432 101.5 c 128,-1,36
 478 156 478 156 478 244 c 0,23,24
EndSplineSet
EndChar

StartChar: oacute
Encoding: 243 243 178
Width: 606
GlyphClass: 2
Flags: W
LayerCount: 2
Fore
SplineSet
417 664 m 0,0,1
 395 648 395 648 337.5 614.5 c 128,-1,2
 280 581 280 581 267 569 c 1,3,4
 251 583 251 583 251 598 c 0,5,6
 251 615 251 615 267 627.5 c 128,-1,7
 283 640 283 640 324.5 671 c 128,-1,8
 366 702 366 702 407 747 c 1,9,10
 442 727 442 727 442 701 c 0,11,12
 442 681 442 681 417 664 c 0,0,1
302 -7 m 0,13,14
 186 -7 186 -7 117 65 c 128,-1,15
 48 137 48 137 48 258 c 0,16,17
 48 380 48 380 117 452 c 128,-1,18
 186 524 186 524 302 524 c 0,19,20
 419 524 419 524 488.5 452 c 128,-1,21
 558 380 558 380 558 258 c 0,22,23
 558 137 558 137 488.5 65 c 128,-1,24
 419 -7 419 -7 302 -7 c 0,13,14
478 244 m 0,25,26
 478 301 478 301 462 350 c 128,-1,27
 446 399 446 399 404.5 434 c 128,-1,28
 363 469 363 469 303 469 c 0,29,30
 222 469 222 469 174.5 416 c 128,-1,31
 127 363 127 363 127 281 c 0,32,33
 127 221 127 221 143 170 c 128,-1,34
 159 119 159 119 200 83 c 128,-1,35
 241 47 241 47 302 47 c 0,36,37
 386 47 386 47 432 101.5 c 128,-1,38
 478 156 478 156 478 244 c 0,25,26
EndSplineSet
EndChar

StartChar: ocircumflex
Encoding: 244 244 179
Width: 606
GlyphClass: 2
Flags: W
LayerCount: 2
Fore
SplineSet
309 724 m 1,0,1
 356 694 356 694 397.5 656.5 c 128,-1,2
 439 619 439 619 439 592 c 0,3,4
 439 574 439 574 416 564 c 1,5,6
 397 588 397 588 370 610 c 128,-1,7
 343 632 343 632 325 642 c 2,8,-1
 307 653 l 1,9,10
 301 648 301 648 288.5 637.5 c 128,-1,11
 276 627 276 627 268.5 621 c 128,-1,12
 261 615 261 615 250 606.5 c 128,-1,13
 239 598 239 598 231.5 592.5 c 128,-1,14
 224 587 224 587 216.5 582 c 128,-1,15
 209 577 209 577 203 574.5 c 128,-1,16
 197 572 197 572 193 572 c 0,17,18
 181 572 181 572 168 590 c 1,19,20
 232 667 232 667 309 724 c 1,0,1
302 -7 m 0,21,22
 186 -7 186 -7 117 65 c 128,-1,23
 48 137 48 137 48 258 c 0,24,25
 48 380 48 380 117 452 c 128,-1,26
 186 524 186 524 302 524 c 0,27,28
 419 524 419 524 488.5 452 c 128,-1,29
 558 380 558 380 558 258 c 0,30,31
 558 137 558 137 488.5 65 c 128,-1,32
 419 -7 419 -7 302 -7 c 0,21,22
478 244 m 0,33,34
 478 301 478 301 462 350 c 128,-1,35
 446 399 446 399 404.5 434 c 128,-1,36
 363 469 363 469 303 469 c 0,37,38
 222 469 222 469 174.5 416 c 128,-1,39
 127 363 127 363 127 281 c 0,40,41
 127 221 127 221 143 170 c 128,-1,42
 159 119 159 119 200 83 c 128,-1,43
 241 47 241 47 302 47 c 0,44,45
 386 47 386 47 432 101.5 c 128,-1,46
 478 156 478 156 478 244 c 0,33,34
EndSplineSet
EndChar

StartChar: otilde
Encoding: 245 245 180
Width: 606
GlyphClass: 2
Flags: W
LayerCount: 2
Fore
SplineSet
446 655 m 0,0,1
 446 627 446 627 415 601 c 128,-1,2
 384 575 384 575 349 575 c 0,3,4
 328 575 328 575 290.5 597.5 c 128,-1,5
 253 620 253 620 235 620 c 128,-1,6
 217 620 217 620 176 578 c 1,7,8
 160 585 160 585 160 599 c 0,9,10
 160 626 160 626 191.5 652.5 c 128,-1,11
 223 679 223 679 258 679 c 0,12,13
 276 679 276 679 315 656.5 c 128,-1,14
 354 634 354 634 371 634 c 0,15,16
 394 634 394 634 430 676 c 1,17,18
 446 670 446 670 446 655 c 0,0,1
302 -7 m 0,19,20
 186 -7 186 -7 117 65 c 128,-1,21
 48 137 48 137 48 258 c 0,22,23
 48 380 48 380 117 452 c 128,-1,24
 186 524 186 524 302 524 c 0,25,26
 419 524 419 524 488.5 452 c 128,-1,27
 558 380 558 380 558 258 c 0,28,29
 558 137 558 137 488.5 65 c 128,-1,30
 419 -7 419 -7 302 -7 c 0,19,20
478 244 m 0,31,32
 478 301 478 301 462 350 c 128,-1,33
 446 399 446 399 404.5 434 c 128,-1,34
 363 469 363 469 303 469 c 0,35,36
 222 469 222 469 174.5 416 c 128,-1,37
 127 363 127 363 127 281 c 0,38,39
 127 221 127 221 143 170 c 128,-1,40
 159 119 159 119 200 83 c 128,-1,41
 241 47 241 47 302 47 c 0,42,43
 386 47 386 47 432 101.5 c 128,-1,44
 478 156 478 156 478 244 c 0,31,32
EndSplineSet
EndChar

StartChar: odieresis
Encoding: 246 246 181
Width: 606
GlyphClass: 2
Flags: W
LayerCount: 2
Fore
SplineSet
392 562 m 0,0,1
 371 562 371 562 356 577 c 128,-1,2
 341 592 341 592 341 616 c 0,3,4
 341 638 341 638 357 653.5 c 128,-1,5
 373 669 373 669 394 669 c 0,6,7
 414 669 414 669 429 653.5 c 128,-1,8
 444 638 444 638 444 616 c 0,9,10
 444 593 444 593 428 577.5 c 128,-1,11
 412 562 412 562 392 562 c 0,0,1
214 562 m 0,12,13
 193 562 193 562 178 577 c 128,-1,14
 163 592 163 592 163 616 c 0,15,16
 163 638 163 638 179 653.5 c 128,-1,17
 195 669 195 669 216 669 c 0,18,19
 236 669 236 669 251 653.5 c 128,-1,20
 266 638 266 638 266 616 c 0,21,22
 266 593 266 593 250 577.5 c 128,-1,23
 234 562 234 562 214 562 c 0,12,13
302 -7 m 0,24,25
 186 -7 186 -7 117 65 c 128,-1,26
 48 137 48 137 48 258 c 0,27,28
 48 380 48 380 117 452 c 128,-1,29
 186 524 186 524 302 524 c 0,30,31
 419 524 419 524 488.5 452 c 128,-1,32
 558 380 558 380 558 258 c 0,33,34
 558 137 558 137 488.5 65 c 128,-1,35
 419 -7 419 -7 302 -7 c 0,24,25
478 244 m 0,36,37
 478 301 478 301 462 350 c 128,-1,38
 446 399 446 399 404.5 434 c 128,-1,39
 363 469 363 469 303 469 c 0,40,41
 222 469 222 469 174.5 416 c 128,-1,42
 127 363 127 363 127 281 c 0,43,44
 127 221 127 221 143 170 c 128,-1,45
 159 119 159 119 200 83 c 128,-1,46
 241 47 241 47 302 47 c 0,47,48
 386 47 386 47 432 101.5 c 128,-1,49
 478 156 478 156 478 244 c 0,36,37
EndSplineSet
EndChar

StartChar: divide
Encoding: 247 247 182
Width: 535
GlyphClass: 2
Flags: W
LayerCount: 2
Fore
SplineSet
466 258 m 0,0,1
 466 240 466 240 456 228 c 128,-1,2
 446 216 446 216 430 216 c 128,-1,3
 414 216 414 216 358.5 220 c 128,-1,4
 303 224 303 224 274 224 c 0,5,6
 160 224 160 224 72 216 c 1,7,8
 69 231 69 231 69 246 c 0,9,10
 69 262 69 262 78 275 c 128,-1,11
 87 288 87 288 105 288 c 0,12,13
 108 288 108 288 168 284.5 c 128,-1,14
 228 281 228 281 272 281 c 0,15,16
 402 281 402 281 463 288 c 1,17,18
 466 279 466 279 466 258 c 0,0,1
271 367 m 128,-1,20
 248 367 248 367 232 383 c 128,-1,21
 216 399 216 399 216 424 c 0,22,23
 216 448 216 448 232 464.5 c 128,-1,24
 248 481 248 481 271 481 c 128,-1,25
 294 481 294 481 309.5 464.5 c 128,-1,26
 325 448 325 448 325 424 c 0,27,28
 325 399 325 399 309.5 383 c 128,-1,19
 294 367 294 367 271 367 c 128,-1,20
271 23 m 128,-1,30
 248 23 248 23 232 39 c 128,-1,31
 216 55 216 55 216 80 c 0,32,33
 216 104 216 104 232 120.5 c 128,-1,34
 248 137 248 137 271 137 c 128,-1,35
 294 137 294 137 309.5 120.5 c 128,-1,36
 325 104 325 104 325 80 c 0,37,38
 325 55 325 55 309.5 39 c 128,-1,29
 294 23 294 23 271 23 c 128,-1,30
EndSplineSet
EndChar

StartChar: oslash
Encoding: 248 248 183
Width: 606
GlyphClass: 2
Flags: W
LayerCount: 2
Fore
SplineSet
127 281 m 0,0,1
 127 165 127 165 182 100 c 1,2,-1
 378 452 l 1,3,4
 346 469 346 469 303 469 c 0,5,6
 222 469 222 469 174.5 416 c 128,-1,7
 127 363 127 363 127 281 c 0,0,1
478 244 m 0,8,9
 478 353 478 353 422 418 c 1,10,-1
 226 64 l 1,11,12
 258 47 258 47 302 47 c 0,13,14
 386 47 386 47 432 101.5 c 128,-1,15
 478 156 478 156 478 244 c 0,8,9
109 -33 m 2,16,-1
 148 37 l 1,17,18
 48 107 48 107 48 258 c 0,19,20
 48 380 48 380 117 452 c 128,-1,21
 186 524 186 524 302 524 c 0,22,23
 357 524 357 524 408 505 c 1,24,25
 427 541 427 541 456 603 c 1,26,27
 473 602 473 602 487.5 594 c 128,-1,28
 502 586 502 586 502 572 c 0,29,30
 502 566 502 566 496 552 c 1,31,-1
 456 480 l 1,32,33
 558 408 558 408 558 258 c 0,34,35
 558 137 558 137 488.5 65 c 128,-1,36
 419 -7 419 -7 302 -7 c 0,37,38
 248 -7 248 -7 197 11 c 1,39,-1
 195 8 l 1,40,41
 176 -25 176 -25 149 -84 c 1,42,43
 103 -78 103 -78 103 -52 c 0,44,45
 103 -45 103 -45 109 -33 c 2,16,-1
EndSplineSet
EndChar

StartChar: ugrave
Encoding: 249 249 184
Width: 580
GlyphClass: 2
Flags: W
LayerCount: 2
Fore
SplineSet
162 747 m 1,0,1
 199 706 199 706 240 674.5 c 128,-1,2
 281 643 281 643 299 628.5 c 128,-1,3
 317 614 317 614 317 599 c 128,-1,4
 317 584 317 584 301 570 c 1,5,6
 273 591 273 591 224.5 618 c 128,-1,7
 176 645 176 645 151.5 663 c 128,-1,8
 127 681 127 681 127 701 c 0,9,10
 127 727 127 727 162 747 c 1,0,1
86 513 m 1,11,12
 104 519 104 519 128 519 c 0,13,14
 155 519 155 519 167.5 510 c 128,-1,15
 180 501 180 501 180 479 c 0,16,17
 180 446 180 446 173.5 334 c 128,-1,18
 167 222 167 222 167 159 c 0,19,20
 167 106 167 106 198 79 c 128,-1,21
 229 52 229 52 271 52 c 0,22,23
 309 52 309 52 351 70 c 128,-1,24
 393 88 393 88 419 112 c 1,25,26
 419 117 419 117 419.5 137.5 c 128,-1,27
 420 158 420 158 420 208 c 128,-1,28
 420 258 420 258 420 336 c 0,29,30
 420 440 420 440 414 516 c 1,31,32
 430 519 430 519 453 519 c 0,33,34
 499 519 499 519 499 489 c 0,35,36
 499 488 499 488 497.5 460.5 c 128,-1,37
 496 433 496 433 494 375 c 128,-1,38
 492 317 492 317 492 241 c 0,39,40
 492 120 492 120 494.5 79 c 128,-1,41
 497 38 497 38 508 3 c 1,42,43
 491 -2 491 -2 464 -2 c 0,44,45
 438 -2 438 -2 428 7.5 c 128,-1,46
 418 17 418 17 418 43 c 2,47,-1
 418 55 l 1,48,49
 385 28 385 28 340 10.5 c 128,-1,50
 295 -7 295 -7 257 -7 c 0,51,52
 181 -7 181 -7 136.5 27 c 128,-1,53
 92 61 92 61 92 149 c 0,54,55
 92 195 92 195 95.5 273.5 c 128,-1,56
 99 352 99 352 99 390 c 0,57,58
 99 466 99 466 86 513 c 1,11,12
EndSplineSet
EndChar

StartChar: uacute
Encoding: 250 250 185
Width: 580
GlyphClass: 2
Flags: W
LayerCount: 2
Fore
SplineSet
426 664 m 0,0,1
 404 648 404 648 346.5 614.5 c 128,-1,2
 289 581 289 581 276 569 c 1,3,4
 260 583 260 583 260 598 c 0,5,6
 260 615 260 615 276 627.5 c 128,-1,7
 292 640 292 640 333.5 671 c 128,-1,8
 375 702 375 702 416 747 c 1,9,10
 451 727 451 727 451 701 c 0,11,12
 451 681 451 681 426 664 c 0,0,1
86 513 m 1,13,14
 104 519 104 519 128 519 c 0,15,16
 155 519 155 519 167.5 510 c 128,-1,17
 180 501 180 501 180 479 c 0,18,19
 180 446 180 446 173.5 334 c 128,-1,20
 167 222 167 222 167 159 c 0,21,22
 167 106 167 106 198 79 c 128,-1,23
 229 52 229 52 271 52 c 0,24,25
 309 52 309 52 351 70 c 128,-1,26
 393 88 393 88 419 112 c 1,27,28
 419 117 419 117 419.5 137.5 c 128,-1,29
 420 158 420 158 420 208 c 128,-1,30
 420 258 420 258 420 336 c 0,31,32
 420 440 420 440 414 516 c 1,33,34
 430 519 430 519 453 519 c 0,35,36
 499 519 499 519 499 489 c 0,37,38
 499 488 499 488 497.5 460.5 c 128,-1,39
 496 433 496 433 494 375 c 128,-1,40
 492 317 492 317 492 241 c 0,41,42
 492 120 492 120 494.5 79 c 128,-1,43
 497 38 497 38 508 3 c 1,44,45
 491 -2 491 -2 464 -2 c 0,46,47
 438 -2 438 -2 428 7.5 c 128,-1,48
 418 17 418 17 418 43 c 2,49,-1
 418 55 l 1,50,51
 385 28 385 28 340 10.5 c 128,-1,52
 295 -7 295 -7 257 -7 c 0,53,54
 181 -7 181 -7 136.5 27 c 128,-1,55
 92 61 92 61 92 149 c 0,56,57
 92 195 92 195 95.5 273.5 c 128,-1,58
 99 352 99 352 99 390 c 0,59,60
 99 466 99 466 86 513 c 1,13,14
EndSplineSet
EndChar

